G75*
%MOIN*%
%OFA0B0*%
%FSLAX24Y24*%
%IPPOS*%
%LPD*%
%AMOC8*
5,1,8,0,0,1.08239X$1,22.5*
%
%ADD10C,0.0000*%
%ADD11C,0.1221*%
%ADD12C,0.0640*%
%ADD13R,0.0749X0.0749*%
%ADD14OC8,0.0749*%
%ADD15OC8,0.0600*%
D10*
X000800Y000550D02*
X000800Y020235D01*
X020485Y020235D01*
X020485Y000550D01*
X000800Y000550D01*
X001209Y010550D02*
X001211Y010598D01*
X001217Y010646D01*
X001227Y010693D01*
X001240Y010739D01*
X001258Y010784D01*
X001278Y010828D01*
X001303Y010870D01*
X001331Y010909D01*
X001361Y010946D01*
X001395Y010980D01*
X001432Y011012D01*
X001470Y011041D01*
X001511Y011066D01*
X001554Y011088D01*
X001599Y011106D01*
X001645Y011120D01*
X001692Y011131D01*
X001740Y011138D01*
X001788Y011141D01*
X001836Y011140D01*
X001884Y011135D01*
X001932Y011126D01*
X001978Y011114D01*
X002023Y011097D01*
X002067Y011077D01*
X002109Y011054D01*
X002149Y011027D01*
X002187Y010997D01*
X002222Y010964D01*
X002254Y010928D01*
X002284Y010890D01*
X002310Y010849D01*
X002332Y010806D01*
X002352Y010762D01*
X002367Y010717D01*
X002379Y010670D01*
X002387Y010622D01*
X002391Y010574D01*
X002391Y010526D01*
X002387Y010478D01*
X002379Y010430D01*
X002367Y010383D01*
X002352Y010338D01*
X002332Y010294D01*
X002310Y010251D01*
X002284Y010210D01*
X002254Y010172D01*
X002222Y010136D01*
X002187Y010103D01*
X002149Y010073D01*
X002109Y010046D01*
X002067Y010023D01*
X002023Y010003D01*
X001978Y009986D01*
X001932Y009974D01*
X001884Y009965D01*
X001836Y009960D01*
X001788Y009959D01*
X001740Y009962D01*
X001692Y009969D01*
X001645Y009980D01*
X001599Y009994D01*
X001554Y010012D01*
X001511Y010034D01*
X001470Y010059D01*
X001432Y010088D01*
X001395Y010120D01*
X001361Y010154D01*
X001331Y010191D01*
X001303Y010230D01*
X001278Y010272D01*
X001258Y010316D01*
X001240Y010361D01*
X001227Y010407D01*
X001217Y010454D01*
X001211Y010502D01*
X001209Y010550D01*
X018709Y019050D02*
X018711Y019098D01*
X018717Y019146D01*
X018727Y019193D01*
X018740Y019239D01*
X018758Y019284D01*
X018778Y019328D01*
X018803Y019370D01*
X018831Y019409D01*
X018861Y019446D01*
X018895Y019480D01*
X018932Y019512D01*
X018970Y019541D01*
X019011Y019566D01*
X019054Y019588D01*
X019099Y019606D01*
X019145Y019620D01*
X019192Y019631D01*
X019240Y019638D01*
X019288Y019641D01*
X019336Y019640D01*
X019384Y019635D01*
X019432Y019626D01*
X019478Y019614D01*
X019523Y019597D01*
X019567Y019577D01*
X019609Y019554D01*
X019649Y019527D01*
X019687Y019497D01*
X019722Y019464D01*
X019754Y019428D01*
X019784Y019390D01*
X019810Y019349D01*
X019832Y019306D01*
X019852Y019262D01*
X019867Y019217D01*
X019879Y019170D01*
X019887Y019122D01*
X019891Y019074D01*
X019891Y019026D01*
X019887Y018978D01*
X019879Y018930D01*
X019867Y018883D01*
X019852Y018838D01*
X019832Y018794D01*
X019810Y018751D01*
X019784Y018710D01*
X019754Y018672D01*
X019722Y018636D01*
X019687Y018603D01*
X019649Y018573D01*
X019609Y018546D01*
X019567Y018523D01*
X019523Y018503D01*
X019478Y018486D01*
X019432Y018474D01*
X019384Y018465D01*
X019336Y018460D01*
X019288Y018459D01*
X019240Y018462D01*
X019192Y018469D01*
X019145Y018480D01*
X019099Y018494D01*
X019054Y018512D01*
X019011Y018534D01*
X018970Y018559D01*
X018932Y018588D01*
X018895Y018620D01*
X018861Y018654D01*
X018831Y018691D01*
X018803Y018730D01*
X018778Y018772D01*
X018758Y018816D01*
X018740Y018861D01*
X018727Y018907D01*
X018717Y018954D01*
X018711Y019002D01*
X018709Y019050D01*
X018709Y001800D02*
X018711Y001848D01*
X018717Y001896D01*
X018727Y001943D01*
X018740Y001989D01*
X018758Y002034D01*
X018778Y002078D01*
X018803Y002120D01*
X018831Y002159D01*
X018861Y002196D01*
X018895Y002230D01*
X018932Y002262D01*
X018970Y002291D01*
X019011Y002316D01*
X019054Y002338D01*
X019099Y002356D01*
X019145Y002370D01*
X019192Y002381D01*
X019240Y002388D01*
X019288Y002391D01*
X019336Y002390D01*
X019384Y002385D01*
X019432Y002376D01*
X019478Y002364D01*
X019523Y002347D01*
X019567Y002327D01*
X019609Y002304D01*
X019649Y002277D01*
X019687Y002247D01*
X019722Y002214D01*
X019754Y002178D01*
X019784Y002140D01*
X019810Y002099D01*
X019832Y002056D01*
X019852Y002012D01*
X019867Y001967D01*
X019879Y001920D01*
X019887Y001872D01*
X019891Y001824D01*
X019891Y001776D01*
X019887Y001728D01*
X019879Y001680D01*
X019867Y001633D01*
X019852Y001588D01*
X019832Y001544D01*
X019810Y001501D01*
X019784Y001460D01*
X019754Y001422D01*
X019722Y001386D01*
X019687Y001353D01*
X019649Y001323D01*
X019609Y001296D01*
X019567Y001273D01*
X019523Y001253D01*
X019478Y001236D01*
X019432Y001224D01*
X019384Y001215D01*
X019336Y001210D01*
X019288Y001209D01*
X019240Y001212D01*
X019192Y001219D01*
X019145Y001230D01*
X019099Y001244D01*
X019054Y001262D01*
X019011Y001284D01*
X018970Y001309D01*
X018932Y001338D01*
X018895Y001370D01*
X018861Y001404D01*
X018831Y001441D01*
X018803Y001480D01*
X018778Y001522D01*
X018758Y001566D01*
X018740Y001611D01*
X018727Y001657D01*
X018717Y001704D01*
X018711Y001752D01*
X018709Y001800D01*
D11*
X019300Y001800D03*
X019300Y019050D03*
X001800Y010550D03*
D12*
X001550Y019000D02*
X001550Y019600D01*
X002550Y019600D02*
X002550Y019000D01*
X015500Y011800D02*
X016100Y011800D01*
X016100Y010800D02*
X015500Y010800D01*
X015500Y009800D02*
X016100Y009800D01*
X016100Y008800D02*
X015500Y008800D01*
X015500Y007800D02*
X016100Y007800D01*
X016100Y006800D02*
X015500Y006800D01*
X015500Y005800D02*
X016100Y005800D01*
X016100Y004800D02*
X015500Y004800D01*
X015500Y003800D02*
X016100Y003800D01*
X019000Y003300D02*
X019600Y003300D01*
X019600Y004300D02*
X019000Y004300D01*
X019690Y012970D02*
X019690Y013570D01*
X017910Y013570D02*
X017910Y012970D01*
X017910Y015530D02*
X017910Y016130D01*
X019690Y016130D02*
X019690Y015530D01*
D13*
X019300Y010550D03*
D14*
X019300Y009050D03*
X019300Y007550D03*
X019300Y006050D03*
D15*
X015300Y017800D03*
X015300Y018800D03*
X014300Y018800D03*
X013300Y018800D03*
X013300Y017800D03*
X014300Y017800D03*
X012300Y017800D03*
X012300Y018800D03*
X011300Y018800D03*
X011300Y017800D03*
X010300Y017800D03*
X010300Y018800D03*
X009300Y018800D03*
X008300Y018800D03*
X008300Y017800D03*
X009300Y017800D03*
X007300Y017800D03*
X007300Y018800D03*
X006300Y018800D03*
X006300Y017800D03*
M02*
