%
M48
M72
T01C0.0160
T02C0.0360
T03C0.0400
T04C0.0472
T05C0.1181
%
T01
X4500Y10375
X4000Y5250
X6500Y11875
X6750Y3500
X9500Y3500
X12250Y9250
X6750Y9250
X9500Y9000
X6750Y6250
X9250Y6250
X10500Y14250
X13500Y14250
X14500Y14250
X6500Y7125
X13750Y4500
X10750Y2375
X500Y3750
X500Y2750
X500Y1750
X500Y750
X10625Y750
X10625Y1750
X3750Y14500
X3000Y14250
X4000Y19375
X4000Y18500
X4000Y17500
X4000Y16500
X4000Y15500
X3500Y11000
X2250Y11000
X2000Y10750
X2000Y9500
X2000Y8250
X2000Y5750
X2000Y4750
X2250Y4500
X3750Y4500
X4000Y4750
X1000Y13750
X2000Y7000
X3750Y10750
X7875Y6125
X7508Y2992
X7375Y4625
X10758Y7258
X5250Y7750
X6000Y12250
X5250Y11500
X11500Y14375
X8750Y12625
X8750Y11000
X9500Y14375
X9750Y10500
X8500Y14375
X10750Y8750
X10750Y13500
X7500Y14375
X9280Y10750
X6500Y14375
X8098Y10750
X7250Y9250
X8750Y1000
X10750Y6250
X11250Y6989
T02
X5500Y17250
X5500Y18250
X6500Y17250
X6500Y18250
X7500Y17250
X7500Y18250
X8500Y17250
X8500Y18250
X9500Y17250
X9500Y18250
X10500Y17250
X10500Y18250
X11500Y17250
X11500Y18250
X12500Y17250
X12500Y18250
X13500Y17250
X13500Y18250
X14500Y17250
X14500Y18250
T03
X15000Y3250
X15000Y4250
X15000Y5250
X15000Y6250
X15000Y7250
X15000Y8250
X15000Y9250
X15000Y10250
X15000Y11250
X18500Y2750
X18500Y3750
X1750Y18750
X750Y18750
X17110Y12720
X18890Y12720
X17110Y15280
X18890Y15280
T04
X18500Y10000
X18500Y8500
X18500Y7000
X18500Y5500
T05
X18500Y18500
X18500Y1250
X1000Y10000
M30
