G75*
%MOIN*%
%OFA0B0*%
%FSLAX24Y24*%
%IPPOS*%
%LPD*%
%AMOC8*
5,1,8,0,0,1.08239X$1,22.5*
%
%ADD10C,0.0000*%
%ADD11C,0.0600*%
%ADD12R,0.0709X0.0709*%
%ADD13OC8,0.0709*%
%ADD14OC8,0.0560*%
%ADD15C,0.0100*%
%ADD16C,0.0280*%
D10*
X000800Y000550D02*
X000800Y020235D01*
X020485Y020235D01*
X020485Y000550D01*
X000800Y000550D01*
X001209Y010550D02*
X001211Y010598D01*
X001217Y010646D01*
X001227Y010693D01*
X001240Y010739D01*
X001258Y010784D01*
X001278Y010828D01*
X001303Y010870D01*
X001331Y010909D01*
X001361Y010946D01*
X001395Y010980D01*
X001432Y011012D01*
X001470Y011041D01*
X001511Y011066D01*
X001554Y011088D01*
X001599Y011106D01*
X001645Y011120D01*
X001692Y011131D01*
X001740Y011138D01*
X001788Y011141D01*
X001836Y011140D01*
X001884Y011135D01*
X001932Y011126D01*
X001978Y011114D01*
X002023Y011097D01*
X002067Y011077D01*
X002109Y011054D01*
X002149Y011027D01*
X002187Y010997D01*
X002222Y010964D01*
X002254Y010928D01*
X002284Y010890D01*
X002310Y010849D01*
X002332Y010806D01*
X002352Y010762D01*
X002367Y010717D01*
X002379Y010670D01*
X002387Y010622D01*
X002391Y010574D01*
X002391Y010526D01*
X002387Y010478D01*
X002379Y010430D01*
X002367Y010383D01*
X002352Y010338D01*
X002332Y010294D01*
X002310Y010251D01*
X002284Y010210D01*
X002254Y010172D01*
X002222Y010136D01*
X002187Y010103D01*
X002149Y010073D01*
X002109Y010046D01*
X002067Y010023D01*
X002023Y010003D01*
X001978Y009986D01*
X001932Y009974D01*
X001884Y009965D01*
X001836Y009960D01*
X001788Y009959D01*
X001740Y009962D01*
X001692Y009969D01*
X001645Y009980D01*
X001599Y009994D01*
X001554Y010012D01*
X001511Y010034D01*
X001470Y010059D01*
X001432Y010088D01*
X001395Y010120D01*
X001361Y010154D01*
X001331Y010191D01*
X001303Y010230D01*
X001278Y010272D01*
X001258Y010316D01*
X001240Y010361D01*
X001227Y010407D01*
X001217Y010454D01*
X001211Y010502D01*
X001209Y010550D01*
X018709Y019050D02*
X018711Y019098D01*
X018717Y019146D01*
X018727Y019193D01*
X018740Y019239D01*
X018758Y019284D01*
X018778Y019328D01*
X018803Y019370D01*
X018831Y019409D01*
X018861Y019446D01*
X018895Y019480D01*
X018932Y019512D01*
X018970Y019541D01*
X019011Y019566D01*
X019054Y019588D01*
X019099Y019606D01*
X019145Y019620D01*
X019192Y019631D01*
X019240Y019638D01*
X019288Y019641D01*
X019336Y019640D01*
X019384Y019635D01*
X019432Y019626D01*
X019478Y019614D01*
X019523Y019597D01*
X019567Y019577D01*
X019609Y019554D01*
X019649Y019527D01*
X019687Y019497D01*
X019722Y019464D01*
X019754Y019428D01*
X019784Y019390D01*
X019810Y019349D01*
X019832Y019306D01*
X019852Y019262D01*
X019867Y019217D01*
X019879Y019170D01*
X019887Y019122D01*
X019891Y019074D01*
X019891Y019026D01*
X019887Y018978D01*
X019879Y018930D01*
X019867Y018883D01*
X019852Y018838D01*
X019832Y018794D01*
X019810Y018751D01*
X019784Y018710D01*
X019754Y018672D01*
X019722Y018636D01*
X019687Y018603D01*
X019649Y018573D01*
X019609Y018546D01*
X019567Y018523D01*
X019523Y018503D01*
X019478Y018486D01*
X019432Y018474D01*
X019384Y018465D01*
X019336Y018460D01*
X019288Y018459D01*
X019240Y018462D01*
X019192Y018469D01*
X019145Y018480D01*
X019099Y018494D01*
X019054Y018512D01*
X019011Y018534D01*
X018970Y018559D01*
X018932Y018588D01*
X018895Y018620D01*
X018861Y018654D01*
X018831Y018691D01*
X018803Y018730D01*
X018778Y018772D01*
X018758Y018816D01*
X018740Y018861D01*
X018727Y018907D01*
X018717Y018954D01*
X018711Y019002D01*
X018709Y019050D01*
X018709Y001800D02*
X018711Y001848D01*
X018717Y001896D01*
X018727Y001943D01*
X018740Y001989D01*
X018758Y002034D01*
X018778Y002078D01*
X018803Y002120D01*
X018831Y002159D01*
X018861Y002196D01*
X018895Y002230D01*
X018932Y002262D01*
X018970Y002291D01*
X019011Y002316D01*
X019054Y002338D01*
X019099Y002356D01*
X019145Y002370D01*
X019192Y002381D01*
X019240Y002388D01*
X019288Y002391D01*
X019336Y002390D01*
X019384Y002385D01*
X019432Y002376D01*
X019478Y002364D01*
X019523Y002347D01*
X019567Y002327D01*
X019609Y002304D01*
X019649Y002277D01*
X019687Y002247D01*
X019722Y002214D01*
X019754Y002178D01*
X019784Y002140D01*
X019810Y002099D01*
X019832Y002056D01*
X019852Y002012D01*
X019867Y001967D01*
X019879Y001920D01*
X019887Y001872D01*
X019891Y001824D01*
X019891Y001776D01*
X019887Y001728D01*
X019879Y001680D01*
X019867Y001633D01*
X019852Y001588D01*
X019832Y001544D01*
X019810Y001501D01*
X019784Y001460D01*
X019754Y001422D01*
X019722Y001386D01*
X019687Y001353D01*
X019649Y001323D01*
X019609Y001296D01*
X019567Y001273D01*
X019523Y001253D01*
X019478Y001236D01*
X019432Y001224D01*
X019384Y001215D01*
X019336Y001210D01*
X019288Y001209D01*
X019240Y001212D01*
X019192Y001219D01*
X019145Y001230D01*
X019099Y001244D01*
X019054Y001262D01*
X019011Y001284D01*
X018970Y001309D01*
X018932Y001338D01*
X018895Y001370D01*
X018861Y001404D01*
X018831Y001441D01*
X018803Y001480D01*
X018778Y001522D01*
X018758Y001566D01*
X018740Y001611D01*
X018727Y001657D01*
X018717Y001704D01*
X018711Y001752D01*
X018709Y001800D01*
D11*
X019000Y003300D02*
X019600Y003300D01*
X019600Y004300D02*
X019000Y004300D01*
X016100Y003800D02*
X015500Y003800D01*
X015500Y004800D02*
X016100Y004800D01*
X016100Y005800D02*
X015500Y005800D01*
X015500Y006800D02*
X016100Y006800D01*
X016100Y007800D02*
X015500Y007800D01*
X015500Y008800D02*
X016100Y008800D01*
X016100Y009800D02*
X015500Y009800D01*
X015500Y010800D02*
X016100Y010800D01*
X016100Y011800D02*
X015500Y011800D01*
X017910Y012970D02*
X017910Y013570D01*
X019690Y013570D02*
X019690Y012970D01*
X019690Y015530D02*
X019690Y016130D01*
X017910Y016130D02*
X017910Y015530D01*
X002550Y019000D02*
X002550Y019600D01*
X001550Y019600D02*
X001550Y019000D01*
D12*
X019300Y010550D03*
D13*
X019300Y009050D03*
X019300Y007550D03*
X019300Y006050D03*
D14*
X015300Y017800D03*
X015300Y018800D03*
X014300Y018800D03*
X013300Y018800D03*
X013300Y017800D03*
X014300Y017800D03*
X012300Y017800D03*
X012300Y018800D03*
X011300Y018800D03*
X011300Y017800D03*
X010300Y017800D03*
X010300Y018800D03*
X009300Y018800D03*
X008300Y018800D03*
X008300Y017800D03*
X009300Y017800D03*
X007300Y017800D03*
X007300Y018800D03*
X006300Y018800D03*
X006300Y017800D03*
D15*
X006570Y017492D02*
X007030Y017492D01*
X007128Y017394D02*
X006472Y017394D01*
X006469Y017391D02*
X006709Y017631D01*
X006709Y017969D01*
X006469Y018209D01*
X006131Y018209D01*
X005891Y017969D01*
X005891Y017631D01*
X006131Y017391D01*
X006469Y017391D01*
X006669Y017591D02*
X006931Y017591D01*
X006891Y017631D02*
X007131Y017391D01*
X007469Y017391D01*
X007709Y017631D01*
X007709Y017969D01*
X007469Y018209D01*
X007131Y018209D01*
X006891Y017969D01*
X006891Y017631D01*
X006891Y017689D02*
X006709Y017689D01*
X006709Y017788D02*
X006891Y017788D01*
X006891Y017886D02*
X006709Y017886D01*
X006694Y017985D02*
X006906Y017985D01*
X007005Y018083D02*
X006595Y018083D01*
X006496Y018182D02*
X007103Y018182D01*
X007122Y018370D02*
X007260Y018370D01*
X007260Y018760D01*
X007340Y018760D01*
X007340Y018840D01*
X007730Y018840D01*
X007730Y018978D01*
X007478Y019230D01*
X007340Y019230D01*
X007340Y018840D01*
X007260Y018840D01*
X007260Y019230D01*
X007122Y019230D01*
X006870Y018978D01*
X006870Y018840D01*
X007260Y018840D01*
X007260Y018760D01*
X006870Y018760D01*
X006870Y018622D01*
X007122Y018370D01*
X007113Y018379D02*
X000950Y018379D01*
X000950Y018477D02*
X006045Y018477D01*
X006131Y018391D02*
X006469Y018391D01*
X006709Y018631D01*
X006709Y018969D01*
X006469Y019209D01*
X006131Y019209D01*
X005891Y018969D01*
X005891Y018631D01*
X006131Y018391D01*
X006103Y018182D02*
X000950Y018182D01*
X000950Y018280D02*
X020335Y018280D01*
X020335Y018182D02*
X015496Y018182D01*
X015469Y018209D02*
X015131Y018209D01*
X014891Y017969D01*
X014891Y017631D01*
X015131Y017391D01*
X015469Y017391D01*
X015709Y017631D01*
X015709Y017969D01*
X015469Y018209D01*
X015478Y018370D02*
X015340Y018370D01*
X015340Y018760D01*
X015340Y018840D01*
X015730Y018840D01*
X015730Y018978D01*
X015478Y019230D01*
X015340Y019230D01*
X015340Y018840D01*
X015260Y018840D01*
X015260Y019230D01*
X015122Y019230D01*
X014870Y018978D01*
X014870Y018840D01*
X015260Y018840D01*
X015260Y018760D01*
X015340Y018760D01*
X015730Y018760D01*
X015730Y018622D01*
X015478Y018370D01*
X015487Y018379D02*
X018986Y018379D01*
X018881Y018422D02*
X019153Y018309D01*
X019447Y018309D01*
X019719Y018422D01*
X019928Y018631D01*
X020041Y018903D01*
X020041Y019197D01*
X019928Y019469D01*
X019719Y019678D01*
X019447Y019791D01*
X019153Y019791D01*
X018881Y019678D01*
X018672Y019469D01*
X018559Y019197D01*
X018559Y018903D01*
X018672Y018631D01*
X018881Y018422D01*
X018826Y018477D02*
X015585Y018477D01*
X015684Y018576D02*
X018727Y018576D01*
X018654Y018674D02*
X015730Y018674D01*
X015730Y018871D02*
X018573Y018871D01*
X018559Y018970D02*
X015730Y018970D01*
X015640Y019068D02*
X018559Y019068D01*
X018559Y019167D02*
X015542Y019167D01*
X015340Y019167D02*
X015260Y019167D01*
X015260Y019068D02*
X015340Y019068D01*
X015340Y018970D02*
X015260Y018970D01*
X015260Y018871D02*
X015340Y018871D01*
X015340Y018773D02*
X018613Y018773D01*
X018588Y019265D02*
X002979Y019265D01*
X002979Y019167D02*
X006089Y019167D01*
X005990Y019068D02*
X002979Y019068D01*
X002979Y018970D02*
X005892Y018970D01*
X005891Y018871D02*
X002961Y018871D01*
X002979Y018915D02*
X002913Y018757D01*
X002793Y018637D01*
X002635Y018571D01*
X002465Y018571D01*
X002307Y018637D01*
X002187Y018757D01*
X002121Y018915D01*
X002121Y019685D01*
X002187Y019843D01*
X002307Y019963D01*
X002465Y020029D01*
X002635Y020029D01*
X002793Y019963D01*
X002913Y019843D01*
X002979Y019685D01*
X002979Y018915D01*
X002920Y018773D02*
X005891Y018773D01*
X005891Y018674D02*
X002830Y018674D01*
X002646Y018576D02*
X005946Y018576D01*
X006005Y018083D02*
X000950Y018083D01*
X000950Y017985D02*
X005906Y017985D01*
X005891Y017886D02*
X000950Y017886D01*
X000950Y017788D02*
X005891Y017788D01*
X005891Y017689D02*
X000950Y017689D01*
X000950Y017591D02*
X005931Y017591D01*
X006030Y017492D02*
X000950Y017492D01*
X000950Y017394D02*
X006128Y017394D01*
X006555Y018477D02*
X007015Y018477D01*
X006916Y018576D02*
X006654Y018576D01*
X006709Y018674D02*
X006870Y018674D01*
X006709Y018773D02*
X007260Y018773D01*
X007340Y018773D02*
X008260Y018773D01*
X008260Y018760D02*
X007870Y018760D01*
X007870Y018622D01*
X008122Y018370D01*
X008260Y018370D01*
X008260Y018760D01*
X008340Y018760D01*
X008340Y018840D01*
X008730Y018840D01*
X008730Y018978D01*
X008478Y019230D01*
X008340Y019230D01*
X008340Y018840D01*
X008260Y018840D01*
X008260Y019230D01*
X008122Y019230D01*
X007870Y018978D01*
X007870Y018840D01*
X008260Y018840D01*
X008260Y018760D01*
X008340Y018760D02*
X008340Y018370D01*
X008478Y018370D01*
X008730Y018622D01*
X008730Y018760D01*
X008340Y018760D01*
X008340Y018773D02*
X009260Y018773D01*
X009260Y018760D02*
X008870Y018760D01*
X008870Y018622D01*
X009122Y018370D01*
X009260Y018370D01*
X009260Y018760D01*
X009340Y018760D01*
X009340Y018840D01*
X009730Y018840D01*
X009730Y018978D01*
X009478Y019230D01*
X009340Y019230D01*
X009340Y018840D01*
X009260Y018840D01*
X009260Y019230D01*
X009122Y019230D01*
X008870Y018978D01*
X008870Y018840D01*
X009260Y018840D01*
X009260Y018760D01*
X009340Y018760D02*
X009340Y018370D01*
X009478Y018370D01*
X009730Y018622D01*
X009730Y018760D01*
X009340Y018760D01*
X009340Y018773D02*
X010260Y018773D01*
X010260Y018760D02*
X009870Y018760D01*
X009870Y018622D01*
X010122Y018370D01*
X010260Y018370D01*
X010260Y018760D01*
X010340Y018760D01*
X010340Y018840D01*
X010730Y018840D01*
X010730Y018978D01*
X010478Y019230D01*
X010340Y019230D01*
X010340Y018840D01*
X010260Y018840D01*
X010260Y019230D01*
X010122Y019230D01*
X009870Y018978D01*
X009870Y018840D01*
X010260Y018840D01*
X010260Y018760D01*
X010340Y018760D02*
X010340Y018370D01*
X010478Y018370D01*
X010730Y018622D01*
X010730Y018760D01*
X010340Y018760D01*
X010340Y018773D02*
X011260Y018773D01*
X011260Y018760D02*
X010870Y018760D01*
X010870Y018622D01*
X011122Y018370D01*
X011260Y018370D01*
X011260Y018760D01*
X011340Y018760D01*
X011340Y018840D01*
X011730Y018840D01*
X011730Y018978D01*
X011478Y019230D01*
X011340Y019230D01*
X011340Y018840D01*
X011260Y018840D01*
X011260Y019230D01*
X011122Y019230D01*
X010870Y018978D01*
X010870Y018840D01*
X011260Y018840D01*
X011260Y018760D01*
X011340Y018760D02*
X011340Y018370D01*
X011478Y018370D01*
X011730Y018622D01*
X011730Y018760D01*
X011340Y018760D01*
X011340Y018773D02*
X012260Y018773D01*
X012260Y018760D02*
X011870Y018760D01*
X011870Y018622D01*
X012122Y018370D01*
X012260Y018370D01*
X012260Y018760D01*
X012340Y018760D01*
X012340Y018840D01*
X012730Y018840D01*
X012730Y018978D01*
X012478Y019230D01*
X012340Y019230D01*
X012340Y018840D01*
X012260Y018840D01*
X012260Y019230D01*
X012122Y019230D01*
X011870Y018978D01*
X011870Y018840D01*
X012260Y018840D01*
X012260Y018760D01*
X012340Y018760D02*
X012340Y018370D01*
X012478Y018370D01*
X012730Y018622D01*
X012730Y018760D01*
X012340Y018760D01*
X012340Y018773D02*
X013260Y018773D01*
X013260Y018760D02*
X012870Y018760D01*
X012870Y018622D01*
X013122Y018370D01*
X013260Y018370D01*
X013260Y018760D01*
X013340Y018760D01*
X013340Y018840D01*
X013730Y018840D01*
X013730Y018978D01*
X013478Y019230D01*
X013340Y019230D01*
X013340Y018840D01*
X013260Y018840D01*
X013260Y019230D01*
X013122Y019230D01*
X012870Y018978D01*
X012870Y018840D01*
X013260Y018840D01*
X013260Y018760D01*
X013340Y018760D02*
X013340Y018370D01*
X013478Y018370D01*
X013730Y018622D01*
X013730Y018760D01*
X013340Y018760D01*
X013340Y018773D02*
X014260Y018773D01*
X014260Y018760D02*
X013870Y018760D01*
X013870Y018622D01*
X014122Y018370D01*
X014260Y018370D01*
X014260Y018760D01*
X014340Y018760D01*
X014340Y018840D01*
X014730Y018840D01*
X014730Y018978D01*
X014478Y019230D01*
X014340Y019230D01*
X014340Y018840D01*
X014260Y018840D01*
X014260Y019230D01*
X014122Y019230D01*
X013870Y018978D01*
X013870Y018840D01*
X014260Y018840D01*
X014260Y018760D01*
X014340Y018760D02*
X014340Y018370D01*
X014478Y018370D01*
X014730Y018622D01*
X014730Y018760D01*
X014340Y018760D01*
X014340Y018773D02*
X015260Y018773D01*
X015260Y018760D02*
X014870Y018760D01*
X014870Y018622D01*
X015122Y018370D01*
X015260Y018370D01*
X015260Y018760D01*
X015260Y018674D02*
X015340Y018674D01*
X015340Y018576D02*
X015260Y018576D01*
X015260Y018477D02*
X015340Y018477D01*
X015340Y018379D02*
X015260Y018379D01*
X015113Y018379D02*
X014487Y018379D01*
X014585Y018477D02*
X015015Y018477D01*
X014916Y018576D02*
X014684Y018576D01*
X014730Y018674D02*
X014870Y018674D01*
X014870Y018871D02*
X014730Y018871D01*
X014730Y018970D02*
X014870Y018970D01*
X014960Y019068D02*
X014640Y019068D01*
X014542Y019167D02*
X015058Y019167D01*
X014340Y019167D02*
X014260Y019167D01*
X014260Y019068D02*
X014340Y019068D01*
X014340Y018970D02*
X014260Y018970D01*
X014260Y018871D02*
X014340Y018871D01*
X014340Y018674D02*
X014260Y018674D01*
X014260Y018576D02*
X014340Y018576D01*
X014340Y018477D02*
X014260Y018477D01*
X014260Y018379D02*
X014340Y018379D01*
X014469Y018209D02*
X014131Y018209D01*
X013891Y017969D01*
X013891Y017631D01*
X014131Y017391D01*
X014469Y017391D01*
X014709Y017631D01*
X014709Y017969D01*
X014469Y018209D01*
X014496Y018182D02*
X015103Y018182D01*
X015005Y018083D02*
X014595Y018083D01*
X014694Y017985D02*
X014906Y017985D01*
X014891Y017886D02*
X014709Y017886D01*
X014709Y017788D02*
X014891Y017788D01*
X014891Y017689D02*
X014709Y017689D01*
X014669Y017591D02*
X014931Y017591D01*
X015030Y017492D02*
X014570Y017492D01*
X014472Y017394D02*
X015128Y017394D01*
X015472Y017394D02*
X020335Y017394D01*
X020335Y017492D02*
X015570Y017492D01*
X015669Y017591D02*
X020335Y017591D01*
X020335Y017689D02*
X015709Y017689D01*
X015709Y017788D02*
X020335Y017788D01*
X020335Y017886D02*
X015709Y017886D01*
X015694Y017985D02*
X020335Y017985D01*
X020335Y018083D02*
X015595Y018083D01*
X014103Y018182D02*
X013496Y018182D01*
X013469Y018209D02*
X013709Y017969D01*
X013709Y017631D01*
X013469Y017391D01*
X013131Y017391D01*
X012891Y017631D01*
X012891Y017969D01*
X013131Y018209D01*
X013469Y018209D01*
X013487Y018379D02*
X014113Y018379D01*
X014015Y018477D02*
X013585Y018477D01*
X013684Y018576D02*
X013916Y018576D01*
X013870Y018674D02*
X013730Y018674D01*
X013730Y018871D02*
X013870Y018871D01*
X013870Y018970D02*
X013730Y018970D01*
X013640Y019068D02*
X013960Y019068D01*
X014058Y019167D02*
X013542Y019167D01*
X013340Y019167D02*
X013260Y019167D01*
X013260Y019068D02*
X013340Y019068D01*
X013340Y018970D02*
X013260Y018970D01*
X013260Y018871D02*
X013340Y018871D01*
X013340Y018674D02*
X013260Y018674D01*
X013260Y018576D02*
X013340Y018576D01*
X013340Y018477D02*
X013260Y018477D01*
X013260Y018379D02*
X013340Y018379D01*
X013113Y018379D02*
X012487Y018379D01*
X012585Y018477D02*
X013015Y018477D01*
X012916Y018576D02*
X012684Y018576D01*
X012730Y018674D02*
X012870Y018674D01*
X012870Y018871D02*
X012730Y018871D01*
X012730Y018970D02*
X012870Y018970D01*
X012960Y019068D02*
X012640Y019068D01*
X012542Y019167D02*
X013058Y019167D01*
X012340Y019167D02*
X012260Y019167D01*
X012260Y019068D02*
X012340Y019068D01*
X012340Y018970D02*
X012260Y018970D01*
X012260Y018871D02*
X012340Y018871D01*
X012340Y018674D02*
X012260Y018674D01*
X012260Y018576D02*
X012340Y018576D01*
X012340Y018477D02*
X012260Y018477D01*
X012260Y018379D02*
X012340Y018379D01*
X012469Y018209D02*
X012131Y018209D01*
X011891Y017969D01*
X011891Y017631D01*
X012131Y017391D01*
X012469Y017391D01*
X012709Y017631D01*
X012709Y017969D01*
X012469Y018209D01*
X012496Y018182D02*
X013103Y018182D01*
X013005Y018083D02*
X012595Y018083D01*
X012694Y017985D02*
X012906Y017985D01*
X012891Y017886D02*
X012709Y017886D01*
X012709Y017788D02*
X012891Y017788D01*
X012891Y017689D02*
X012709Y017689D01*
X012669Y017591D02*
X012931Y017591D01*
X013030Y017492D02*
X012570Y017492D01*
X012472Y017394D02*
X013128Y017394D01*
X013472Y017394D02*
X014128Y017394D01*
X014030Y017492D02*
X013570Y017492D01*
X013669Y017591D02*
X013931Y017591D01*
X013891Y017689D02*
X013709Y017689D01*
X013709Y017788D02*
X013891Y017788D01*
X013891Y017886D02*
X013709Y017886D01*
X013694Y017985D02*
X013906Y017985D01*
X014005Y018083D02*
X013595Y018083D01*
X012103Y018182D02*
X011496Y018182D01*
X011469Y018209D02*
X011131Y018209D01*
X010891Y017969D01*
X010891Y017631D01*
X011131Y017391D01*
X011469Y017391D01*
X011709Y017631D01*
X011709Y017969D01*
X011469Y018209D01*
X011487Y018379D02*
X012113Y018379D01*
X012015Y018477D02*
X011585Y018477D01*
X011684Y018576D02*
X011916Y018576D01*
X011870Y018674D02*
X011730Y018674D01*
X011730Y018871D02*
X011870Y018871D01*
X011870Y018970D02*
X011730Y018970D01*
X011640Y019068D02*
X011960Y019068D01*
X012058Y019167D02*
X011542Y019167D01*
X011340Y019167D02*
X011260Y019167D01*
X011260Y019068D02*
X011340Y019068D01*
X011340Y018970D02*
X011260Y018970D01*
X011260Y018871D02*
X011340Y018871D01*
X011340Y018674D02*
X011260Y018674D01*
X011260Y018576D02*
X011340Y018576D01*
X011340Y018477D02*
X011260Y018477D01*
X011260Y018379D02*
X011340Y018379D01*
X011113Y018379D02*
X010487Y018379D01*
X010585Y018477D02*
X011015Y018477D01*
X010916Y018576D02*
X010684Y018576D01*
X010730Y018674D02*
X010870Y018674D01*
X010870Y018871D02*
X010730Y018871D01*
X010730Y018970D02*
X010870Y018970D01*
X010960Y019068D02*
X010640Y019068D01*
X010542Y019167D02*
X011058Y019167D01*
X010340Y019167D02*
X010260Y019167D01*
X010260Y019068D02*
X010340Y019068D01*
X010340Y018970D02*
X010260Y018970D01*
X010260Y018871D02*
X010340Y018871D01*
X010340Y018674D02*
X010260Y018674D01*
X010260Y018576D02*
X010340Y018576D01*
X010340Y018477D02*
X010260Y018477D01*
X010260Y018379D02*
X010340Y018379D01*
X010469Y018209D02*
X010131Y018209D01*
X009891Y017969D01*
X009891Y017631D01*
X010131Y017391D01*
X010469Y017391D01*
X010709Y017631D01*
X010709Y017969D01*
X010469Y018209D01*
X010496Y018182D02*
X011103Y018182D01*
X011005Y018083D02*
X010595Y018083D01*
X010694Y017985D02*
X010906Y017985D01*
X010891Y017886D02*
X010709Y017886D01*
X010709Y017788D02*
X010891Y017788D01*
X010891Y017689D02*
X010709Y017689D01*
X010669Y017591D02*
X010931Y017591D01*
X011030Y017492D02*
X010570Y017492D01*
X010472Y017394D02*
X011128Y017394D01*
X011472Y017394D02*
X012128Y017394D01*
X012030Y017492D02*
X011570Y017492D01*
X011669Y017591D02*
X011931Y017591D01*
X011891Y017689D02*
X011709Y017689D01*
X011709Y017788D02*
X011891Y017788D01*
X011891Y017886D02*
X011709Y017886D01*
X011694Y017985D02*
X011906Y017985D01*
X012005Y018083D02*
X011595Y018083D01*
X010103Y018182D02*
X009496Y018182D01*
X009469Y018209D02*
X009131Y018209D01*
X008891Y017969D01*
X008891Y017631D01*
X009131Y017391D01*
X009469Y017391D01*
X009709Y017631D01*
X009709Y017969D01*
X009469Y018209D01*
X009487Y018379D02*
X010113Y018379D01*
X010015Y018477D02*
X009585Y018477D01*
X009684Y018576D02*
X009916Y018576D01*
X009870Y018674D02*
X009730Y018674D01*
X009730Y018871D02*
X009870Y018871D01*
X009870Y018970D02*
X009730Y018970D01*
X009640Y019068D02*
X009960Y019068D01*
X010058Y019167D02*
X009542Y019167D01*
X009340Y019167D02*
X009260Y019167D01*
X009260Y019068D02*
X009340Y019068D01*
X009340Y018970D02*
X009260Y018970D01*
X009260Y018871D02*
X009340Y018871D01*
X009340Y018674D02*
X009260Y018674D01*
X009260Y018576D02*
X009340Y018576D01*
X009340Y018477D02*
X009260Y018477D01*
X009260Y018379D02*
X009340Y018379D01*
X009595Y018083D02*
X010005Y018083D01*
X009906Y017985D02*
X009694Y017985D01*
X009709Y017886D02*
X009891Y017886D01*
X009891Y017788D02*
X009709Y017788D01*
X009709Y017689D02*
X009891Y017689D01*
X009931Y017591D02*
X009669Y017591D01*
X009570Y017492D02*
X010030Y017492D01*
X010128Y017394D02*
X009472Y017394D01*
X009128Y017394D02*
X008472Y017394D01*
X008469Y017391D02*
X008709Y017631D01*
X008709Y017969D01*
X008469Y018209D01*
X008131Y018209D01*
X007891Y017969D01*
X007891Y017631D01*
X008131Y017391D01*
X008469Y017391D01*
X008570Y017492D02*
X009030Y017492D01*
X008931Y017591D02*
X008669Y017591D01*
X008709Y017689D02*
X008891Y017689D01*
X008891Y017788D02*
X008709Y017788D01*
X008709Y017886D02*
X008891Y017886D01*
X008906Y017985D02*
X008694Y017985D01*
X008595Y018083D02*
X009005Y018083D01*
X009103Y018182D02*
X008496Y018182D01*
X008487Y018379D02*
X009113Y018379D01*
X009015Y018477D02*
X008585Y018477D01*
X008684Y018576D02*
X008916Y018576D01*
X008870Y018674D02*
X008730Y018674D01*
X008730Y018871D02*
X008870Y018871D01*
X008870Y018970D02*
X008730Y018970D01*
X008640Y019068D02*
X008960Y019068D01*
X009058Y019167D02*
X008542Y019167D01*
X008340Y019167D02*
X008260Y019167D01*
X008260Y019068D02*
X008340Y019068D01*
X008340Y018970D02*
X008260Y018970D01*
X008260Y018871D02*
X008340Y018871D01*
X008340Y018674D02*
X008260Y018674D01*
X008260Y018576D02*
X008340Y018576D01*
X008340Y018477D02*
X008260Y018477D01*
X008260Y018379D02*
X008340Y018379D01*
X008113Y018379D02*
X007487Y018379D01*
X007478Y018370D02*
X007730Y018622D01*
X007730Y018760D01*
X007340Y018760D01*
X007340Y018370D01*
X007478Y018370D01*
X007340Y018379D02*
X007260Y018379D01*
X007260Y018477D02*
X007340Y018477D01*
X007340Y018576D02*
X007260Y018576D01*
X007260Y018674D02*
X007340Y018674D01*
X007340Y018871D02*
X007260Y018871D01*
X007260Y018970D02*
X007340Y018970D01*
X007340Y019068D02*
X007260Y019068D01*
X007260Y019167D02*
X007340Y019167D01*
X007542Y019167D02*
X008058Y019167D01*
X007960Y019068D02*
X007640Y019068D01*
X007730Y018970D02*
X007870Y018970D01*
X007870Y018871D02*
X007730Y018871D01*
X007730Y018674D02*
X007870Y018674D01*
X007916Y018576D02*
X007684Y018576D01*
X007585Y018477D02*
X008015Y018477D01*
X008103Y018182D02*
X007496Y018182D01*
X007595Y018083D02*
X008005Y018083D01*
X007906Y017985D02*
X007694Y017985D01*
X007709Y017886D02*
X007891Y017886D01*
X007891Y017788D02*
X007709Y017788D01*
X007709Y017689D02*
X007891Y017689D01*
X007931Y017591D02*
X007669Y017591D01*
X007570Y017492D02*
X008030Y017492D01*
X008128Y017394D02*
X007472Y017394D01*
X006870Y018871D02*
X006709Y018871D01*
X006708Y018970D02*
X006870Y018970D01*
X006960Y019068D02*
X006610Y019068D01*
X006511Y019167D02*
X007058Y019167D01*
X007247Y015194D02*
X007148Y015153D01*
X007072Y015077D01*
X007031Y014978D01*
X007031Y014872D01*
X007072Y014773D01*
X007121Y014724D01*
X007121Y013226D01*
X007371Y012976D01*
X007476Y012871D01*
X008720Y012871D01*
X008720Y011501D01*
X008671Y011452D01*
X008630Y011353D01*
X008630Y011247D01*
X008671Y011148D01*
X008746Y011072D01*
X008845Y011031D01*
X008952Y011031D01*
X009051Y011072D01*
X009126Y011148D01*
X009167Y011247D01*
X009167Y011353D01*
X009126Y011452D01*
X009077Y011501D01*
X009077Y013026D01*
X008972Y013130D01*
X008874Y013229D01*
X007624Y013229D01*
X007479Y013374D01*
X007479Y014724D01*
X007528Y014773D01*
X007569Y014872D01*
X007569Y014978D01*
X007528Y015077D01*
X007452Y015153D01*
X007353Y015194D01*
X007247Y015194D01*
X007123Y015128D02*
X000950Y015128D01*
X000950Y015030D02*
X007052Y015030D01*
X007031Y014931D02*
X000950Y014931D01*
X000950Y014833D02*
X007047Y014833D01*
X007111Y014734D02*
X000950Y014734D01*
X000950Y014636D02*
X007121Y014636D01*
X007121Y014537D02*
X000950Y014537D01*
X000950Y014439D02*
X007121Y014439D01*
X007121Y014340D02*
X000950Y014340D01*
X000950Y014242D02*
X007121Y014242D01*
X007121Y014143D02*
X000950Y014143D01*
X000950Y014045D02*
X007121Y014045D01*
X007121Y013946D02*
X000950Y013946D01*
X000950Y013848D02*
X007121Y013848D01*
X007121Y013749D02*
X000950Y013749D01*
X000950Y013651D02*
X007121Y013651D01*
X007121Y013552D02*
X000950Y013552D01*
X000950Y013454D02*
X007121Y013454D01*
X007121Y013355D02*
X000950Y013355D01*
X000950Y013257D02*
X007121Y013257D01*
X007189Y013158D02*
X000950Y013158D01*
X000950Y013060D02*
X006724Y013060D01*
X006747Y013069D02*
X006648Y013028D01*
X006572Y012952D01*
X006531Y012853D01*
X006531Y012784D01*
X006066Y012319D01*
X005997Y012319D01*
X005898Y012278D01*
X005822Y012202D01*
X005781Y012103D01*
X005781Y011997D01*
X005822Y011898D01*
X005871Y011849D01*
X005871Y008501D01*
X005822Y008452D01*
X005781Y008353D01*
X005781Y008247D01*
X005822Y008148D01*
X005898Y008072D01*
X005997Y008031D01*
X006103Y008031D01*
X006202Y008072D01*
X006278Y008148D01*
X006319Y008247D01*
X006319Y008353D01*
X006278Y008452D01*
X006229Y008501D01*
X006229Y011849D01*
X006278Y011898D01*
X006319Y011997D01*
X006319Y012066D01*
X006784Y012531D01*
X006853Y012531D01*
X006952Y012572D01*
X007028Y012648D01*
X007069Y012747D01*
X007069Y012853D01*
X007028Y012952D01*
X006952Y013028D01*
X006853Y013069D01*
X006747Y013069D01*
X006876Y013060D02*
X007288Y013060D01*
X007386Y012961D02*
X007019Y012961D01*
X007065Y012863D02*
X008720Y012863D01*
X008720Y012764D02*
X007069Y012764D01*
X007035Y012666D02*
X008720Y012666D01*
X008720Y012567D02*
X006940Y012567D01*
X006721Y012469D02*
X008720Y012469D01*
X008720Y012370D02*
X006623Y012370D01*
X006524Y012272D02*
X008720Y012272D01*
X008720Y012173D02*
X006426Y012173D01*
X006327Y012075D02*
X008720Y012075D01*
X008720Y011976D02*
X006310Y011976D01*
X006258Y011878D02*
X008720Y011878D01*
X008720Y011779D02*
X006229Y011779D01*
X006229Y011681D02*
X008720Y011681D01*
X008720Y011582D02*
X006229Y011582D01*
X006229Y011484D02*
X008702Y011484D01*
X008643Y011385D02*
X006229Y011385D01*
X006229Y011287D02*
X008630Y011287D01*
X008654Y011188D02*
X006229Y011188D01*
X006229Y011090D02*
X008729Y011090D01*
X008898Y011300D02*
X008898Y012952D01*
X008800Y013050D01*
X007550Y013050D01*
X007300Y013300D01*
X007300Y014925D01*
X007489Y014734D02*
X008111Y014734D01*
X008121Y014724D02*
X008121Y013726D01*
X008476Y013371D01*
X009366Y013371D01*
X009322Y013327D01*
X009281Y013228D01*
X009281Y013122D01*
X009322Y013023D01*
X009371Y012974D01*
X009371Y011751D01*
X009322Y011702D01*
X009281Y011603D01*
X009281Y011497D01*
X009322Y011398D01*
X009398Y011322D01*
X009497Y011281D01*
X009603Y011281D01*
X009702Y011322D01*
X009778Y011398D01*
X009819Y011497D01*
X009819Y011603D01*
X009778Y011702D01*
X009729Y011751D01*
X009729Y012974D01*
X009778Y013023D01*
X009819Y013122D01*
X009819Y013228D01*
X009783Y013314D01*
X009901Y013196D01*
X009901Y011501D01*
X009852Y011452D01*
X009811Y011353D01*
X009811Y011247D01*
X009852Y011148D01*
X009927Y011072D01*
X010026Y011031D01*
X010133Y011031D01*
X010232Y011072D01*
X010294Y011135D01*
X010281Y011103D01*
X010281Y010997D01*
X010322Y010898D01*
X010398Y010822D01*
X010497Y010781D01*
X010603Y010781D01*
X010702Y010822D01*
X010778Y010898D01*
X010819Y010997D01*
X010819Y011103D01*
X010778Y011202D01*
X010729Y011251D01*
X010729Y013624D01*
X010624Y013729D01*
X010479Y013874D01*
X010479Y014724D01*
X010528Y014773D01*
X010569Y014872D01*
X010569Y014978D01*
X010528Y015077D01*
X010452Y015153D01*
X010353Y015194D01*
X010247Y015194D01*
X010148Y015153D01*
X010072Y015077D01*
X010031Y014978D01*
X010031Y014872D01*
X010072Y014773D01*
X010121Y014724D01*
X010121Y013726D01*
X010371Y013476D01*
X010371Y011251D01*
X010335Y011215D01*
X010348Y011247D01*
X010348Y011353D01*
X010307Y011452D01*
X010258Y011501D01*
X010258Y013345D01*
X010154Y013449D01*
X010154Y013449D01*
X009874Y013729D01*
X008624Y013729D01*
X008479Y013874D01*
X008479Y014724D01*
X008528Y014773D01*
X008569Y014872D01*
X008569Y014978D01*
X008528Y015077D01*
X008452Y015153D01*
X008353Y015194D01*
X008247Y015194D01*
X008148Y015153D01*
X008072Y015077D01*
X008031Y014978D01*
X008031Y014872D01*
X008072Y014773D01*
X008121Y014724D01*
X008121Y014636D02*
X007479Y014636D01*
X007479Y014537D02*
X008121Y014537D01*
X008121Y014439D02*
X007479Y014439D01*
X007479Y014340D02*
X008121Y014340D01*
X008121Y014242D02*
X007479Y014242D01*
X007479Y014143D02*
X008121Y014143D01*
X008121Y014045D02*
X007479Y014045D01*
X007479Y013946D02*
X008121Y013946D01*
X008121Y013848D02*
X007479Y013848D01*
X007479Y013749D02*
X008121Y013749D01*
X008197Y013651D02*
X007479Y013651D01*
X007479Y013552D02*
X008295Y013552D01*
X008394Y013454D02*
X007479Y013454D01*
X007498Y013355D02*
X009350Y013355D01*
X009293Y013257D02*
X007596Y013257D01*
X008300Y013800D02*
X008550Y013550D01*
X009800Y013550D01*
X010080Y013270D01*
X010080Y011300D01*
X010276Y011484D02*
X010371Y011484D01*
X010371Y011582D02*
X010258Y011582D01*
X010258Y011681D02*
X010371Y011681D01*
X010371Y011779D02*
X010258Y011779D01*
X010258Y011878D02*
X010371Y011878D01*
X010371Y011976D02*
X010258Y011976D01*
X010258Y012075D02*
X010371Y012075D01*
X010371Y012173D02*
X010258Y012173D01*
X010258Y012272D02*
X010371Y012272D01*
X010371Y012370D02*
X010258Y012370D01*
X010258Y012469D02*
X010371Y012469D01*
X010371Y012567D02*
X010258Y012567D01*
X010258Y012666D02*
X010371Y012666D01*
X010371Y012764D02*
X010258Y012764D01*
X010258Y012863D02*
X010371Y012863D01*
X010371Y012961D02*
X010258Y012961D01*
X010258Y013060D02*
X010371Y013060D01*
X010371Y013158D02*
X010258Y013158D01*
X010258Y013257D02*
X010371Y013257D01*
X010371Y013355D02*
X010248Y013355D01*
X010149Y013454D02*
X010371Y013454D01*
X010295Y013552D02*
X010051Y013552D01*
X009952Y013651D02*
X010197Y013651D01*
X010121Y013749D02*
X008604Y013749D01*
X008505Y013848D02*
X010121Y013848D01*
X010121Y013946D02*
X008479Y013946D01*
X008479Y014045D02*
X010121Y014045D01*
X010121Y014143D02*
X008479Y014143D01*
X008479Y014242D02*
X010121Y014242D01*
X010121Y014340D02*
X008479Y014340D01*
X008479Y014439D02*
X010121Y014439D01*
X010121Y014537D02*
X008479Y014537D01*
X008479Y014636D02*
X010121Y014636D01*
X010111Y014734D02*
X009489Y014734D01*
X009452Y014697D02*
X009528Y014773D01*
X009569Y014872D01*
X009569Y014978D01*
X009528Y015077D01*
X009452Y015153D01*
X009353Y015194D01*
X009247Y015194D01*
X009148Y015153D01*
X009072Y015077D01*
X009031Y014978D01*
X009031Y014872D01*
X009072Y014773D01*
X009148Y014697D01*
X009247Y014656D01*
X009353Y014656D01*
X009452Y014697D01*
X009553Y014833D02*
X010047Y014833D01*
X010031Y014931D02*
X009569Y014931D01*
X009548Y015030D02*
X010052Y015030D01*
X010123Y015128D02*
X009477Y015128D01*
X009123Y015128D02*
X008477Y015128D01*
X008548Y015030D02*
X009052Y015030D01*
X009031Y014931D02*
X008569Y014931D01*
X008553Y014833D02*
X009047Y014833D01*
X009111Y014734D02*
X008489Y014734D01*
X008300Y014925D02*
X008300Y013800D01*
X008945Y013158D02*
X009281Y013158D01*
X009307Y013060D02*
X009043Y013060D01*
X009077Y012961D02*
X009371Y012961D01*
X009371Y012863D02*
X009077Y012863D01*
X009077Y012764D02*
X009371Y012764D01*
X009371Y012666D02*
X009077Y012666D01*
X009077Y012567D02*
X009371Y012567D01*
X009371Y012469D02*
X009077Y012469D01*
X009077Y012370D02*
X009371Y012370D01*
X009371Y012272D02*
X009077Y012272D01*
X009077Y012173D02*
X009371Y012173D01*
X009371Y012075D02*
X009077Y012075D01*
X009077Y011976D02*
X009371Y011976D01*
X009371Y011878D02*
X009077Y011878D01*
X009077Y011779D02*
X009371Y011779D01*
X009313Y011681D02*
X009077Y011681D01*
X009077Y011582D02*
X009281Y011582D01*
X009287Y011484D02*
X009095Y011484D01*
X009154Y011385D02*
X009335Y011385D01*
X009484Y011287D02*
X009167Y011287D01*
X009143Y011188D02*
X009835Y011188D01*
X009811Y011287D02*
X009616Y011287D01*
X009765Y011385D02*
X009824Y011385D01*
X009813Y011484D02*
X009883Y011484D01*
X009901Y011582D02*
X009819Y011582D01*
X009787Y011681D02*
X009901Y011681D01*
X009901Y011779D02*
X009729Y011779D01*
X009729Y011878D02*
X009901Y011878D01*
X009901Y011976D02*
X009729Y011976D01*
X009729Y012075D02*
X009901Y012075D01*
X009901Y012173D02*
X009729Y012173D01*
X009729Y012272D02*
X009901Y012272D01*
X009901Y012370D02*
X009729Y012370D01*
X009729Y012469D02*
X009901Y012469D01*
X009901Y012567D02*
X009729Y012567D01*
X009729Y012666D02*
X009901Y012666D01*
X009901Y012764D02*
X009729Y012764D01*
X009729Y012863D02*
X009901Y012863D01*
X009901Y012961D02*
X009729Y012961D01*
X009793Y013060D02*
X009901Y013060D01*
X009901Y013158D02*
X009819Y013158D01*
X009807Y013257D02*
X009841Y013257D01*
X009550Y013175D02*
X009550Y011550D01*
X009910Y011090D02*
X009068Y011090D01*
X008202Y010028D02*
X008103Y010069D01*
X007997Y010069D01*
X007898Y010028D01*
X007822Y009952D01*
X007781Y009853D01*
X007781Y009747D01*
X007822Y009648D01*
X007871Y009599D01*
X007871Y006874D01*
X006976Y005979D01*
X006871Y005874D01*
X006871Y002476D01*
X007621Y001726D01*
X007726Y001621D01*
X009226Y001621D01*
X009281Y001566D01*
X009281Y001497D01*
X009322Y001398D01*
X009398Y001322D01*
X009497Y001281D01*
X009603Y001281D01*
X009702Y001322D01*
X009778Y001398D01*
X009819Y001497D01*
X009819Y001603D01*
X009778Y001702D01*
X009702Y001778D01*
X009603Y001819D01*
X009534Y001819D01*
X009374Y001979D01*
X007874Y001979D01*
X007229Y002624D01*
X007229Y005726D01*
X008229Y006726D01*
X008229Y009599D01*
X008278Y009648D01*
X008319Y009747D01*
X008319Y009853D01*
X008278Y009952D01*
X008202Y010028D01*
X008224Y010006D02*
X011371Y010006D01*
X011371Y009908D02*
X008296Y009908D01*
X008319Y009809D02*
X011371Y009809D01*
X011371Y009711D02*
X008304Y009711D01*
X008242Y009612D02*
X011371Y009612D01*
X011371Y009514D02*
X008229Y009514D01*
X008229Y009415D02*
X011307Y009415D01*
X011322Y009452D02*
X011281Y009353D01*
X011281Y009247D01*
X011322Y009148D01*
X011398Y009072D01*
X011497Y009031D01*
X011603Y009031D01*
X011702Y009072D01*
X011778Y009148D01*
X011819Y009247D01*
X011819Y009353D01*
X011778Y009452D01*
X011729Y009501D01*
X011729Y013849D01*
X011778Y013898D01*
X011819Y013997D01*
X011819Y014103D01*
X011778Y014202D01*
X011702Y014278D01*
X011603Y014319D01*
X011497Y014319D01*
X011398Y014278D01*
X011322Y014202D01*
X011281Y014103D01*
X011281Y013997D01*
X011322Y013898D01*
X011371Y013849D01*
X011371Y009501D01*
X011322Y009452D01*
X011281Y009317D02*
X008229Y009317D01*
X008229Y009218D02*
X011293Y009218D01*
X011350Y009120D02*
X008229Y009120D01*
X008229Y009021D02*
X015127Y009021D01*
X015137Y009043D02*
X015110Y008979D01*
X012476Y008979D01*
X011574Y008077D01*
X011504Y008077D01*
X011406Y008036D01*
X008229Y008036D01*
X008229Y007938D02*
X011321Y007938D01*
X011330Y007960D02*
X011289Y007861D01*
X011289Y007754D01*
X011330Y007656D01*
X011406Y007580D01*
X011504Y007539D01*
X011611Y007539D01*
X011710Y007580D01*
X011786Y007656D01*
X011827Y007754D01*
X011827Y007824D01*
X012624Y008621D01*
X015110Y008621D01*
X015137Y008557D01*
X015257Y008437D01*
X015415Y008371D01*
X016185Y008371D01*
X016343Y008437D01*
X016463Y008557D01*
X016529Y008715D01*
X016529Y008885D01*
X016463Y009043D01*
X016343Y009163D01*
X016185Y009229D01*
X015415Y009229D01*
X015257Y009163D01*
X015137Y009043D01*
X015213Y009120D02*
X011750Y009120D01*
X011807Y009218D02*
X015389Y009218D01*
X015415Y009371D02*
X015257Y009437D01*
X015137Y009557D01*
X015071Y009715D01*
X015071Y009885D01*
X015137Y010043D01*
X015257Y010163D01*
X015415Y010229D01*
X016185Y010229D01*
X016343Y010163D01*
X016463Y010043D01*
X016529Y009885D01*
X016529Y009715D01*
X016463Y009557D01*
X016343Y009437D01*
X016185Y009371D01*
X015415Y009371D01*
X015309Y009415D02*
X011793Y009415D01*
X011819Y009317D02*
X018883Y009317D01*
X018817Y009250D02*
X019100Y009533D01*
X019500Y009533D01*
X019783Y009250D01*
X019783Y008850D01*
X019500Y008567D01*
X019100Y008567D01*
X018817Y008850D01*
X018817Y009250D01*
X018817Y009218D02*
X016211Y009218D01*
X016387Y009120D02*
X018817Y009120D01*
X018817Y009021D02*
X016473Y009021D01*
X016513Y008923D02*
X018817Y008923D01*
X018843Y008824D02*
X016529Y008824D01*
X016529Y008726D02*
X018941Y008726D01*
X019040Y008627D02*
X016492Y008627D01*
X016435Y008529D02*
X020335Y008529D01*
X020335Y008627D02*
X019560Y008627D01*
X019659Y008726D02*
X020335Y008726D01*
X020335Y008824D02*
X019757Y008824D01*
X019783Y008923D02*
X020335Y008923D01*
X020335Y009021D02*
X019783Y009021D01*
X019783Y009120D02*
X020335Y009120D01*
X020335Y009218D02*
X019783Y009218D01*
X019717Y009317D02*
X020335Y009317D01*
X020335Y009415D02*
X019618Y009415D01*
X019520Y009514D02*
X020335Y009514D01*
X020335Y009612D02*
X016486Y009612D01*
X016527Y009711D02*
X020335Y009711D01*
X020335Y009809D02*
X016529Y009809D01*
X016520Y009908D02*
X020335Y009908D01*
X020335Y010006D02*
X016479Y010006D01*
X016402Y010105D02*
X018855Y010105D01*
X018817Y010142D02*
X018892Y010067D01*
X019708Y010067D01*
X019783Y010142D01*
X019783Y010958D01*
X019708Y011033D01*
X018892Y011033D01*
X018817Y010958D01*
X018817Y010142D01*
X018817Y010203D02*
X016247Y010203D01*
X016205Y010361D02*
X016135Y010350D01*
X015850Y010350D01*
X015850Y010750D01*
X015850Y010850D01*
X015750Y010850D01*
X015750Y011250D01*
X015465Y011250D01*
X015395Y011239D01*
X015327Y011217D01*
X015264Y011185D01*
X015207Y011143D01*
X015157Y011093D01*
X015115Y011036D01*
X015083Y010973D01*
X015061Y010905D01*
X015052Y010850D01*
X015750Y010850D01*
X015750Y010750D01*
X015850Y010750D01*
X016548Y010750D01*
X016539Y010695D01*
X016517Y010627D01*
X016485Y010564D01*
X016443Y010507D01*
X016393Y010457D01*
X016336Y010415D01*
X016273Y010383D01*
X016205Y010361D01*
X016306Y010400D02*
X018817Y010400D01*
X018817Y010302D02*
X011729Y010302D01*
X011729Y010400D02*
X015294Y010400D01*
X015264Y010415D02*
X015327Y010383D01*
X015395Y010361D01*
X015465Y010350D01*
X015750Y010350D01*
X015750Y010750D01*
X015052Y010750D01*
X015061Y010695D01*
X015083Y010627D01*
X015115Y010564D01*
X015157Y010507D01*
X015207Y010457D01*
X015264Y010415D01*
X015165Y010499D02*
X011729Y010499D01*
X011729Y010597D02*
X015098Y010597D01*
X015061Y010696D02*
X011729Y010696D01*
X011729Y010794D02*
X015750Y010794D01*
X015750Y010696D02*
X015850Y010696D01*
X015850Y010794D02*
X018817Y010794D01*
X018817Y010696D02*
X016539Y010696D01*
X016502Y010597D02*
X018817Y010597D01*
X018817Y010499D02*
X016435Y010499D01*
X016548Y010850D02*
X016539Y010905D01*
X016517Y010973D01*
X016485Y011036D01*
X016443Y011093D01*
X016393Y011143D01*
X016336Y011185D01*
X016273Y011217D01*
X016205Y011239D01*
X016135Y011250D01*
X015850Y011250D01*
X015850Y010850D01*
X016548Y010850D01*
X016541Y010893D02*
X018817Y010893D01*
X018850Y010991D02*
X016508Y010991D01*
X016446Y011090D02*
X020335Y011090D01*
X020335Y011188D02*
X016330Y011188D01*
X016219Y011385D02*
X020335Y011385D01*
X020335Y011287D02*
X011729Y011287D01*
X011729Y011385D02*
X015381Y011385D01*
X015415Y011371D02*
X015257Y011437D01*
X015137Y011557D01*
X015071Y011715D01*
X015071Y011885D01*
X015137Y012043D01*
X015257Y012163D01*
X015415Y012229D01*
X016185Y012229D01*
X016343Y012163D01*
X016463Y012043D01*
X016529Y011885D01*
X016529Y011715D01*
X016463Y011557D01*
X016343Y011437D01*
X016185Y011371D01*
X015415Y011371D01*
X015270Y011188D02*
X011729Y011188D01*
X011729Y011090D02*
X015154Y011090D01*
X015092Y010991D02*
X011729Y010991D01*
X011729Y010893D02*
X015059Y010893D01*
X015210Y011484D02*
X011729Y011484D01*
X011729Y011582D02*
X015126Y011582D01*
X015085Y011681D02*
X011729Y011681D01*
X011729Y011779D02*
X015071Y011779D01*
X015071Y011878D02*
X011729Y011878D01*
X011729Y011976D02*
X015109Y011976D01*
X015168Y012075D02*
X011729Y012075D01*
X011729Y012173D02*
X015280Y012173D01*
X016320Y012173D02*
X020335Y012173D01*
X020335Y012075D02*
X016432Y012075D01*
X016491Y011976D02*
X020335Y011976D01*
X020335Y011878D02*
X016529Y011878D01*
X016529Y011779D02*
X020335Y011779D01*
X020335Y011681D02*
X016515Y011681D01*
X016474Y011582D02*
X020335Y011582D01*
X020335Y011484D02*
X016390Y011484D01*
X015850Y011188D02*
X015750Y011188D01*
X015750Y011090D02*
X015850Y011090D01*
X015850Y010991D02*
X015750Y010991D01*
X015750Y010893D02*
X015850Y010893D01*
X015850Y010597D02*
X015750Y010597D01*
X015750Y010499D02*
X015850Y010499D01*
X015850Y010400D02*
X015750Y010400D01*
X015353Y010203D02*
X011729Y010203D01*
X011729Y010105D02*
X015198Y010105D01*
X015121Y010006D02*
X011729Y010006D01*
X011729Y009908D02*
X015080Y009908D01*
X015071Y009809D02*
X011729Y009809D01*
X011729Y009711D02*
X015073Y009711D01*
X015114Y009612D02*
X011729Y009612D01*
X011729Y009514D02*
X015180Y009514D01*
X015800Y008800D02*
X012550Y008800D01*
X011558Y007808D01*
X011289Y007839D02*
X008229Y007839D01*
X008229Y007741D02*
X011295Y007741D01*
X011344Y007642D02*
X008229Y007642D01*
X008229Y007544D02*
X011494Y007544D01*
X011622Y007544D02*
X011781Y007544D01*
X011781Y007523D02*
X011476Y007218D01*
X011371Y007113D01*
X011371Y007001D01*
X011322Y006952D01*
X011281Y006853D01*
X011281Y006747D01*
X011322Y006648D01*
X011398Y006572D01*
X011497Y006531D01*
X011603Y006531D01*
X011702Y006572D01*
X011778Y006648D01*
X011819Y006747D01*
X011819Y006853D01*
X011778Y006952D01*
X011747Y006983D01*
X012034Y007270D01*
X012103Y007270D01*
X012202Y007311D01*
X012278Y007387D01*
X012319Y007486D01*
X012319Y007593D01*
X012278Y007691D01*
X012202Y007767D01*
X012103Y007808D01*
X011997Y007808D01*
X011898Y007767D01*
X011822Y007691D01*
X011781Y007593D01*
X011781Y007523D01*
X011703Y007445D02*
X008229Y007445D01*
X008229Y007347D02*
X011605Y007347D01*
X011506Y007248D02*
X008229Y007248D01*
X008229Y007150D02*
X011408Y007150D01*
X011371Y007051D02*
X008229Y007051D01*
X008229Y006953D02*
X011322Y006953D01*
X011281Y006854D02*
X008876Y006854D01*
X008903Y006827D02*
X008827Y006903D01*
X008728Y006944D01*
X008622Y006944D01*
X008523Y006903D01*
X008447Y006827D01*
X008406Y006728D01*
X008406Y006622D01*
X008447Y006523D01*
X008523Y006447D01*
X008622Y006406D01*
X008691Y006406D01*
X008871Y006226D01*
X008976Y006121D01*
X012874Y006121D01*
X013374Y006621D01*
X015110Y006621D01*
X015137Y006557D01*
X015257Y006437D01*
X015415Y006371D01*
X016185Y006371D01*
X016343Y006437D01*
X016463Y006557D01*
X016529Y006715D01*
X016529Y006885D01*
X016463Y007043D01*
X016343Y007163D01*
X016185Y007229D01*
X015415Y007229D01*
X015257Y007163D01*
X015137Y007043D01*
X015110Y006979D01*
X013226Y006979D01*
X013121Y006874D01*
X012726Y006479D01*
X009124Y006479D01*
X008944Y006659D01*
X008944Y006728D01*
X008903Y006827D01*
X008933Y006756D02*
X011281Y006756D01*
X011318Y006657D02*
X008946Y006657D01*
X009044Y006559D02*
X011431Y006559D01*
X011669Y006559D02*
X012806Y006559D01*
X012904Y006657D02*
X011782Y006657D01*
X011819Y006756D02*
X013003Y006756D01*
X013101Y006854D02*
X011819Y006854D01*
X011778Y006953D02*
X013200Y006953D01*
X013300Y006800D02*
X015800Y006800D01*
X016357Y007150D02*
X019017Y007150D01*
X019100Y007067D02*
X018817Y007350D01*
X018817Y007750D01*
X019100Y008033D01*
X019500Y008033D01*
X019783Y007750D01*
X019783Y007350D01*
X019500Y007067D01*
X019100Y007067D01*
X018919Y007248D02*
X012012Y007248D01*
X011913Y007150D02*
X015243Y007150D01*
X015145Y007051D02*
X011815Y007051D01*
X011550Y007039D02*
X011550Y006800D01*
X011550Y007039D02*
X012050Y007539D01*
X012237Y007347D02*
X018820Y007347D01*
X018817Y007445D02*
X016351Y007445D01*
X016343Y007437D02*
X016463Y007557D01*
X016529Y007715D01*
X016529Y007885D01*
X016463Y008043D01*
X016343Y008163D01*
X016185Y008229D01*
X015415Y008229D01*
X015257Y008163D01*
X015137Y008043D01*
X015071Y007885D01*
X015071Y007715D01*
X015137Y007557D01*
X015257Y007437D01*
X015415Y007371D01*
X016185Y007371D01*
X016343Y007437D01*
X016450Y007544D02*
X018817Y007544D01*
X018817Y007642D02*
X016499Y007642D01*
X016529Y007741D02*
X018817Y007741D01*
X018906Y007839D02*
X016529Y007839D01*
X016507Y007938D02*
X019004Y007938D01*
X019596Y007938D02*
X020335Y007938D01*
X020335Y008036D02*
X016466Y008036D01*
X016372Y008135D02*
X020335Y008135D01*
X020335Y008233D02*
X012236Y008233D01*
X012334Y008332D02*
X020335Y008332D01*
X020335Y008430D02*
X016327Y008430D01*
X016291Y009415D02*
X018982Y009415D01*
X019080Y009514D02*
X016420Y009514D01*
X015273Y008430D02*
X012433Y008430D01*
X012531Y008529D02*
X015165Y008529D01*
X015228Y008135D02*
X012137Y008135D01*
X012039Y008036D02*
X015134Y008036D01*
X015093Y007938D02*
X011940Y007938D01*
X011842Y007839D02*
X015071Y007839D01*
X015071Y007741D02*
X012229Y007741D01*
X012298Y007642D02*
X015101Y007642D01*
X015150Y007544D02*
X012319Y007544D01*
X012302Y007445D02*
X015249Y007445D01*
X015136Y006559D02*
X013311Y006559D01*
X013213Y006460D02*
X015234Y006460D01*
X015415Y006229D02*
X015257Y006163D01*
X015137Y006043D01*
X015110Y005979D01*
X013226Y005979D01*
X012601Y005354D01*
X008376Y005354D01*
X008327Y005403D01*
X008228Y005444D01*
X008122Y005444D01*
X008023Y005403D01*
X007947Y005327D01*
X007906Y005228D01*
X007906Y005122D01*
X007947Y005023D01*
X008023Y004947D01*
X008122Y004906D01*
X008228Y004906D01*
X008327Y004947D01*
X008376Y004996D01*
X012749Y004996D01*
X012854Y005101D01*
X013374Y005621D01*
X015110Y005621D01*
X015137Y005557D01*
X015257Y005437D01*
X015415Y005371D01*
X016185Y005371D01*
X016343Y005437D01*
X016463Y005557D01*
X016529Y005715D01*
X016529Y005885D01*
X016463Y006043D01*
X016343Y006163D01*
X016185Y006229D01*
X015415Y006229D01*
X015260Y006165D02*
X012917Y006165D01*
X013016Y006263D02*
X018800Y006263D01*
X018796Y006259D02*
X018796Y006100D01*
X019250Y006100D01*
X019250Y006554D01*
X019091Y006554D01*
X018796Y006259D01*
X018796Y006165D02*
X016340Y006165D01*
X016440Y006066D02*
X019250Y006066D01*
X019250Y006100D02*
X019250Y006000D01*
X018796Y006000D01*
X018796Y005841D01*
X019091Y005546D01*
X019250Y005546D01*
X019250Y006000D01*
X019350Y006000D01*
X019350Y006100D01*
X019250Y006100D01*
X019250Y006165D02*
X019350Y006165D01*
X019350Y006100D02*
X019350Y006554D01*
X019509Y006554D01*
X019804Y006259D01*
X019804Y006100D01*
X019350Y006100D01*
X019350Y006066D02*
X020335Y006066D01*
X020335Y005968D02*
X019804Y005968D01*
X019804Y006000D02*
X019350Y006000D01*
X019350Y005546D01*
X019509Y005546D01*
X019804Y005841D01*
X019804Y006000D01*
X019804Y005869D02*
X020335Y005869D01*
X020335Y005771D02*
X019734Y005771D01*
X019635Y005672D02*
X020335Y005672D01*
X020335Y005574D02*
X019537Y005574D01*
X019350Y005574D02*
X019250Y005574D01*
X019250Y005672D02*
X019350Y005672D01*
X019350Y005771D02*
X019250Y005771D01*
X019250Y005869D02*
X019350Y005869D01*
X019350Y005968D02*
X019250Y005968D01*
X019250Y006263D02*
X019350Y006263D01*
X019350Y006362D02*
X019250Y006362D01*
X019250Y006460D02*
X019350Y006460D01*
X019603Y006460D02*
X020335Y006460D01*
X020335Y006362D02*
X019702Y006362D01*
X019800Y006263D02*
X020335Y006263D01*
X020335Y006165D02*
X019804Y006165D01*
X020335Y006559D02*
X016464Y006559D01*
X016505Y006657D02*
X020335Y006657D01*
X020335Y006756D02*
X016529Y006756D01*
X016529Y006854D02*
X020335Y006854D01*
X020335Y006953D02*
X016501Y006953D01*
X016455Y007051D02*
X020335Y007051D01*
X020335Y007150D02*
X019583Y007150D01*
X019681Y007248D02*
X020335Y007248D01*
X020335Y007347D02*
X019780Y007347D01*
X019783Y007445D02*
X020335Y007445D01*
X020335Y007544D02*
X019783Y007544D01*
X019783Y007642D02*
X020335Y007642D01*
X020335Y007741D02*
X019783Y007741D01*
X019694Y007839D02*
X020335Y007839D01*
X018997Y006460D02*
X016366Y006460D01*
X016495Y005968D02*
X018796Y005968D01*
X018796Y005869D02*
X016529Y005869D01*
X016529Y005771D02*
X018866Y005771D01*
X018965Y005672D02*
X016511Y005672D01*
X016470Y005574D02*
X019063Y005574D01*
X018898Y006362D02*
X013114Y006362D01*
X012800Y006300D02*
X013300Y006800D01*
X012800Y006300D02*
X009050Y006300D01*
X008675Y006675D01*
X008432Y006559D02*
X008061Y006559D01*
X008160Y006657D02*
X008406Y006657D01*
X008417Y006756D02*
X008229Y006756D01*
X008229Y006854D02*
X008474Y006854D01*
X008510Y006460D02*
X007963Y006460D01*
X007864Y006362D02*
X008736Y006362D01*
X008834Y006263D02*
X007766Y006263D01*
X007667Y006165D02*
X008933Y006165D01*
X008871Y006226D02*
X008871Y006226D01*
X008354Y005377D02*
X012624Y005377D01*
X012722Y005475D02*
X007229Y005475D01*
X007229Y005377D02*
X007996Y005377D01*
X007927Y005278D02*
X007229Y005278D01*
X007229Y005180D02*
X007906Y005180D01*
X007923Y005081D02*
X007229Y005081D01*
X007229Y004983D02*
X007987Y004983D01*
X008175Y005175D02*
X012675Y005175D01*
X013300Y005800D01*
X015800Y005800D01*
X016198Y005377D02*
X020335Y005377D01*
X020335Y005475D02*
X016381Y005475D01*
X016304Y005180D02*
X020335Y005180D01*
X020335Y005278D02*
X013031Y005278D01*
X013129Y005377D02*
X015402Y005377D01*
X015415Y005229D02*
X015257Y005163D01*
X015137Y005043D01*
X015071Y004885D01*
X015071Y004715D01*
X015137Y004557D01*
X015257Y004437D01*
X015415Y004371D01*
X016185Y004371D01*
X016343Y004437D01*
X016463Y004557D01*
X016529Y004715D01*
X016529Y004885D01*
X016463Y005043D01*
X016343Y005163D01*
X016185Y005229D01*
X015415Y005229D01*
X015296Y005180D02*
X012932Y005180D01*
X012834Y005081D02*
X015175Y005081D01*
X015112Y004983D02*
X008363Y004983D01*
X007470Y005968D02*
X013215Y005968D01*
X013116Y005869D02*
X007372Y005869D01*
X007273Y005771D02*
X013018Y005771D01*
X012919Y005672D02*
X007229Y005672D01*
X007229Y005574D02*
X012821Y005574D01*
X013228Y005475D02*
X015219Y005475D01*
X015130Y005574D02*
X013326Y005574D01*
X015071Y004884D02*
X007229Y004884D01*
X007229Y004786D02*
X015071Y004786D01*
X015083Y004687D02*
X007229Y004687D01*
X007229Y004589D02*
X015124Y004589D01*
X015204Y004490D02*
X007229Y004490D01*
X007229Y004392D02*
X015366Y004392D01*
X015415Y004229D02*
X015257Y004163D01*
X015137Y004043D01*
X015071Y003885D01*
X015071Y003715D01*
X015137Y003557D01*
X015215Y003479D01*
X008624Y003479D01*
X008577Y003526D01*
X008577Y003596D01*
X008536Y003694D01*
X008460Y003770D01*
X008361Y003811D01*
X008254Y003811D01*
X008156Y003770D01*
X008080Y003694D01*
X008039Y003596D01*
X008039Y003489D01*
X008080Y003390D01*
X008156Y003314D01*
X008254Y003273D01*
X008324Y003273D01*
X008476Y003121D01*
X015374Y003121D01*
X015479Y003226D01*
X015624Y003371D01*
X016185Y003371D01*
X016343Y003437D01*
X016463Y003557D01*
X016529Y003715D01*
X016529Y003885D01*
X016463Y004043D01*
X016343Y004163D01*
X016185Y004229D01*
X015415Y004229D01*
X015332Y004195D02*
X007229Y004195D01*
X007229Y004293D02*
X019250Y004293D01*
X019250Y004250D02*
X018552Y004250D01*
X018561Y004195D01*
X018583Y004127D01*
X018615Y004064D01*
X018657Y004007D01*
X018707Y003957D01*
X018764Y003915D01*
X018827Y003883D01*
X018895Y003861D01*
X018965Y003850D01*
X019250Y003850D01*
X019250Y004250D01*
X019350Y004250D01*
X019350Y004350D01*
X019250Y004350D01*
X019250Y004750D01*
X018965Y004750D01*
X018895Y004739D01*
X018827Y004717D01*
X018764Y004685D01*
X018707Y004643D01*
X018657Y004593D01*
X018615Y004536D01*
X018583Y004473D01*
X018561Y004405D01*
X018552Y004350D01*
X019250Y004350D01*
X019250Y004250D01*
X019250Y004195D02*
X019350Y004195D01*
X019350Y004250D02*
X019350Y003850D01*
X019635Y003850D01*
X019705Y003861D01*
X019773Y003883D01*
X019836Y003915D01*
X019893Y003957D01*
X019943Y004007D01*
X019985Y004064D01*
X020017Y004127D01*
X020039Y004195D01*
X020048Y004250D01*
X019350Y004250D01*
X019350Y004293D02*
X020335Y004293D01*
X020335Y004195D02*
X020039Y004195D01*
X020001Y004096D02*
X020335Y004096D01*
X020335Y003998D02*
X019934Y003998D01*
X019804Y003899D02*
X020335Y003899D01*
X020335Y003801D02*
X016529Y003801D01*
X016523Y003899D02*
X018796Y003899D01*
X018666Y003998D02*
X016482Y003998D01*
X016410Y004096D02*
X018599Y004096D01*
X018561Y004195D02*
X016268Y004195D01*
X016234Y004392D02*
X018559Y004392D01*
X018592Y004490D02*
X016396Y004490D01*
X016476Y004589D02*
X018653Y004589D01*
X018768Y004687D02*
X016517Y004687D01*
X016529Y004786D02*
X020335Y004786D01*
X020335Y004884D02*
X016529Y004884D01*
X016488Y004983D02*
X020335Y004983D01*
X020335Y005081D02*
X016425Y005081D01*
X016523Y003702D02*
X018850Y003702D01*
X018915Y003729D02*
X018757Y003663D01*
X018637Y003543D01*
X018571Y003385D01*
X018571Y003215D01*
X018637Y003057D01*
X018757Y002937D01*
X018915Y002871D01*
X019685Y002871D01*
X019843Y002937D01*
X019963Y003057D01*
X020029Y003215D01*
X020029Y003385D01*
X019963Y003543D01*
X019843Y003663D01*
X019685Y003729D01*
X018915Y003729D01*
X018697Y003604D02*
X016483Y003604D01*
X016411Y003505D02*
X018621Y003505D01*
X018580Y003407D02*
X016270Y003407D01*
X015800Y003800D02*
X015300Y003300D01*
X008550Y003300D01*
X008308Y003542D01*
X008386Y003801D02*
X015071Y003801D01*
X015077Y003899D02*
X007229Y003899D01*
X007229Y003801D02*
X008229Y003801D01*
X008088Y003702D02*
X007229Y003702D01*
X007229Y003604D02*
X008042Y003604D01*
X008039Y003505D02*
X007229Y003505D01*
X007229Y003407D02*
X008073Y003407D01*
X008171Y003308D02*
X007229Y003308D01*
X007229Y003210D02*
X008388Y003210D01*
X008598Y003505D02*
X015189Y003505D01*
X015117Y003604D02*
X008573Y003604D01*
X008528Y003702D02*
X015077Y003702D01*
X015118Y003998D02*
X007229Y003998D01*
X007229Y004096D02*
X015190Y004096D01*
X015561Y003308D02*
X018571Y003308D01*
X018573Y003210D02*
X015462Y003210D01*
X015160Y006066D02*
X007569Y006066D01*
X007260Y006263D02*
X000950Y006263D01*
X000950Y006165D02*
X007162Y006165D01*
X007063Y006066D02*
X000950Y006066D01*
X000950Y005968D02*
X006965Y005968D01*
X006871Y005869D02*
X000950Y005869D01*
X000950Y005771D02*
X006871Y005771D01*
X006871Y005672D02*
X000950Y005672D01*
X000950Y005574D02*
X006871Y005574D01*
X006871Y005475D02*
X000950Y005475D01*
X000950Y005377D02*
X006871Y005377D01*
X006871Y005278D02*
X000950Y005278D01*
X000950Y005180D02*
X006871Y005180D01*
X006871Y005081D02*
X000950Y005081D01*
X000950Y004983D02*
X006871Y004983D01*
X006871Y004884D02*
X000950Y004884D01*
X000950Y004786D02*
X006871Y004786D01*
X006871Y004687D02*
X000950Y004687D01*
X000950Y004589D02*
X006871Y004589D01*
X006871Y004490D02*
X000950Y004490D01*
X000950Y004392D02*
X006871Y004392D01*
X006871Y004293D02*
X000950Y004293D01*
X000950Y004195D02*
X006871Y004195D01*
X006871Y004096D02*
X000950Y004096D01*
X000950Y003998D02*
X006871Y003998D01*
X006871Y003899D02*
X000950Y003899D01*
X000950Y003801D02*
X006871Y003801D01*
X006871Y003702D02*
X000950Y003702D01*
X000950Y003604D02*
X006871Y003604D01*
X006871Y003505D02*
X000950Y003505D01*
X000950Y003407D02*
X006871Y003407D01*
X006871Y003308D02*
X000950Y003308D01*
X000950Y003210D02*
X006871Y003210D01*
X006871Y003111D02*
X000950Y003111D01*
X000950Y003013D02*
X006871Y003013D01*
X006871Y002914D02*
X000950Y002914D01*
X000950Y002816D02*
X006871Y002816D01*
X006871Y002717D02*
X000950Y002717D01*
X000950Y002619D02*
X006871Y002619D01*
X006871Y002520D02*
X000950Y002520D01*
X000950Y002422D02*
X006926Y002422D01*
X007024Y002323D02*
X000950Y002323D01*
X000950Y002225D02*
X007123Y002225D01*
X007221Y002126D02*
X000950Y002126D01*
X000950Y002028D02*
X007320Y002028D01*
X007418Y001929D02*
X000950Y001929D01*
X000950Y001831D02*
X007517Y001831D01*
X007615Y001732D02*
X000950Y001732D01*
X000950Y001634D02*
X007714Y001634D01*
X007800Y001800D02*
X009300Y001800D01*
X009550Y001550D01*
X009748Y001732D02*
X018559Y001732D01*
X018559Y001653D02*
X018672Y001381D01*
X018881Y001172D01*
X019153Y001059D01*
X019447Y001059D01*
X019719Y001172D01*
X019928Y001381D01*
X020041Y001653D01*
X020041Y001947D01*
X019928Y002219D01*
X019719Y002428D01*
X019447Y002541D01*
X019153Y002541D01*
X018881Y002428D01*
X018672Y002219D01*
X018559Y001947D01*
X018559Y001653D01*
X018567Y001634D02*
X009806Y001634D01*
X009819Y001535D02*
X018608Y001535D01*
X018649Y001437D02*
X009794Y001437D01*
X009718Y001338D02*
X018715Y001338D01*
X018813Y001240D02*
X000950Y001240D01*
X000950Y001338D02*
X009382Y001338D01*
X009306Y001437D02*
X000950Y001437D01*
X000950Y001535D02*
X009281Y001535D01*
X009522Y001831D02*
X018559Y001831D01*
X018559Y001929D02*
X009424Y001929D01*
X007825Y002028D02*
X018593Y002028D01*
X018633Y002126D02*
X007727Y002126D01*
X007628Y002225D02*
X018677Y002225D01*
X018776Y002323D02*
X007530Y002323D01*
X007431Y002422D02*
X018874Y002422D01*
X019103Y002520D02*
X007333Y002520D01*
X007234Y002619D02*
X020335Y002619D01*
X020335Y002717D02*
X007229Y002717D01*
X007229Y002816D02*
X020335Y002816D01*
X020335Y002914D02*
X019788Y002914D01*
X019919Y003013D02*
X020335Y003013D01*
X020335Y003111D02*
X019986Y003111D01*
X020027Y003210D02*
X020335Y003210D01*
X020335Y003308D02*
X020029Y003308D01*
X020020Y003407D02*
X020335Y003407D01*
X020335Y003505D02*
X019979Y003505D01*
X019903Y003604D02*
X020335Y003604D01*
X020335Y003702D02*
X019750Y003702D01*
X019350Y003899D02*
X019250Y003899D01*
X019250Y003998D02*
X019350Y003998D01*
X019350Y004096D02*
X019250Y004096D01*
X019350Y004350D02*
X020048Y004350D01*
X020039Y004405D01*
X020017Y004473D01*
X019985Y004536D01*
X019943Y004593D01*
X019893Y004643D01*
X019836Y004685D01*
X019773Y004717D01*
X019705Y004739D01*
X019635Y004750D01*
X019350Y004750D01*
X019350Y004350D01*
X019350Y004392D02*
X019250Y004392D01*
X019250Y004490D02*
X019350Y004490D01*
X019350Y004589D02*
X019250Y004589D01*
X019250Y004687D02*
X019350Y004687D01*
X019832Y004687D02*
X020335Y004687D01*
X020335Y004589D02*
X019947Y004589D01*
X020008Y004490D02*
X020335Y004490D01*
X020335Y004392D02*
X020041Y004392D01*
X018614Y003111D02*
X007229Y003111D01*
X007229Y003013D02*
X018681Y003013D01*
X018812Y002914D02*
X007229Y002914D01*
X007050Y002550D02*
X007800Y001800D01*
X007050Y002550D02*
X007050Y005800D01*
X008050Y006800D01*
X008050Y009800D01*
X007858Y009612D02*
X006229Y009612D01*
X006229Y009514D02*
X007871Y009514D01*
X007871Y009415D02*
X006229Y009415D01*
X006229Y009317D02*
X007871Y009317D01*
X007871Y009218D02*
X006229Y009218D01*
X006229Y009120D02*
X007871Y009120D01*
X007871Y009021D02*
X006229Y009021D01*
X006229Y008923D02*
X007871Y008923D01*
X007871Y008824D02*
X006229Y008824D01*
X006229Y008726D02*
X007871Y008726D01*
X007871Y008627D02*
X006229Y008627D01*
X006229Y008529D02*
X007871Y008529D01*
X007871Y008430D02*
X006287Y008430D01*
X006319Y008332D02*
X007871Y008332D01*
X007871Y008233D02*
X006313Y008233D01*
X006265Y008135D02*
X007871Y008135D01*
X007871Y008036D02*
X006115Y008036D01*
X005985Y008036D02*
X000950Y008036D01*
X000950Y007938D02*
X007871Y007938D01*
X007871Y007839D02*
X000950Y007839D01*
X000950Y007741D02*
X007871Y007741D01*
X007871Y007642D02*
X000950Y007642D01*
X000950Y007544D02*
X007871Y007544D01*
X007871Y007445D02*
X000950Y007445D01*
X000950Y007347D02*
X007871Y007347D01*
X007871Y007248D02*
X000950Y007248D01*
X000950Y007150D02*
X007871Y007150D01*
X007871Y007051D02*
X000950Y007051D01*
X000950Y006953D02*
X007871Y006953D01*
X007851Y006854D02*
X000950Y006854D01*
X000950Y006756D02*
X007753Y006756D01*
X007654Y006657D02*
X000950Y006657D01*
X000950Y006559D02*
X007556Y006559D01*
X007457Y006460D02*
X000950Y006460D01*
X000950Y006362D02*
X007359Y006362D01*
X008229Y008135D02*
X011632Y008135D01*
X011730Y008233D02*
X008229Y008233D01*
X008229Y008332D02*
X011829Y008332D01*
X011927Y008430D02*
X008229Y008430D01*
X008229Y008529D02*
X012026Y008529D01*
X012124Y008627D02*
X008229Y008627D01*
X008229Y008726D02*
X012223Y008726D01*
X012321Y008824D02*
X008229Y008824D01*
X008229Y008923D02*
X012420Y008923D01*
X011550Y009300D02*
X011550Y014050D01*
X011798Y013946D02*
X017697Y013946D01*
X017667Y013933D02*
X017547Y013813D01*
X017481Y013655D01*
X017481Y012885D01*
X017547Y012727D01*
X017667Y012607D01*
X017825Y012541D01*
X017995Y012541D01*
X018153Y012607D01*
X018273Y012727D01*
X018339Y012885D01*
X018339Y013655D01*
X018273Y013813D01*
X018153Y013933D01*
X017995Y013999D01*
X017825Y013999D01*
X017667Y013933D01*
X017581Y013848D02*
X011729Y013848D01*
X011729Y013749D02*
X017520Y013749D01*
X017481Y013651D02*
X011729Y013651D01*
X011729Y013552D02*
X017481Y013552D01*
X017481Y013454D02*
X011729Y013454D01*
X011729Y013355D02*
X017481Y013355D01*
X017481Y013257D02*
X011729Y013257D01*
X011729Y013158D02*
X017481Y013158D01*
X017481Y013060D02*
X011729Y013060D01*
X011729Y012961D02*
X017481Y012961D01*
X017490Y012863D02*
X011729Y012863D01*
X011729Y012764D02*
X017531Y012764D01*
X017608Y012666D02*
X011729Y012666D01*
X011729Y012567D02*
X017763Y012567D01*
X018057Y012567D02*
X019490Y012567D01*
X019517Y012553D02*
X019585Y012531D01*
X019640Y012522D01*
X019640Y013220D01*
X019740Y013220D01*
X019740Y013320D01*
X020140Y013320D01*
X020140Y013605D01*
X020129Y013675D01*
X020107Y013743D01*
X020075Y013806D01*
X020033Y013863D01*
X019983Y013913D01*
X019926Y013955D01*
X019863Y013987D01*
X019795Y014009D01*
X019740Y014018D01*
X019740Y013320D01*
X019640Y013320D01*
X019640Y014018D01*
X019585Y014009D01*
X019517Y013987D01*
X019454Y013955D01*
X019397Y013913D01*
X019347Y013863D01*
X019305Y013806D01*
X019273Y013743D01*
X019251Y013675D01*
X019240Y013605D01*
X019240Y013320D01*
X019640Y013320D01*
X019640Y013220D01*
X019240Y013220D01*
X019240Y012935D01*
X019251Y012865D01*
X019273Y012797D01*
X019305Y012734D01*
X019347Y012677D01*
X019397Y012627D01*
X019454Y012585D01*
X019517Y012553D01*
X019640Y012567D02*
X019740Y012567D01*
X019740Y012522D02*
X019795Y012531D01*
X019863Y012553D01*
X019926Y012585D01*
X019983Y012627D01*
X020033Y012677D01*
X020075Y012734D01*
X020107Y012797D01*
X020129Y012865D01*
X020140Y012935D01*
X020140Y013220D01*
X019740Y013220D01*
X019740Y012522D01*
X019740Y012666D02*
X019640Y012666D01*
X019640Y012764D02*
X019740Y012764D01*
X019740Y012863D02*
X019640Y012863D01*
X019640Y012961D02*
X019740Y012961D01*
X019740Y013060D02*
X019640Y013060D01*
X019640Y013158D02*
X019740Y013158D01*
X019740Y013257D02*
X020335Y013257D01*
X020335Y013355D02*
X020140Y013355D01*
X020140Y013454D02*
X020335Y013454D01*
X020335Y013552D02*
X020140Y013552D01*
X020133Y013651D02*
X020335Y013651D01*
X020335Y013749D02*
X020104Y013749D01*
X020045Y013848D02*
X020335Y013848D01*
X020335Y013946D02*
X019938Y013946D01*
X019740Y013946D02*
X019640Y013946D01*
X019640Y013848D02*
X019740Y013848D01*
X019740Y013749D02*
X019640Y013749D01*
X019640Y013651D02*
X019740Y013651D01*
X019740Y013552D02*
X019640Y013552D01*
X019640Y013454D02*
X019740Y013454D01*
X019740Y013355D02*
X019640Y013355D01*
X019640Y013257D02*
X018339Y013257D01*
X018339Y013355D02*
X019240Y013355D01*
X019240Y013454D02*
X018339Y013454D01*
X018339Y013552D02*
X019240Y013552D01*
X019247Y013651D02*
X018339Y013651D01*
X018300Y013749D02*
X019276Y013749D01*
X019335Y013848D02*
X018239Y013848D01*
X018123Y013946D02*
X019442Y013946D01*
X019240Y013158D02*
X018339Y013158D01*
X018339Y013060D02*
X019240Y013060D01*
X019240Y012961D02*
X018339Y012961D01*
X018330Y012863D02*
X019252Y012863D01*
X019290Y012764D02*
X018289Y012764D01*
X018212Y012666D02*
X019358Y012666D01*
X019890Y012567D02*
X020335Y012567D01*
X020335Y012469D02*
X011729Y012469D01*
X011729Y012370D02*
X020335Y012370D01*
X020335Y012272D02*
X011729Y012272D01*
X011371Y012272D02*
X010729Y012272D01*
X010729Y012370D02*
X011371Y012370D01*
X011371Y012469D02*
X010729Y012469D01*
X010729Y012567D02*
X011371Y012567D01*
X011371Y012666D02*
X010729Y012666D01*
X010729Y012764D02*
X011371Y012764D01*
X011371Y012863D02*
X010729Y012863D01*
X010729Y012961D02*
X011371Y012961D01*
X011371Y013060D02*
X010729Y013060D01*
X010729Y013158D02*
X011371Y013158D01*
X011371Y013257D02*
X010729Y013257D01*
X010729Y013355D02*
X011371Y013355D01*
X011371Y013454D02*
X010729Y013454D01*
X010729Y013552D02*
X011371Y013552D01*
X011371Y013651D02*
X010702Y013651D01*
X010604Y013749D02*
X011371Y013749D01*
X011371Y013848D02*
X010505Y013848D01*
X010479Y013946D02*
X011302Y013946D01*
X011281Y014045D02*
X010479Y014045D01*
X010479Y014143D02*
X011298Y014143D01*
X011361Y014242D02*
X010479Y014242D01*
X010479Y014340D02*
X020335Y014340D01*
X020335Y014242D02*
X011739Y014242D01*
X011802Y014143D02*
X020335Y014143D01*
X020335Y014045D02*
X011819Y014045D01*
X012148Y014697D02*
X012247Y014656D01*
X012353Y014656D01*
X012452Y014697D01*
X012528Y014773D01*
X012569Y014872D01*
X012569Y014978D01*
X012528Y015077D01*
X012452Y015153D01*
X012353Y015194D01*
X012247Y015194D01*
X012148Y015153D01*
X012072Y015077D01*
X012031Y014978D01*
X012031Y014872D01*
X012072Y014773D01*
X012148Y014697D01*
X012111Y014734D02*
X010489Y014734D01*
X010479Y014636D02*
X020335Y014636D01*
X020335Y014734D02*
X012489Y014734D01*
X012553Y014833D02*
X020335Y014833D01*
X020335Y014931D02*
X012569Y014931D01*
X012548Y015030D02*
X020335Y015030D01*
X020335Y015128D02*
X019892Y015128D01*
X019863Y015113D02*
X019926Y015145D01*
X019983Y015187D01*
X020033Y015237D01*
X020075Y015294D01*
X020107Y015357D01*
X020129Y015425D01*
X020140Y015495D01*
X020140Y015780D01*
X019740Y015780D01*
X019740Y015880D01*
X020140Y015880D01*
X020140Y016165D01*
X020129Y016235D01*
X020107Y016303D01*
X020075Y016366D01*
X020033Y016423D01*
X019983Y016473D01*
X019926Y016515D01*
X019863Y016547D01*
X019795Y016569D01*
X019740Y016578D01*
X019740Y015880D01*
X019640Y015880D01*
X019640Y016578D01*
X019585Y016569D01*
X019517Y016547D01*
X019454Y016515D01*
X019397Y016473D01*
X019347Y016423D01*
X019305Y016366D01*
X019273Y016303D01*
X019251Y016235D01*
X019240Y016165D01*
X019240Y015880D01*
X019640Y015880D01*
X019640Y015780D01*
X019740Y015780D01*
X019740Y015082D01*
X019795Y015091D01*
X019863Y015113D01*
X019740Y015128D02*
X019640Y015128D01*
X019640Y015082D02*
X019640Y015780D01*
X019240Y015780D01*
X019240Y015495D01*
X019251Y015425D01*
X019273Y015357D01*
X019305Y015294D01*
X019347Y015237D01*
X019397Y015187D01*
X019454Y015145D01*
X019517Y015113D01*
X019585Y015091D01*
X019640Y015082D01*
X019640Y015227D02*
X019740Y015227D01*
X019740Y015325D02*
X019640Y015325D01*
X019640Y015424D02*
X019740Y015424D01*
X019740Y015522D02*
X019640Y015522D01*
X019640Y015621D02*
X019740Y015621D01*
X019740Y015719D02*
X019640Y015719D01*
X019640Y015818D02*
X018339Y015818D01*
X018339Y015916D02*
X019240Y015916D01*
X019240Y016015D02*
X018339Y016015D01*
X018339Y016113D02*
X019240Y016113D01*
X019247Y016212D02*
X018339Y016212D01*
X018339Y016215D02*
X018273Y016373D01*
X018153Y016493D01*
X017995Y016559D01*
X017825Y016559D01*
X017667Y016493D01*
X017547Y016373D01*
X017481Y016215D01*
X017481Y015445D01*
X017547Y015287D01*
X017667Y015167D01*
X017825Y015101D01*
X017995Y015101D01*
X018153Y015167D01*
X018273Y015287D01*
X018339Y015445D01*
X018339Y016215D01*
X018299Y016310D02*
X019277Y016310D01*
X019336Y016409D02*
X018238Y016409D01*
X018120Y016507D02*
X019443Y016507D01*
X019640Y016507D02*
X019740Y016507D01*
X019740Y016409D02*
X019640Y016409D01*
X019640Y016310D02*
X019740Y016310D01*
X019740Y016212D02*
X019640Y016212D01*
X019640Y016113D02*
X019740Y016113D01*
X019740Y016015D02*
X019640Y016015D01*
X019640Y015916D02*
X019740Y015916D01*
X019740Y015818D02*
X020335Y015818D01*
X020335Y015916D02*
X020140Y015916D01*
X020140Y016015D02*
X020335Y016015D01*
X020335Y016113D02*
X020140Y016113D01*
X020133Y016212D02*
X020335Y016212D01*
X020335Y016310D02*
X020103Y016310D01*
X020044Y016409D02*
X020335Y016409D01*
X020335Y016507D02*
X019937Y016507D01*
X020335Y016606D02*
X000950Y016606D01*
X000950Y016704D02*
X020335Y016704D01*
X020335Y016803D02*
X000950Y016803D01*
X000950Y016901D02*
X020335Y016901D01*
X020335Y017000D02*
X000950Y017000D01*
X000950Y017098D02*
X020335Y017098D01*
X020335Y017197D02*
X000950Y017197D01*
X000950Y017295D02*
X020335Y017295D01*
X020335Y018379D02*
X019614Y018379D01*
X019774Y018477D02*
X020335Y018477D01*
X020335Y018576D02*
X019873Y018576D01*
X019946Y018674D02*
X020335Y018674D01*
X020335Y018773D02*
X019987Y018773D01*
X020027Y018871D02*
X020335Y018871D01*
X020335Y018970D02*
X020041Y018970D01*
X020041Y019068D02*
X020335Y019068D01*
X020335Y019167D02*
X020041Y019167D01*
X020012Y019265D02*
X020335Y019265D01*
X020335Y019364D02*
X019972Y019364D01*
X019931Y019462D02*
X020335Y019462D01*
X020335Y019561D02*
X019837Y019561D01*
X019738Y019659D02*
X020335Y019659D01*
X020335Y019758D02*
X019527Y019758D01*
X019073Y019758D02*
X002949Y019758D01*
X002979Y019659D02*
X018862Y019659D01*
X018763Y019561D02*
X002979Y019561D01*
X002979Y019462D02*
X018669Y019462D01*
X018628Y019364D02*
X002979Y019364D01*
X002900Y019856D02*
X020335Y019856D01*
X020335Y019955D02*
X002802Y019955D01*
X002298Y019955D02*
X001828Y019955D01*
X001843Y019943D02*
X001786Y019985D01*
X001723Y020017D01*
X001655Y020039D01*
X001600Y020048D01*
X001600Y019350D01*
X001500Y019350D01*
X001500Y020048D01*
X001445Y020039D01*
X001377Y020017D01*
X001314Y019985D01*
X001257Y019943D01*
X001207Y019893D01*
X001165Y019836D01*
X001133Y019773D01*
X001111Y019705D01*
X001100Y019635D01*
X001100Y019350D01*
X001500Y019350D01*
X001500Y019250D01*
X001100Y019250D01*
X001100Y018965D01*
X001111Y018895D01*
X001133Y018827D01*
X001165Y018764D01*
X001207Y018707D01*
X001257Y018657D01*
X001314Y018615D01*
X001377Y018583D01*
X001445Y018561D01*
X001500Y018552D01*
X001500Y019250D01*
X001600Y019250D01*
X001600Y019350D01*
X002000Y019350D01*
X002000Y019635D01*
X001989Y019705D01*
X001967Y019773D01*
X001935Y019836D01*
X001893Y019893D01*
X001843Y019943D01*
X001920Y019856D02*
X002200Y019856D01*
X002151Y019758D02*
X001972Y019758D01*
X001996Y019659D02*
X002121Y019659D01*
X002121Y019561D02*
X002000Y019561D01*
X002000Y019462D02*
X002121Y019462D01*
X002121Y019364D02*
X002000Y019364D01*
X002000Y019250D02*
X001600Y019250D01*
X001600Y018552D01*
X001655Y018561D01*
X001723Y018583D01*
X001786Y018615D01*
X001843Y018657D01*
X001893Y018707D01*
X001935Y018764D01*
X001967Y018827D01*
X001989Y018895D01*
X002000Y018965D01*
X002000Y019250D01*
X002000Y019167D02*
X002121Y019167D01*
X002121Y019265D02*
X001600Y019265D01*
X001600Y019167D02*
X001500Y019167D01*
X001500Y019265D02*
X000950Y019265D01*
X000950Y019167D02*
X001100Y019167D01*
X001100Y019068D02*
X000950Y019068D01*
X000950Y018970D02*
X001100Y018970D01*
X001119Y018871D02*
X000950Y018871D01*
X000950Y018773D02*
X001161Y018773D01*
X001240Y018674D02*
X000950Y018674D01*
X000950Y018576D02*
X001400Y018576D01*
X001500Y018576D02*
X001600Y018576D01*
X001600Y018674D02*
X001500Y018674D01*
X001500Y018773D02*
X001600Y018773D01*
X001600Y018871D02*
X001500Y018871D01*
X001500Y018970D02*
X001600Y018970D01*
X001600Y019068D02*
X001500Y019068D01*
X001500Y019364D02*
X001600Y019364D01*
X001600Y019462D02*
X001500Y019462D01*
X001500Y019561D02*
X001600Y019561D01*
X001600Y019659D02*
X001500Y019659D01*
X001500Y019758D02*
X001600Y019758D01*
X001600Y019856D02*
X001500Y019856D01*
X001500Y019955D02*
X001600Y019955D01*
X001272Y019955D02*
X000950Y019955D01*
X000950Y020053D02*
X020335Y020053D01*
X020335Y020085D02*
X020335Y000700D01*
X000950Y000700D01*
X000950Y020085D01*
X020335Y020085D01*
X017700Y016507D02*
X000950Y016507D01*
X000950Y016409D02*
X017582Y016409D01*
X017521Y016310D02*
X000950Y016310D01*
X000950Y016212D02*
X017481Y016212D01*
X017481Y016113D02*
X000950Y016113D01*
X000950Y016015D02*
X017481Y016015D01*
X017481Y015916D02*
X000950Y015916D01*
X000950Y015818D02*
X017481Y015818D01*
X017481Y015719D02*
X000950Y015719D01*
X000950Y015621D02*
X017481Y015621D01*
X017481Y015522D02*
X000950Y015522D01*
X000950Y015424D02*
X017490Y015424D01*
X017531Y015325D02*
X000950Y015325D01*
X000950Y015227D02*
X017607Y015227D01*
X017760Y015128D02*
X012477Y015128D01*
X012123Y015128D02*
X010477Y015128D01*
X010548Y015030D02*
X012052Y015030D01*
X012031Y014931D02*
X010569Y014931D01*
X010553Y014833D02*
X012047Y014833D01*
X010479Y014537D02*
X020335Y014537D01*
X020335Y014439D02*
X010479Y014439D01*
X010300Y014925D02*
X010300Y013800D01*
X010550Y013550D01*
X010550Y011050D01*
X010634Y010794D02*
X011371Y010794D01*
X011371Y010696D02*
X006229Y010696D01*
X006229Y010794D02*
X010466Y010794D01*
X010327Y010893D02*
X006229Y010893D01*
X006229Y010991D02*
X010284Y010991D01*
X010281Y011090D02*
X010249Y011090D01*
X010348Y011287D02*
X010371Y011287D01*
X010371Y011385D02*
X010335Y011385D01*
X010729Y011385D02*
X011371Y011385D01*
X011371Y011287D02*
X010729Y011287D01*
X010784Y011188D02*
X011371Y011188D01*
X011371Y011090D02*
X010819Y011090D01*
X010816Y010991D02*
X011371Y010991D01*
X011371Y010893D02*
X010773Y010893D01*
X010729Y011484D02*
X011371Y011484D01*
X011371Y011582D02*
X010729Y011582D01*
X010729Y011681D02*
X011371Y011681D01*
X011371Y011779D02*
X010729Y011779D01*
X010729Y011878D02*
X011371Y011878D01*
X011371Y011976D02*
X010729Y011976D01*
X010729Y012075D02*
X011371Y012075D01*
X011371Y012173D02*
X010729Y012173D01*
X011371Y010597D02*
X006229Y010597D01*
X006229Y010499D02*
X011371Y010499D01*
X011371Y010400D02*
X006229Y010400D01*
X006229Y010302D02*
X011371Y010302D01*
X011371Y010203D02*
X006229Y010203D01*
X006229Y010105D02*
X011371Y010105D01*
X011406Y008036D02*
X011330Y007960D01*
X011772Y007642D02*
X011802Y007642D01*
X011821Y007741D02*
X011871Y007741D01*
X007796Y009711D02*
X006229Y009711D01*
X006229Y009809D02*
X007781Y009809D01*
X007804Y009908D02*
X006229Y009908D01*
X006229Y010006D02*
X007876Y010006D01*
X006050Y008300D02*
X006050Y012050D01*
X006800Y012800D01*
X006581Y012961D02*
X000950Y012961D01*
X000950Y012863D02*
X006535Y012863D01*
X006511Y012764D02*
X000950Y012764D01*
X000950Y012666D02*
X006413Y012666D01*
X006314Y012567D02*
X000950Y012567D01*
X000950Y012469D02*
X006216Y012469D01*
X006117Y012370D02*
X000950Y012370D01*
X000950Y012272D02*
X005891Y012272D01*
X005810Y012173D02*
X000950Y012173D01*
X000950Y012075D02*
X005781Y012075D01*
X005790Y011976D02*
X000950Y011976D01*
X000950Y011878D02*
X005842Y011878D01*
X005871Y011779D02*
X000950Y011779D01*
X000950Y011681D02*
X005871Y011681D01*
X005871Y011582D02*
X000950Y011582D01*
X000950Y011484D02*
X005871Y011484D01*
X005871Y011385D02*
X000950Y011385D01*
X000950Y011287D02*
X001643Y011287D01*
X001653Y011291D02*
X001381Y011178D01*
X001172Y010969D01*
X001059Y010697D01*
X001059Y010403D01*
X001172Y010131D01*
X001381Y009922D01*
X001653Y009809D01*
X001947Y009809D01*
X002219Y009922D01*
X002428Y010131D01*
X002541Y010403D01*
X002541Y010697D01*
X002428Y010969D01*
X002219Y011178D01*
X001947Y011291D01*
X001653Y011291D01*
X001405Y011188D02*
X000950Y011188D01*
X000950Y011090D02*
X001292Y011090D01*
X001194Y010991D02*
X000950Y010991D01*
X000950Y010893D02*
X001140Y010893D01*
X001100Y010794D02*
X000950Y010794D01*
X000950Y010696D02*
X001059Y010696D01*
X001059Y010597D02*
X000950Y010597D01*
X000950Y010499D02*
X001059Y010499D01*
X001061Y010400D02*
X000950Y010400D01*
X000950Y010302D02*
X001101Y010302D01*
X001142Y010203D02*
X000950Y010203D01*
X000950Y010105D02*
X001198Y010105D01*
X001297Y010006D02*
X000950Y010006D01*
X000950Y009908D02*
X001416Y009908D01*
X000950Y009809D02*
X005871Y009809D01*
X005871Y009711D02*
X000950Y009711D01*
X000950Y009612D02*
X005871Y009612D01*
X005871Y009514D02*
X000950Y009514D01*
X000950Y009415D02*
X005871Y009415D01*
X005871Y009317D02*
X000950Y009317D01*
X000950Y009218D02*
X005871Y009218D01*
X005871Y009120D02*
X000950Y009120D01*
X000950Y009021D02*
X005871Y009021D01*
X005871Y008923D02*
X000950Y008923D01*
X000950Y008824D02*
X005871Y008824D01*
X005871Y008726D02*
X000950Y008726D01*
X000950Y008627D02*
X005871Y008627D01*
X005871Y008529D02*
X000950Y008529D01*
X000950Y008430D02*
X005813Y008430D01*
X005781Y008332D02*
X000950Y008332D01*
X000950Y008233D02*
X005787Y008233D01*
X005835Y008135D02*
X000950Y008135D01*
X002184Y009908D02*
X005871Y009908D01*
X005871Y010006D02*
X002303Y010006D01*
X002402Y010105D02*
X005871Y010105D01*
X005871Y010203D02*
X002458Y010203D01*
X002499Y010302D02*
X005871Y010302D01*
X005871Y010400D02*
X002539Y010400D01*
X002541Y010499D02*
X005871Y010499D01*
X005871Y010597D02*
X002541Y010597D01*
X002541Y010696D02*
X005871Y010696D01*
X005871Y010794D02*
X002500Y010794D01*
X002460Y010893D02*
X005871Y010893D01*
X005871Y010991D02*
X002406Y010991D01*
X002308Y011090D02*
X005871Y011090D01*
X005871Y011188D02*
X002195Y011188D01*
X001957Y011287D02*
X005871Y011287D01*
X007553Y014833D02*
X008047Y014833D01*
X008031Y014931D02*
X007569Y014931D01*
X007548Y015030D02*
X008052Y015030D01*
X008123Y015128D02*
X007477Y015128D01*
X002454Y018576D02*
X001700Y018576D01*
X001860Y018674D02*
X002270Y018674D01*
X002180Y018773D02*
X001939Y018773D01*
X001981Y018871D02*
X002139Y018871D01*
X002121Y018970D02*
X002000Y018970D01*
X002000Y019068D02*
X002121Y019068D01*
X001100Y019364D02*
X000950Y019364D01*
X000950Y019462D02*
X001100Y019462D01*
X001100Y019561D02*
X000950Y019561D01*
X000950Y019659D02*
X001104Y019659D01*
X001128Y019758D02*
X000950Y019758D01*
X000950Y019856D02*
X001180Y019856D01*
X018060Y015128D02*
X019488Y015128D01*
X019357Y015227D02*
X018213Y015227D01*
X018289Y015325D02*
X019289Y015325D01*
X019251Y015424D02*
X018330Y015424D01*
X018339Y015522D02*
X019240Y015522D01*
X019240Y015621D02*
X018339Y015621D01*
X018339Y015719D02*
X019240Y015719D01*
X020023Y015227D02*
X020335Y015227D01*
X020335Y015325D02*
X020091Y015325D01*
X020129Y015424D02*
X020335Y015424D01*
X020335Y015522D02*
X020140Y015522D01*
X020140Y015621D02*
X020335Y015621D01*
X020335Y015719D02*
X020140Y015719D01*
X020140Y013158D02*
X020335Y013158D01*
X020335Y013060D02*
X020140Y013060D01*
X020140Y012961D02*
X020335Y012961D01*
X020335Y012863D02*
X020128Y012863D01*
X020090Y012764D02*
X020335Y012764D01*
X020335Y012666D02*
X020022Y012666D01*
X019750Y010991D02*
X020335Y010991D01*
X020335Y010893D02*
X019783Y010893D01*
X019783Y010794D02*
X020335Y010794D01*
X020335Y010696D02*
X019783Y010696D01*
X019783Y010597D02*
X020335Y010597D01*
X020335Y010499D02*
X019783Y010499D01*
X019783Y010400D02*
X020335Y010400D01*
X020335Y010302D02*
X019783Y010302D01*
X019783Y010203D02*
X020335Y010203D01*
X020335Y010105D02*
X019745Y010105D01*
X019497Y002520D02*
X020335Y002520D01*
X020335Y002422D02*
X019726Y002422D01*
X019824Y002323D02*
X020335Y002323D01*
X020335Y002225D02*
X019923Y002225D01*
X019967Y002126D02*
X020335Y002126D01*
X020335Y002028D02*
X020007Y002028D01*
X020041Y001929D02*
X020335Y001929D01*
X020335Y001831D02*
X020041Y001831D01*
X020041Y001732D02*
X020335Y001732D01*
X020335Y001634D02*
X020033Y001634D01*
X019992Y001535D02*
X020335Y001535D01*
X020335Y001437D02*
X019951Y001437D01*
X019885Y001338D02*
X020335Y001338D01*
X020335Y001240D02*
X019787Y001240D01*
X019644Y001141D02*
X020335Y001141D01*
X020335Y001043D02*
X000950Y001043D01*
X000950Y001141D02*
X018956Y001141D01*
X020335Y000944D02*
X000950Y000944D01*
X000950Y000846D02*
X020335Y000846D01*
X020335Y000747D02*
X000950Y000747D01*
D16*
X001300Y001300D03*
X001300Y002300D03*
X001300Y003300D03*
X001300Y004300D03*
X002800Y005300D03*
X003050Y005050D03*
X002800Y006300D03*
X002800Y007550D03*
X002800Y008800D03*
X002800Y010050D03*
X002800Y011300D03*
X003050Y011550D03*
X004300Y011550D03*
X004550Y011300D03*
X005300Y010925D03*
X006050Y012050D03*
X006800Y012800D03*
X007300Y012425D03*
X008898Y011300D03*
X009550Y011550D03*
X010080Y011300D03*
X010550Y011050D03*
X010300Y009550D03*
X011550Y009300D03*
X011558Y007808D03*
X012050Y007539D03*
X011550Y006800D03*
X010050Y006800D03*
X008675Y006675D03*
X007550Y006800D03*
X007300Y007675D03*
X006050Y008300D03*
X007550Y009800D03*
X008050Y009800D03*
X009550Y013175D03*
X009300Y014925D03*
X008300Y014925D03*
X007300Y014925D03*
X004800Y016050D03*
X004800Y017050D03*
X004800Y018050D03*
X004800Y019050D03*
X004800Y019925D03*
X004550Y015050D03*
X003800Y014800D03*
X001800Y014300D03*
X010300Y014925D03*
X011300Y014800D03*
X011550Y014050D03*
X012300Y014925D03*
X014300Y014800D03*
X015300Y014800D03*
X013050Y009800D03*
X014550Y005050D03*
X011550Y002925D03*
X011425Y002300D03*
X011425Y001300D03*
X009550Y001550D03*
X008308Y003542D03*
X007550Y004050D03*
X008175Y005175D03*
X010300Y004050D03*
X004800Y005300D03*
X004550Y005050D03*
X004800Y005800D03*
M02*
