G75*
%MOIN*%
%OFA0B0*%
%FSLAX24Y24*%
%IPPOS*%
%LPD*%
%AMOC8*
5,1,8,0,0,1.08239X$1,22.5*
%
%ADD10C,0.0000*%
%ADD11R,0.0472X0.0118*%
%ADD12R,0.0118X0.0472*%
%ADD13R,0.0591X0.0512*%
%ADD14R,0.0512X0.0591*%
%ADD15C,0.0600*%
%ADD16R,0.0709X0.0709*%
%ADD17OC8,0.0709*%
%ADD18R,0.0787X0.2165*%
%ADD19OC8,0.0560*%
%ADD20C,0.0050*%
%ADD21C,0.0157*%
%ADD22R,0.0276X0.0591*%
%ADD23R,0.0748X0.0512*%
%ADD24R,0.0315X0.0315*%
%ADD25R,0.0591X0.0276*%
%ADD26R,0.0472X0.0217*%
%ADD27R,0.0472X0.2087*%
%ADD28C,0.0100*%
%ADD29C,0.0200*%
%ADD30C,0.0280*%
%ADD31C,0.0160*%
D10*
X000800Y000550D02*
X000800Y020235D01*
X020485Y020235D01*
X020485Y000550D01*
X000800Y000550D01*
X001209Y010550D02*
X001211Y010598D01*
X001217Y010646D01*
X001227Y010693D01*
X001240Y010739D01*
X001258Y010784D01*
X001278Y010828D01*
X001303Y010870D01*
X001331Y010909D01*
X001361Y010946D01*
X001395Y010980D01*
X001432Y011012D01*
X001470Y011041D01*
X001511Y011066D01*
X001554Y011088D01*
X001599Y011106D01*
X001645Y011120D01*
X001692Y011131D01*
X001740Y011138D01*
X001788Y011141D01*
X001836Y011140D01*
X001884Y011135D01*
X001932Y011126D01*
X001978Y011114D01*
X002023Y011097D01*
X002067Y011077D01*
X002109Y011054D01*
X002149Y011027D01*
X002187Y010997D01*
X002222Y010964D01*
X002254Y010928D01*
X002284Y010890D01*
X002310Y010849D01*
X002332Y010806D01*
X002352Y010762D01*
X002367Y010717D01*
X002379Y010670D01*
X002387Y010622D01*
X002391Y010574D01*
X002391Y010526D01*
X002387Y010478D01*
X002379Y010430D01*
X002367Y010383D01*
X002352Y010338D01*
X002332Y010294D01*
X002310Y010251D01*
X002284Y010210D01*
X002254Y010172D01*
X002222Y010136D01*
X002187Y010103D01*
X002149Y010073D01*
X002109Y010046D01*
X002067Y010023D01*
X002023Y010003D01*
X001978Y009986D01*
X001932Y009974D01*
X001884Y009965D01*
X001836Y009960D01*
X001788Y009959D01*
X001740Y009962D01*
X001692Y009969D01*
X001645Y009980D01*
X001599Y009994D01*
X001554Y010012D01*
X001511Y010034D01*
X001470Y010059D01*
X001432Y010088D01*
X001395Y010120D01*
X001361Y010154D01*
X001331Y010191D01*
X001303Y010230D01*
X001278Y010272D01*
X001258Y010316D01*
X001240Y010361D01*
X001227Y010407D01*
X001217Y010454D01*
X001211Y010502D01*
X001209Y010550D01*
X018709Y019050D02*
X018711Y019098D01*
X018717Y019146D01*
X018727Y019193D01*
X018740Y019239D01*
X018758Y019284D01*
X018778Y019328D01*
X018803Y019370D01*
X018831Y019409D01*
X018861Y019446D01*
X018895Y019480D01*
X018932Y019512D01*
X018970Y019541D01*
X019011Y019566D01*
X019054Y019588D01*
X019099Y019606D01*
X019145Y019620D01*
X019192Y019631D01*
X019240Y019638D01*
X019288Y019641D01*
X019336Y019640D01*
X019384Y019635D01*
X019432Y019626D01*
X019478Y019614D01*
X019523Y019597D01*
X019567Y019577D01*
X019609Y019554D01*
X019649Y019527D01*
X019687Y019497D01*
X019722Y019464D01*
X019754Y019428D01*
X019784Y019390D01*
X019810Y019349D01*
X019832Y019306D01*
X019852Y019262D01*
X019867Y019217D01*
X019879Y019170D01*
X019887Y019122D01*
X019891Y019074D01*
X019891Y019026D01*
X019887Y018978D01*
X019879Y018930D01*
X019867Y018883D01*
X019852Y018838D01*
X019832Y018794D01*
X019810Y018751D01*
X019784Y018710D01*
X019754Y018672D01*
X019722Y018636D01*
X019687Y018603D01*
X019649Y018573D01*
X019609Y018546D01*
X019567Y018523D01*
X019523Y018503D01*
X019478Y018486D01*
X019432Y018474D01*
X019384Y018465D01*
X019336Y018460D01*
X019288Y018459D01*
X019240Y018462D01*
X019192Y018469D01*
X019145Y018480D01*
X019099Y018494D01*
X019054Y018512D01*
X019011Y018534D01*
X018970Y018559D01*
X018932Y018588D01*
X018895Y018620D01*
X018861Y018654D01*
X018831Y018691D01*
X018803Y018730D01*
X018778Y018772D01*
X018758Y018816D01*
X018740Y018861D01*
X018727Y018907D01*
X018717Y018954D01*
X018711Y019002D01*
X018709Y019050D01*
X018709Y001800D02*
X018711Y001848D01*
X018717Y001896D01*
X018727Y001943D01*
X018740Y001989D01*
X018758Y002034D01*
X018778Y002078D01*
X018803Y002120D01*
X018831Y002159D01*
X018861Y002196D01*
X018895Y002230D01*
X018932Y002262D01*
X018970Y002291D01*
X019011Y002316D01*
X019054Y002338D01*
X019099Y002356D01*
X019145Y002370D01*
X019192Y002381D01*
X019240Y002388D01*
X019288Y002391D01*
X019336Y002390D01*
X019384Y002385D01*
X019432Y002376D01*
X019478Y002364D01*
X019523Y002347D01*
X019567Y002327D01*
X019609Y002304D01*
X019649Y002277D01*
X019687Y002247D01*
X019722Y002214D01*
X019754Y002178D01*
X019784Y002140D01*
X019810Y002099D01*
X019832Y002056D01*
X019852Y002012D01*
X019867Y001967D01*
X019879Y001920D01*
X019887Y001872D01*
X019891Y001824D01*
X019891Y001776D01*
X019887Y001728D01*
X019879Y001680D01*
X019867Y001633D01*
X019852Y001588D01*
X019832Y001544D01*
X019810Y001501D01*
X019784Y001460D01*
X019754Y001422D01*
X019722Y001386D01*
X019687Y001353D01*
X019649Y001323D01*
X019609Y001296D01*
X019567Y001273D01*
X019523Y001253D01*
X019478Y001236D01*
X019432Y001224D01*
X019384Y001215D01*
X019336Y001210D01*
X019288Y001209D01*
X019240Y001212D01*
X019192Y001219D01*
X019145Y001230D01*
X019099Y001244D01*
X019054Y001262D01*
X019011Y001284D01*
X018970Y001309D01*
X018932Y001338D01*
X018895Y001370D01*
X018861Y001404D01*
X018831Y001441D01*
X018803Y001480D01*
X018778Y001522D01*
X018758Y001566D01*
X018740Y001611D01*
X018727Y001657D01*
X018717Y001704D01*
X018711Y001752D01*
X018709Y001800D01*
D11*
X011044Y006824D03*
X011044Y007020D03*
X011044Y007217D03*
X011044Y007414D03*
X011044Y007611D03*
X011044Y007808D03*
X011044Y008005D03*
X011044Y008202D03*
X011044Y008398D03*
X011044Y008595D03*
X011044Y008792D03*
X011044Y008989D03*
X011044Y009186D03*
X011044Y009383D03*
X011044Y009580D03*
X011044Y009776D03*
X006556Y009776D03*
X006556Y009580D03*
X006556Y009383D03*
X006556Y009186D03*
X006556Y008989D03*
X006556Y008792D03*
X006556Y008595D03*
X006556Y008398D03*
X006556Y008202D03*
X006556Y008005D03*
X006556Y007808D03*
X006556Y007611D03*
X006556Y007414D03*
X006556Y007217D03*
X006556Y007020D03*
X006556Y006824D03*
D12*
X007324Y006056D03*
X007520Y006056D03*
X007717Y006056D03*
X007914Y006056D03*
X008111Y006056D03*
X008308Y006056D03*
X008505Y006056D03*
X008702Y006056D03*
X008898Y006056D03*
X009095Y006056D03*
X009292Y006056D03*
X009489Y006056D03*
X009686Y006056D03*
X009883Y006056D03*
X010080Y006056D03*
X010276Y006056D03*
X010276Y010544D03*
X010080Y010544D03*
X009883Y010544D03*
X009686Y010544D03*
X009489Y010544D03*
X009292Y010544D03*
X009095Y010544D03*
X008898Y010544D03*
X008702Y010544D03*
X008505Y010544D03*
X008308Y010544D03*
X008111Y010544D03*
X007914Y010544D03*
X007717Y010544D03*
X007520Y010544D03*
X007324Y010544D03*
D13*
X007300Y011426D03*
X007300Y012174D03*
X005300Y012174D03*
X005300Y011426D03*
X005300Y010424D03*
X005300Y009676D03*
X005300Y008674D03*
X005300Y007926D03*
X005300Y006674D03*
X005300Y005926D03*
X007550Y005174D03*
X007550Y004426D03*
X010300Y004426D03*
X010300Y005174D03*
X011550Y005426D03*
X011550Y006174D03*
X011550Y004174D03*
X011550Y003426D03*
X014550Y005426D03*
X014550Y006174D03*
X014300Y015176D03*
X014300Y015924D03*
X015300Y015924D03*
X015300Y015176D03*
X011300Y015176D03*
X011300Y015924D03*
X004550Y014674D03*
X004550Y013926D03*
X001300Y013801D03*
X001300Y014549D03*
D14*
X001676Y004300D03*
X002424Y004300D03*
X002424Y003300D03*
X001676Y003300D03*
X001676Y002300D03*
X002424Y002300D03*
X002424Y001300D03*
X001676Y001300D03*
X011926Y009800D03*
X012674Y009800D03*
D15*
X015500Y009800D02*
X016100Y009800D01*
X016100Y008800D02*
X015500Y008800D01*
X015500Y007800D02*
X016100Y007800D01*
X016100Y006800D02*
X015500Y006800D01*
X015500Y005800D02*
X016100Y005800D01*
X016100Y004800D02*
X015500Y004800D01*
X015500Y003800D02*
X016100Y003800D01*
X019000Y003300D02*
X019600Y003300D01*
X019600Y004300D02*
X019000Y004300D01*
X016100Y010800D02*
X015500Y010800D01*
X015500Y011800D02*
X016100Y011800D01*
X017910Y012970D02*
X017910Y013570D01*
X019690Y013570D02*
X019690Y012970D01*
X019690Y015530D02*
X019690Y016130D01*
X017910Y016130D02*
X017910Y015530D01*
X002550Y019000D02*
X002550Y019600D01*
X001550Y019600D02*
X001550Y019000D01*
D16*
X019300Y010550D03*
D17*
X019300Y009050D03*
X019300Y007550D03*
X019300Y006050D03*
D18*
X003800Y006430D03*
X003800Y010170D03*
D19*
X006300Y017800D03*
X006300Y018800D03*
X007300Y018800D03*
X007300Y017800D03*
X008300Y017800D03*
X009300Y017800D03*
X009300Y018800D03*
X008300Y018800D03*
X010300Y018800D03*
X010300Y017800D03*
X011300Y017800D03*
X011300Y018800D03*
X012300Y018800D03*
X012300Y017800D03*
X013300Y017800D03*
X014300Y017800D03*
X014300Y018800D03*
X013300Y018800D03*
X015300Y018800D03*
X015300Y017800D03*
D20*
X013398Y015779D02*
X013423Y015754D01*
X013442Y015725D01*
X013454Y015691D01*
X013457Y015656D01*
X013454Y015621D01*
X013442Y015588D01*
X013423Y015558D01*
X013398Y015533D01*
X013368Y015514D01*
X013335Y015503D01*
X013300Y015499D01*
X013265Y015503D01*
X013232Y015514D01*
X013202Y015533D01*
X013177Y015558D01*
X013158Y015588D01*
X013146Y015621D01*
X013143Y015656D01*
X013146Y015691D01*
X013158Y015725D01*
X013177Y015754D01*
X013202Y015779D01*
X013232Y015798D01*
X013265Y015810D01*
X013300Y015814D01*
X013335Y015810D01*
X013368Y015798D01*
X013398Y015779D01*
X013399Y015779D02*
X013201Y015779D01*
X013162Y015731D02*
X013438Y015731D01*
X013455Y015682D02*
X013145Y015682D01*
X013145Y015634D02*
X013455Y015634D01*
X013440Y015585D02*
X013160Y015585D01*
X013198Y015537D02*
X013402Y015537D01*
X012455Y015634D02*
X012145Y015634D01*
X012146Y015621D02*
X012143Y015656D01*
X012146Y015691D01*
X012158Y015725D01*
X012177Y015754D01*
X012202Y015779D01*
X012232Y015798D01*
X012265Y015810D01*
X012300Y015814D01*
X012335Y015810D01*
X012368Y015798D01*
X012398Y015779D01*
X012423Y015754D01*
X012442Y015725D01*
X012454Y015691D01*
X012457Y015656D01*
X012454Y015621D01*
X012442Y015588D01*
X012423Y015558D01*
X012398Y015533D01*
X012368Y015514D01*
X012335Y015503D01*
X012300Y015499D01*
X012265Y015503D01*
X012232Y015514D01*
X012202Y015533D01*
X012177Y015558D01*
X012158Y015588D01*
X012146Y015621D01*
X012160Y015585D02*
X012440Y015585D01*
X012402Y015537D02*
X012198Y015537D01*
X012145Y015682D02*
X012455Y015682D01*
X012438Y015731D02*
X012162Y015731D01*
X012201Y015779D02*
X012399Y015779D01*
X010457Y015656D02*
X010454Y015621D01*
X010442Y015588D01*
X010423Y015558D01*
X010398Y015533D01*
X010368Y015514D01*
X010335Y015503D01*
X010300Y015499D01*
X010265Y015503D01*
X010232Y015514D01*
X010202Y015533D01*
X010177Y015558D01*
X010158Y015588D01*
X010146Y015621D01*
X010143Y015656D01*
X010146Y015691D01*
X010158Y015725D01*
X010177Y015754D01*
X010202Y015779D01*
X010232Y015798D01*
X010265Y015810D01*
X010300Y015814D01*
X010335Y015810D01*
X010368Y015798D01*
X010398Y015779D01*
X010423Y015754D01*
X010442Y015725D01*
X010454Y015691D01*
X010457Y015656D01*
X010455Y015634D02*
X010145Y015634D01*
X010145Y015682D02*
X010455Y015682D01*
X010438Y015731D02*
X010162Y015731D01*
X010201Y015779D02*
X010399Y015779D01*
X010440Y015585D02*
X010160Y015585D01*
X010198Y015537D02*
X010402Y015537D01*
X009455Y015634D02*
X009145Y015634D01*
X009146Y015621D02*
X009143Y015656D01*
X009146Y015691D01*
X009158Y015725D01*
X009177Y015754D01*
X009202Y015779D01*
X009232Y015798D01*
X009265Y015810D01*
X009300Y015814D01*
X009335Y015810D01*
X009368Y015798D01*
X009398Y015779D01*
X009423Y015754D01*
X009442Y015725D01*
X009454Y015691D01*
X009457Y015656D01*
X009454Y015621D01*
X009442Y015588D01*
X009423Y015558D01*
X009398Y015533D01*
X009368Y015514D01*
X009335Y015503D01*
X009300Y015499D01*
X009265Y015503D01*
X009232Y015514D01*
X009202Y015533D01*
X009177Y015558D01*
X009158Y015588D01*
X009146Y015621D01*
X009160Y015585D02*
X009440Y015585D01*
X009402Y015537D02*
X009198Y015537D01*
X009145Y015682D02*
X009455Y015682D01*
X009438Y015731D02*
X009162Y015731D01*
X009201Y015779D02*
X009399Y015779D01*
X008455Y015682D02*
X008145Y015682D01*
X008146Y015691D02*
X008158Y015725D01*
X008177Y015754D01*
X008202Y015779D01*
X008232Y015798D01*
X008265Y015810D01*
X008300Y015814D01*
X008335Y015810D01*
X008368Y015798D01*
X008398Y015779D01*
X008423Y015754D01*
X008442Y015725D01*
X008454Y015691D01*
X008457Y015656D01*
X008454Y015621D01*
X008442Y015588D01*
X008423Y015558D01*
X008398Y015533D01*
X008368Y015514D01*
X008335Y015503D01*
X008300Y015499D01*
X008265Y015503D01*
X008232Y015514D01*
X008202Y015533D01*
X008177Y015558D01*
X008158Y015588D01*
X008146Y015621D01*
X008143Y015656D01*
X008146Y015691D01*
X008162Y015731D02*
X008438Y015731D01*
X008399Y015779D02*
X008201Y015779D01*
X008145Y015634D02*
X008455Y015634D01*
X008440Y015585D02*
X008160Y015585D01*
X008198Y015537D02*
X008402Y015537D01*
X007455Y015634D02*
X007145Y015634D01*
X007146Y015621D02*
X007143Y015656D01*
X007146Y015691D01*
X007158Y015725D01*
X007177Y015754D01*
X007202Y015779D01*
X007232Y015798D01*
X007265Y015810D01*
X007300Y015814D01*
X007335Y015810D01*
X007368Y015798D01*
X007398Y015779D01*
X007423Y015754D01*
X007442Y015725D01*
X007454Y015691D01*
X007457Y015656D01*
X007454Y015621D01*
X007442Y015588D01*
X007423Y015558D01*
X007398Y015533D01*
X007368Y015514D01*
X007335Y015503D01*
X007300Y015499D01*
X007265Y015503D01*
X007232Y015514D01*
X007202Y015533D01*
X007177Y015558D01*
X007158Y015588D01*
X007146Y015621D01*
X007160Y015585D02*
X007440Y015585D01*
X007402Y015537D02*
X007198Y015537D01*
X007145Y015682D02*
X007455Y015682D01*
X007438Y015731D02*
X007162Y015731D01*
X007201Y015779D02*
X007399Y015779D01*
X008694Y002457D02*
X008729Y002454D01*
X008762Y002442D01*
X008792Y002423D01*
X008817Y002398D01*
X008836Y002368D01*
X008847Y002335D01*
X008851Y002300D01*
X008847Y002265D01*
X008836Y002232D01*
X008817Y002202D01*
X008792Y002177D01*
X008762Y002158D01*
X008729Y002146D01*
X008694Y002143D01*
X008659Y002146D01*
X008625Y002158D01*
X008596Y002177D01*
X008571Y002202D01*
X008552Y002232D01*
X008540Y002265D01*
X008536Y002300D01*
X008540Y002335D01*
X008552Y002368D01*
X008571Y002398D01*
X008596Y002423D01*
X008625Y002442D01*
X008659Y002454D01*
X008694Y002457D01*
X008625Y002442D02*
X008763Y002442D01*
X008820Y002393D02*
X008567Y002393D01*
X008543Y002345D02*
X008844Y002345D01*
X008851Y002296D02*
X008537Y002296D01*
X008546Y002248D02*
X008841Y002248D01*
X008814Y002199D02*
X008573Y002199D01*
X008647Y002151D02*
X008740Y002151D01*
X008694Y001457D02*
X008729Y001454D01*
X008762Y001442D01*
X008792Y001423D01*
X008595Y001423D01*
X008596Y001423D02*
X008625Y001442D01*
X008659Y001454D01*
X008694Y001457D01*
X008792Y001423D02*
X008817Y001398D01*
X008836Y001368D01*
X008847Y001335D01*
X008851Y001300D01*
X008847Y001265D01*
X008836Y001232D01*
X008817Y001202D01*
X008792Y001177D01*
X008762Y001158D01*
X008729Y001146D01*
X008694Y001143D01*
X008659Y001146D01*
X008625Y001158D01*
X008596Y001177D01*
X008571Y001202D01*
X008552Y001232D01*
X008540Y001265D01*
X008536Y001300D01*
X008540Y001335D01*
X008552Y001368D01*
X008571Y001398D01*
X008596Y001423D01*
X008556Y001375D02*
X008832Y001375D01*
X008848Y001326D02*
X008539Y001326D01*
X008539Y001278D02*
X008849Y001278D01*
X008834Y001229D02*
X008553Y001229D01*
X008592Y001181D02*
X008796Y001181D01*
X010249Y001300D02*
X010253Y001265D01*
X010264Y001232D01*
X010283Y001202D01*
X010308Y001177D01*
X010338Y001158D01*
X010371Y001146D01*
X010406Y001143D01*
X010441Y001146D01*
X010475Y001158D01*
X010504Y001177D01*
X010529Y001202D01*
X010548Y001232D01*
X010560Y001265D01*
X010564Y001300D01*
X010560Y001335D01*
X010548Y001368D01*
X010529Y001398D01*
X010504Y001423D01*
X010475Y001442D01*
X010441Y001454D01*
X010406Y001457D01*
X010371Y001454D01*
X010338Y001442D01*
X010308Y001423D01*
X010505Y001423D01*
X010544Y001375D02*
X010268Y001375D01*
X010264Y001368D02*
X010283Y001398D01*
X010308Y001423D01*
X010264Y001368D02*
X010253Y001335D01*
X010249Y001300D01*
X010251Y001278D02*
X010561Y001278D01*
X010561Y001326D02*
X010252Y001326D01*
X010266Y001229D02*
X010547Y001229D01*
X010508Y001181D02*
X010304Y001181D01*
X010406Y002143D02*
X010371Y002146D01*
X010338Y002158D01*
X010308Y002177D01*
X010283Y002202D01*
X010264Y002232D01*
X010253Y002265D01*
X010249Y002300D01*
X010253Y002335D01*
X010264Y002368D01*
X010283Y002398D01*
X010308Y002423D01*
X010338Y002442D01*
X010371Y002454D01*
X010406Y002457D01*
X010441Y002454D01*
X010475Y002442D01*
X010504Y002423D01*
X010529Y002398D01*
X010548Y002368D01*
X010560Y002335D01*
X010564Y002300D01*
X010560Y002265D01*
X010548Y002232D01*
X010529Y002202D01*
X010504Y002177D01*
X010475Y002158D01*
X010441Y002146D01*
X010406Y002143D01*
X010360Y002151D02*
X010453Y002151D01*
X010527Y002199D02*
X010286Y002199D01*
X010259Y002248D02*
X010554Y002248D01*
X010563Y002296D02*
X010249Y002296D01*
X010256Y002345D02*
X010557Y002345D01*
X010533Y002393D02*
X010280Y002393D01*
X010337Y002442D02*
X010475Y002442D01*
D21*
X010249Y002615D02*
X010282Y002630D01*
X010317Y002641D01*
X010353Y002648D01*
X010390Y002652D01*
X010426Y002651D01*
X010463Y002647D01*
X010499Y002640D01*
X010534Y002628D01*
X010567Y002613D01*
X010599Y002595D01*
X010628Y002573D01*
X010656Y002548D01*
X010680Y002521D01*
X010702Y002491D01*
X010720Y002459D01*
X010735Y002426D01*
X010746Y002391D01*
X010754Y002355D01*
X010758Y002318D01*
X010758Y002282D01*
X010754Y002245D01*
X010746Y002209D01*
X010735Y002174D01*
X010720Y002141D01*
X010702Y002109D01*
X010680Y002079D01*
X010656Y002052D01*
X010628Y002027D01*
X010599Y002005D01*
X010567Y001987D01*
X010534Y001972D01*
X010499Y001960D01*
X010463Y001953D01*
X010426Y001949D01*
X010390Y001948D01*
X010353Y001952D01*
X010317Y001959D01*
X010282Y001970D01*
X010249Y001985D01*
X010249Y001615D02*
X010282Y001630D01*
X010317Y001641D01*
X010353Y001648D01*
X010390Y001652D01*
X010426Y001651D01*
X010463Y001647D01*
X010499Y001640D01*
X010534Y001628D01*
X010567Y001613D01*
X010599Y001595D01*
X010628Y001573D01*
X010656Y001548D01*
X010680Y001521D01*
X010702Y001491D01*
X010720Y001459D01*
X010735Y001426D01*
X010746Y001391D01*
X010754Y001355D01*
X010758Y001318D01*
X010758Y001282D01*
X010754Y001245D01*
X010746Y001209D01*
X010735Y001174D01*
X010720Y001141D01*
X010702Y001109D01*
X010680Y001079D01*
X010656Y001052D01*
X010628Y001027D01*
X010599Y001005D01*
X010567Y000987D01*
X010534Y000972D01*
X010499Y000960D01*
X010463Y000953D01*
X010426Y000949D01*
X010390Y000948D01*
X010353Y000952D01*
X010317Y000959D01*
X010282Y000970D01*
X010249Y000985D01*
X008851Y000985D02*
X008818Y000970D01*
X008783Y000959D01*
X008747Y000952D01*
X008710Y000948D01*
X008674Y000949D01*
X008637Y000953D01*
X008601Y000960D01*
X008566Y000972D01*
X008533Y000987D01*
X008501Y001005D01*
X008472Y001027D01*
X008444Y001052D01*
X008420Y001079D01*
X008398Y001109D01*
X008380Y001141D01*
X008365Y001174D01*
X008354Y001209D01*
X008346Y001245D01*
X008342Y001282D01*
X008342Y001318D01*
X008346Y001355D01*
X008354Y001391D01*
X008365Y001426D01*
X008380Y001459D01*
X008398Y001491D01*
X008420Y001521D01*
X008444Y001548D01*
X008472Y001573D01*
X008501Y001595D01*
X008533Y001613D01*
X008566Y001628D01*
X008601Y001640D01*
X008637Y001647D01*
X008674Y001651D01*
X008710Y001652D01*
X008747Y001648D01*
X008783Y001641D01*
X008818Y001630D01*
X008851Y001615D01*
X008851Y001985D02*
X008818Y001970D01*
X008783Y001959D01*
X008747Y001952D01*
X008710Y001948D01*
X008674Y001949D01*
X008637Y001953D01*
X008601Y001960D01*
X008566Y001972D01*
X008533Y001987D01*
X008501Y002005D01*
X008472Y002027D01*
X008444Y002052D01*
X008420Y002079D01*
X008398Y002109D01*
X008380Y002141D01*
X008365Y002174D01*
X008354Y002209D01*
X008346Y002245D01*
X008342Y002282D01*
X008342Y002318D01*
X008346Y002355D01*
X008354Y002391D01*
X008365Y002426D01*
X008380Y002459D01*
X008398Y002491D01*
X008420Y002521D01*
X008444Y002548D01*
X008472Y002573D01*
X008501Y002595D01*
X008533Y002613D01*
X008566Y002628D01*
X008601Y002640D01*
X008637Y002647D01*
X008674Y002651D01*
X008710Y002652D01*
X008747Y002648D01*
X008783Y002641D01*
X008818Y002630D01*
X008851Y002615D01*
X008985Y015499D02*
X008970Y015532D01*
X008959Y015567D01*
X008952Y015603D01*
X008948Y015640D01*
X008949Y015676D01*
X008953Y015713D01*
X008960Y015749D01*
X008972Y015784D01*
X008987Y015817D01*
X009005Y015849D01*
X009027Y015878D01*
X009052Y015906D01*
X009079Y015930D01*
X009109Y015952D01*
X009141Y015970D01*
X009174Y015985D01*
X009209Y015996D01*
X009245Y016004D01*
X009282Y016008D01*
X009318Y016008D01*
X009355Y016004D01*
X009391Y015996D01*
X009426Y015985D01*
X009459Y015970D01*
X009491Y015952D01*
X009521Y015930D01*
X009548Y015906D01*
X009573Y015878D01*
X009595Y015849D01*
X009613Y015817D01*
X009628Y015784D01*
X009640Y015749D01*
X009647Y015713D01*
X009651Y015676D01*
X009652Y015640D01*
X009648Y015603D01*
X009641Y015567D01*
X009630Y015532D01*
X009615Y015499D01*
X009985Y015499D02*
X009970Y015532D01*
X009959Y015567D01*
X009952Y015603D01*
X009948Y015640D01*
X009949Y015676D01*
X009953Y015713D01*
X009960Y015749D01*
X009972Y015784D01*
X009987Y015817D01*
X010005Y015849D01*
X010027Y015878D01*
X010052Y015906D01*
X010079Y015930D01*
X010109Y015952D01*
X010141Y015970D01*
X010174Y015985D01*
X010209Y015996D01*
X010245Y016004D01*
X010282Y016008D01*
X010318Y016008D01*
X010355Y016004D01*
X010391Y015996D01*
X010426Y015985D01*
X010459Y015970D01*
X010491Y015952D01*
X010521Y015930D01*
X010548Y015906D01*
X010573Y015878D01*
X010595Y015849D01*
X010613Y015817D01*
X010628Y015784D01*
X010640Y015749D01*
X010647Y015713D01*
X010651Y015676D01*
X010652Y015640D01*
X010648Y015603D01*
X010641Y015567D01*
X010630Y015532D01*
X010615Y015499D01*
X011985Y015499D02*
X011970Y015532D01*
X011959Y015567D01*
X011952Y015603D01*
X011948Y015640D01*
X011949Y015676D01*
X011953Y015713D01*
X011960Y015749D01*
X011972Y015784D01*
X011987Y015817D01*
X012005Y015849D01*
X012027Y015878D01*
X012052Y015906D01*
X012079Y015930D01*
X012109Y015952D01*
X012141Y015970D01*
X012174Y015985D01*
X012209Y015996D01*
X012245Y016004D01*
X012282Y016008D01*
X012318Y016008D01*
X012355Y016004D01*
X012391Y015996D01*
X012426Y015985D01*
X012459Y015970D01*
X012491Y015952D01*
X012521Y015930D01*
X012548Y015906D01*
X012573Y015878D01*
X012595Y015849D01*
X012613Y015817D01*
X012628Y015784D01*
X012640Y015749D01*
X012647Y015713D01*
X012651Y015676D01*
X012652Y015640D01*
X012648Y015603D01*
X012641Y015567D01*
X012630Y015532D01*
X012615Y015499D01*
X012985Y015499D02*
X012970Y015532D01*
X012959Y015567D01*
X012952Y015603D01*
X012948Y015640D01*
X012949Y015676D01*
X012953Y015713D01*
X012960Y015749D01*
X012972Y015784D01*
X012987Y015817D01*
X013005Y015849D01*
X013027Y015878D01*
X013052Y015906D01*
X013079Y015930D01*
X013109Y015952D01*
X013141Y015970D01*
X013174Y015985D01*
X013209Y015996D01*
X013245Y016004D01*
X013282Y016008D01*
X013318Y016008D01*
X013355Y016004D01*
X013391Y015996D01*
X013426Y015985D01*
X013459Y015970D01*
X013491Y015952D01*
X013521Y015930D01*
X013548Y015906D01*
X013573Y015878D01*
X013595Y015849D01*
X013613Y015817D01*
X013628Y015784D01*
X013640Y015749D01*
X013647Y015713D01*
X013651Y015676D01*
X013652Y015640D01*
X013648Y015603D01*
X013641Y015567D01*
X013630Y015532D01*
X013615Y015499D01*
X008615Y015499D02*
X008630Y015532D01*
X008641Y015567D01*
X008648Y015603D01*
X008652Y015640D01*
X008651Y015676D01*
X008647Y015713D01*
X008640Y015749D01*
X008628Y015784D01*
X008613Y015817D01*
X008595Y015849D01*
X008573Y015878D01*
X008548Y015906D01*
X008521Y015930D01*
X008491Y015952D01*
X008459Y015970D01*
X008426Y015985D01*
X008391Y015996D01*
X008355Y016004D01*
X008318Y016008D01*
X008282Y016008D01*
X008245Y016004D01*
X008209Y015996D01*
X008174Y015985D01*
X008141Y015970D01*
X008109Y015952D01*
X008079Y015930D01*
X008052Y015906D01*
X008027Y015878D01*
X008005Y015849D01*
X007987Y015817D01*
X007972Y015784D01*
X007960Y015749D01*
X007953Y015713D01*
X007949Y015676D01*
X007948Y015640D01*
X007952Y015603D01*
X007959Y015567D01*
X007970Y015532D01*
X007985Y015499D01*
X007615Y015499D02*
X007630Y015532D01*
X007641Y015567D01*
X007648Y015603D01*
X007652Y015640D01*
X007651Y015676D01*
X007647Y015713D01*
X007640Y015749D01*
X007628Y015784D01*
X007613Y015817D01*
X007595Y015849D01*
X007573Y015878D01*
X007548Y015906D01*
X007521Y015930D01*
X007491Y015952D01*
X007459Y015970D01*
X007426Y015985D01*
X007391Y015996D01*
X007355Y016004D01*
X007318Y016008D01*
X007282Y016008D01*
X007245Y016004D01*
X007209Y015996D01*
X007174Y015985D01*
X007141Y015970D01*
X007109Y015952D01*
X007079Y015930D01*
X007052Y015906D01*
X007027Y015878D01*
X007005Y015849D01*
X006987Y015817D01*
X006972Y015784D01*
X006960Y015749D01*
X006953Y015713D01*
X006949Y015676D01*
X006948Y015640D01*
X006952Y015603D01*
X006959Y015567D01*
X006970Y015532D01*
X006985Y015499D01*
D22*
X007300Y015263D03*
X007300Y016247D03*
X008300Y016247D03*
X009300Y016247D03*
X009300Y015263D03*
X008300Y015263D03*
X010300Y015263D03*
X010300Y016247D03*
X012300Y016247D03*
X012300Y015263D03*
X013300Y015263D03*
X013300Y016247D03*
D23*
X013680Y006133D03*
X012420Y006133D03*
X012420Y003967D03*
X013680Y003967D03*
D24*
X003845Y004300D03*
X003255Y004300D03*
X003255Y003300D03*
X003845Y003300D03*
X003845Y002300D03*
X003255Y002300D03*
X003255Y001300D03*
X003845Y001300D03*
D25*
X008103Y001300D03*
X009087Y001300D03*
X010013Y001300D03*
X010997Y001300D03*
X010997Y002300D03*
X010013Y002300D03*
X009087Y002300D03*
X008103Y002300D03*
D26*
X003312Y013926D03*
X003312Y014674D03*
X002288Y014674D03*
X002288Y014300D03*
X002288Y013926D03*
D27*
X001619Y016550D03*
X003981Y016550D03*
D28*
X004800Y016050D02*
X004800Y015300D01*
X004550Y015050D01*
X004050Y015050D01*
X003800Y014800D01*
X004800Y016050D02*
X004800Y017050D01*
X004800Y018050D01*
X004800Y019050D01*
X004800Y019925D01*
X007300Y015263D02*
X007300Y014925D01*
X008300Y014925D02*
X008300Y015263D01*
X009300Y015263D02*
X009300Y014925D01*
X009300Y014550D01*
X009550Y014300D01*
X011300Y014300D01*
X011550Y014050D01*
X012050Y013550D02*
X009925Y013550D01*
X009550Y013175D01*
X008800Y012300D02*
X016800Y012300D01*
X017050Y012050D01*
X017050Y010050D01*
X016800Y009800D01*
X015800Y009800D01*
X016800Y009300D02*
X017050Y009050D01*
X019300Y009050D01*
X020050Y008550D02*
X020050Y010300D01*
X019800Y010550D01*
X019300Y010550D01*
X020050Y008550D02*
X019800Y008300D01*
X012800Y008300D01*
X012505Y008595D01*
X011044Y008595D01*
X011044Y008398D02*
X012202Y008398D01*
X012800Y007800D01*
X015800Y007800D01*
X016800Y009300D02*
X012800Y009300D01*
X012300Y008800D01*
X011052Y008800D01*
X011044Y008792D01*
X011044Y009383D02*
X011467Y009383D01*
X011550Y009300D01*
X011331Y009769D02*
X011238Y009769D01*
X011230Y009776D01*
X011044Y009776D01*
X011044Y009580D02*
X010330Y009580D01*
X010300Y009550D01*
X010276Y010544D02*
X010276Y010776D01*
X010550Y011050D01*
X010080Y011300D02*
X010080Y010544D01*
X009095Y010544D02*
X009095Y011095D01*
X009550Y011550D01*
X008898Y011300D02*
X008898Y010544D01*
X008505Y010544D02*
X008505Y012005D01*
X008800Y012300D01*
X008111Y010544D02*
X008111Y009861D01*
X008050Y009800D01*
X007550Y009800D02*
X007520Y009830D01*
X007520Y010544D01*
X006050Y012050D02*
X005424Y012050D01*
X005300Y012174D01*
X004550Y011300D02*
X004300Y011550D01*
X003050Y011550D01*
X002800Y011300D01*
X002800Y010050D01*
X002800Y008800D01*
X002800Y007550D01*
X002800Y006300D01*
X002800Y005300D01*
X003050Y005050D01*
X004550Y005050D01*
X004800Y005300D01*
X004800Y005800D01*
X005300Y005800D02*
X005300Y005926D01*
X005300Y006674D02*
X005300Y007926D01*
X005967Y007217D02*
X005800Y007050D01*
X005800Y004550D01*
X005550Y004300D01*
X003845Y004300D01*
X003255Y004300D02*
X002424Y004300D01*
X002424Y003300D02*
X003255Y003300D01*
X003845Y003300D02*
X005800Y003300D01*
X006050Y003550D01*
X006050Y006800D01*
X006270Y007020D01*
X006556Y007020D01*
X006556Y006824D02*
X006556Y002556D01*
X006300Y002300D01*
X003845Y002300D01*
X003255Y002300D02*
X002424Y002300D01*
X002424Y001300D02*
X003255Y001300D01*
X003845Y001300D02*
X006550Y001300D01*
X006800Y001550D01*
X006800Y005800D01*
X007056Y006056D01*
X007324Y006056D01*
X007520Y006056D02*
X007520Y006770D01*
X007550Y006800D01*
X007050Y007300D02*
X006936Y007414D01*
X006556Y007414D01*
X006556Y007217D02*
X005967Y007217D01*
X006556Y007611D02*
X007236Y007611D01*
X007300Y007675D01*
X006556Y008595D02*
X006095Y008595D01*
X006050Y008550D01*
X006050Y008300D01*
X006556Y008792D02*
X005418Y008792D01*
X005300Y008674D01*
X005987Y008989D02*
X005300Y009676D01*
X003928Y009676D01*
X003804Y009800D01*
X003804Y009426D01*
X003804Y009800D02*
X003804Y010174D01*
X003800Y010170D01*
X004550Y011050D02*
X004550Y011300D01*
X004550Y011050D02*
X004706Y010894D01*
X005269Y010894D01*
X005300Y010424D02*
X005300Y010300D01*
X005987Y008989D02*
X006556Y008989D01*
X005300Y006674D02*
X003800Y006674D01*
X003800Y006430D01*
X003804Y006426D01*
X007550Y005550D02*
X007550Y005174D01*
X007550Y005550D02*
X007717Y005717D01*
X007717Y006056D01*
X008111Y006056D02*
X008111Y005239D01*
X008175Y005175D01*
X008550Y005425D02*
X008308Y005667D01*
X008308Y006056D01*
X008505Y006056D02*
X008505Y006505D01*
X008675Y006675D01*
X009489Y006056D02*
X009489Y002300D01*
X010013Y002300D01*
X009489Y002300D02*
X009087Y002300D01*
X009550Y001550D02*
X009550Y001300D01*
X009087Y001300D01*
X009550Y001300D02*
X010013Y001300D01*
X011550Y002925D02*
X014425Y002925D01*
X014550Y003050D01*
X014550Y005050D01*
X013680Y006133D02*
X013800Y006253D01*
X013800Y006800D01*
X013383Y007217D01*
X011044Y007217D01*
X011044Y007414D02*
X011925Y007414D01*
X012050Y007539D01*
X011558Y007808D02*
X011044Y007808D01*
X011550Y006800D02*
X011550Y006174D01*
X010080Y006056D02*
X010080Y006770D01*
X010050Y006800D01*
X008550Y005425D02*
X008550Y004800D01*
X008308Y004558D01*
X008308Y003542D01*
X006800Y012800D02*
X013050Y012800D01*
X013300Y013050D01*
X013300Y013300D01*
X017880Y013300D01*
X017910Y013270D01*
X017910Y015830D01*
X013300Y015263D02*
X013300Y013300D01*
X012300Y013800D02*
X012050Y013550D01*
X012300Y013800D02*
X012300Y014925D01*
X012300Y015263D01*
X010300Y015263D02*
X010300Y014925D01*
D29*
X011300Y014800D02*
X011300Y015176D01*
X011300Y015924D02*
X011300Y017800D01*
X010300Y017800D02*
X010300Y016247D01*
X009300Y016247D02*
X009300Y017800D01*
X008300Y017800D02*
X008300Y016247D01*
X007300Y016247D02*
X007300Y017800D01*
X004550Y015050D02*
X004550Y014674D01*
X003312Y014674D02*
X003312Y016550D01*
X003981Y016550D01*
X002550Y016800D02*
X002300Y016550D01*
X002288Y016550D01*
X002288Y014674D01*
X002800Y014674D01*
X002800Y013926D01*
X002288Y013926D01*
X001425Y013926D01*
X001405Y013924D01*
X001386Y013920D01*
X001368Y013912D01*
X001352Y013902D01*
X001337Y013889D01*
X001324Y013874D01*
X001314Y013858D01*
X001306Y013840D01*
X001302Y013821D01*
X001300Y013801D01*
X001549Y014300D02*
X001800Y014300D01*
X002288Y014300D01*
X001549Y014300D02*
X001300Y014549D01*
X001619Y016550D02*
X002288Y016550D01*
X002550Y016800D02*
X002550Y019300D01*
X007300Y012425D02*
X007300Y012174D01*
X005300Y011426D02*
X005300Y010925D01*
X005300Y010300D01*
X005300Y005800D02*
X004800Y005800D01*
X007550Y004426D02*
X007550Y004050D01*
X010300Y004050D02*
X010300Y004426D01*
X011550Y004174D02*
X011550Y005426D01*
X012176Y005426D01*
X012550Y005800D01*
X012550Y006003D01*
X012420Y006133D01*
X013800Y006253D02*
X014471Y006253D01*
X014550Y006174D01*
X014550Y005426D02*
X014550Y005050D01*
X011550Y003426D02*
X011550Y002925D01*
X011425Y002300D02*
X010997Y002300D01*
X010997Y001300D02*
X011425Y001300D01*
X012674Y009800D02*
X013050Y009800D01*
X014300Y014800D02*
X014300Y015176D01*
X014300Y015924D02*
X014300Y017800D01*
X013300Y017800D02*
X013300Y016247D01*
X012300Y016247D02*
X012300Y017800D01*
X015300Y017800D02*
X015300Y015924D01*
X015300Y015176D02*
X015300Y014800D01*
X001676Y004300D02*
X001300Y004300D01*
X001300Y003300D02*
X001676Y003300D01*
X001676Y002300D02*
X001300Y002300D01*
X001300Y001300D02*
X001676Y001300D01*
D30*
X001300Y001300D03*
X001300Y002300D03*
X001300Y003300D03*
X001300Y004300D03*
X002800Y005300D03*
X003050Y005050D03*
X002800Y006300D03*
X002800Y007550D03*
X002800Y008800D03*
X002800Y010050D03*
X002800Y011300D03*
X003050Y011550D03*
X004300Y011550D03*
X004550Y011300D03*
X005300Y010925D03*
X006050Y012050D03*
X006800Y012800D03*
X007300Y012425D03*
X008898Y011300D03*
X009550Y011550D03*
X010080Y011300D03*
X010550Y011050D03*
X010300Y009550D03*
X011550Y009300D03*
X011558Y007808D03*
X012050Y007539D03*
X011550Y006800D03*
X010050Y006800D03*
X008675Y006675D03*
X007550Y006800D03*
X007300Y007675D03*
X006050Y008300D03*
X007550Y009800D03*
X008050Y009800D03*
X009550Y013175D03*
X009300Y014925D03*
X008300Y014925D03*
X007300Y014925D03*
X004800Y016050D03*
X004800Y017050D03*
X004800Y018050D03*
X004800Y019050D03*
X004800Y019925D03*
X004550Y015050D03*
X003800Y014800D03*
X001800Y014300D03*
X010300Y014925D03*
X011300Y014800D03*
X011550Y014050D03*
X012300Y014925D03*
X014300Y014800D03*
X015300Y014800D03*
X013050Y009800D03*
X014550Y005050D03*
X011550Y002925D03*
X011425Y002300D03*
X011425Y001300D03*
X009550Y001550D03*
X008308Y003542D03*
X007550Y004050D03*
X008175Y005175D03*
X010300Y004050D03*
X004800Y005300D03*
X004550Y005050D03*
X004800Y005800D03*
D31*
X005011Y005511D02*
X005591Y005511D01*
X005591Y004636D01*
X005464Y004509D01*
X004161Y004509D01*
X004161Y004523D01*
X004069Y004616D01*
X003622Y004616D01*
X003550Y004544D01*
X003478Y004616D01*
X003031Y004616D01*
X002939Y004523D01*
X002939Y004509D01*
X002839Y004509D01*
X002839Y004661D01*
X002746Y004754D01*
X002102Y004754D01*
X002050Y004702D01*
X001998Y004754D01*
X001354Y004754D01*
X001261Y004661D01*
X001261Y004599D01*
X001241Y004599D01*
X001131Y004553D01*
X001047Y004469D01*
X001001Y004359D01*
X001001Y004241D01*
X001047Y004131D01*
X001131Y004047D01*
X001241Y004001D01*
X001261Y004001D01*
X001261Y003939D01*
X001354Y003846D01*
X001998Y003846D01*
X002050Y003898D01*
X002102Y003846D01*
X002746Y003846D01*
X002839Y003939D01*
X002839Y004091D01*
X002939Y004091D01*
X002939Y004077D01*
X003031Y003984D01*
X003478Y003984D01*
X003550Y004056D01*
X003622Y003984D01*
X004069Y003984D01*
X004161Y004077D01*
X004161Y004091D01*
X005636Y004091D01*
X005759Y004214D01*
X005841Y004296D01*
X005841Y003636D01*
X005714Y003509D01*
X004161Y003509D01*
X004161Y003523D01*
X004069Y003616D01*
X003622Y003616D01*
X003550Y003544D01*
X003478Y003616D01*
X003031Y003616D01*
X002939Y003523D01*
X002939Y003509D01*
X002839Y003509D01*
X002839Y003661D01*
X002746Y003754D01*
X002102Y003754D01*
X002050Y003702D01*
X001998Y003754D01*
X001354Y003754D01*
X001261Y003661D01*
X001261Y003599D01*
X001241Y003599D01*
X001131Y003553D01*
X001047Y003469D01*
X001001Y003359D01*
X001001Y003241D01*
X001047Y003131D01*
X001131Y003047D01*
X001241Y003001D01*
X001261Y003001D01*
X001261Y002939D01*
X001354Y002846D01*
X001998Y002846D01*
X002050Y002898D01*
X002102Y002846D01*
X002746Y002846D01*
X002839Y002939D01*
X002839Y003091D01*
X002939Y003091D01*
X002939Y003077D01*
X003031Y002984D01*
X003478Y002984D01*
X003550Y003056D01*
X003622Y002984D01*
X004069Y002984D01*
X004161Y003077D01*
X004161Y003091D01*
X005886Y003091D01*
X006009Y003214D01*
X006259Y003464D01*
X006259Y006606D01*
X006347Y006606D01*
X006347Y002642D01*
X006214Y002509D01*
X004161Y002509D01*
X004161Y002523D01*
X004069Y002616D01*
X003622Y002616D01*
X003550Y002544D01*
X003478Y002616D01*
X003031Y002616D01*
X002939Y002523D01*
X002939Y002509D01*
X002839Y002509D01*
X002839Y002661D01*
X002746Y002754D01*
X002102Y002754D01*
X002050Y002702D01*
X001998Y002754D01*
X001354Y002754D01*
X001261Y002661D01*
X001261Y002599D01*
X001241Y002599D01*
X001131Y002553D01*
X001047Y002469D01*
X001001Y002359D01*
X001001Y002241D01*
X001047Y002131D01*
X001131Y002047D01*
X001241Y002001D01*
X001261Y002001D01*
X001261Y001939D01*
X001354Y001846D01*
X001998Y001846D01*
X002050Y001898D01*
X002102Y001846D01*
X002746Y001846D01*
X002839Y001939D01*
X002839Y002091D01*
X002939Y002091D01*
X002939Y002077D01*
X003031Y001984D01*
X003478Y001984D01*
X003550Y002056D01*
X003622Y001984D01*
X004069Y001984D01*
X004161Y002077D01*
X004161Y002091D01*
X006386Y002091D01*
X006509Y002214D01*
X006591Y002296D01*
X006591Y001636D01*
X006464Y001509D01*
X004161Y001509D01*
X004161Y001523D01*
X004069Y001616D01*
X003622Y001616D01*
X003550Y001544D01*
X003478Y001616D01*
X003031Y001616D01*
X002939Y001523D01*
X002939Y001509D01*
X002839Y001509D01*
X002839Y001661D01*
X002746Y001754D01*
X002102Y001754D01*
X002050Y001702D01*
X001998Y001754D01*
X001354Y001754D01*
X001261Y001661D01*
X001261Y001599D01*
X001241Y001599D01*
X001131Y001553D01*
X001047Y001469D01*
X001001Y001359D01*
X001001Y001241D01*
X001047Y001131D01*
X001131Y001047D01*
X001241Y001001D01*
X001261Y001001D01*
X001261Y000939D01*
X001354Y000846D01*
X001998Y000846D01*
X002050Y000898D01*
X002102Y000846D01*
X002746Y000846D01*
X002839Y000939D01*
X002839Y001091D01*
X002939Y001091D01*
X002939Y001077D01*
X003031Y000984D01*
X003478Y000984D01*
X003550Y001056D01*
X003622Y000984D01*
X004069Y000984D01*
X004161Y001077D01*
X004161Y001091D01*
X006636Y001091D01*
X006759Y001214D01*
X006886Y001341D01*
X006886Y001341D01*
X007009Y001464D01*
X007009Y005714D01*
X007106Y005811D01*
X007106Y005754D01*
X007199Y005661D01*
X007573Y005661D01*
X007589Y005652D01*
X007635Y005640D01*
X007717Y005640D01*
X007717Y005733D01*
X007717Y005733D01*
X007717Y005733D01*
X007717Y005640D01*
X007800Y005640D01*
X007846Y005652D01*
X007861Y005661D01*
X007902Y005661D01*
X007902Y005601D01*
X007869Y005610D01*
X007598Y005610D01*
X007598Y005222D01*
X007502Y005222D01*
X007502Y005126D01*
X007075Y005126D01*
X007075Y004894D01*
X007087Y004849D01*
X007111Y004808D01*
X007133Y004785D01*
X007096Y004748D01*
X007096Y004104D01*
X007189Y004011D01*
X007251Y004011D01*
X007251Y003991D01*
X007297Y003881D01*
X007381Y003797D01*
X007491Y003751D01*
X007609Y003751D01*
X007719Y003797D01*
X007803Y003881D01*
X007849Y003991D01*
X007849Y004011D01*
X007911Y004011D01*
X008004Y004104D01*
X008004Y004748D01*
X007967Y004785D01*
X007989Y004808D01*
X008013Y004849D01*
X008025Y004894D01*
X008025Y004914D01*
X008116Y004876D01*
X008234Y004876D01*
X008341Y004921D01*
X008341Y004886D01*
X008221Y004767D01*
X008099Y004644D01*
X008099Y003756D01*
X008055Y003711D01*
X008009Y003602D01*
X008009Y003483D01*
X008055Y003373D01*
X008139Y003289D01*
X008248Y003243D01*
X008367Y003243D01*
X008477Y003289D01*
X008561Y003373D01*
X008607Y003483D01*
X008607Y003602D01*
X008561Y003711D01*
X008517Y003756D01*
X008517Y004471D01*
X008759Y004714D01*
X008759Y005511D01*
X008636Y005634D01*
X008609Y005661D01*
X009280Y005661D01*
X009280Y002597D01*
X009107Y002597D01*
X009108Y002597D02*
X009045Y002783D01*
X008957Y002827D01*
X008836Y002888D01*
X008565Y002891D01*
X008320Y002775D01*
X008320Y002775D01*
X008149Y002564D01*
X008089Y002300D01*
X008149Y002036D01*
X008149Y002036D01*
X008320Y001825D01*
X008372Y001800D01*
X008320Y001775D01*
X008320Y001775D01*
X008149Y001564D01*
X008089Y001300D01*
X008149Y001036D01*
X008149Y001036D01*
X008320Y000825D01*
X008520Y000730D01*
X000980Y000730D01*
X000980Y013386D01*
X001661Y013386D01*
X001754Y013479D01*
X001754Y013667D01*
X001978Y013667D01*
X001986Y013659D01*
X002590Y013659D01*
X002598Y013667D01*
X002851Y013667D01*
X002936Y013702D01*
X002965Y013674D01*
X003006Y013650D01*
X003052Y013638D01*
X003312Y013638D01*
X003572Y013638D01*
X003618Y013650D01*
X003659Y013674D01*
X003692Y013707D01*
X003716Y013748D01*
X003728Y013794D01*
X003728Y013926D01*
X003728Y014058D01*
X003716Y014104D01*
X003692Y014145D01*
X003659Y014178D01*
X003618Y014202D01*
X003572Y014214D01*
X003312Y014214D01*
X003312Y013926D01*
X003728Y013926D01*
X003312Y013926D01*
X003312Y013926D01*
X003312Y013926D01*
X003312Y013638D01*
X003312Y013926D01*
X003312Y013926D01*
X003312Y014214D01*
X003059Y014214D01*
X003059Y014407D01*
X003614Y014407D01*
X003707Y014500D01*
X003707Y014515D01*
X003741Y014501D01*
X003859Y014501D01*
X003969Y014547D01*
X004053Y014631D01*
X004096Y014734D01*
X004096Y014352D01*
X004133Y014315D01*
X004111Y014292D01*
X004087Y014251D01*
X004075Y014206D01*
X004075Y013974D01*
X004502Y013974D01*
X004502Y013878D01*
X004075Y013878D01*
X004075Y013646D01*
X004087Y013601D01*
X004111Y013560D01*
X004144Y013526D01*
X004185Y013502D01*
X004231Y013490D01*
X004502Y013490D01*
X004502Y013878D01*
X004598Y013878D01*
X004598Y013974D01*
X005025Y013974D01*
X005025Y014206D01*
X005013Y014251D01*
X004989Y014292D01*
X004967Y014315D01*
X005004Y014352D01*
X005004Y014996D01*
X004911Y015089D01*
X004884Y015089D01*
X005009Y015214D01*
X005009Y015836D01*
X005053Y015881D01*
X005099Y015991D01*
X005099Y016109D01*
X005053Y016219D01*
X005009Y016264D01*
X005009Y016836D01*
X005053Y016881D01*
X005099Y016991D01*
X005099Y017109D01*
X005053Y017219D01*
X005009Y017264D01*
X005009Y017836D01*
X005053Y017881D01*
X005099Y017991D01*
X005099Y018109D01*
X005053Y018219D01*
X005009Y018264D01*
X005009Y018836D01*
X005053Y018881D01*
X005099Y018991D01*
X005099Y019109D01*
X005053Y019219D01*
X005009Y019264D01*
X005009Y019711D01*
X005053Y019756D01*
X005099Y019866D01*
X005099Y019984D01*
X005069Y020055D01*
X020305Y020055D01*
X020305Y000730D01*
X010580Y000730D01*
X010780Y000825D01*
X010780Y000825D01*
X010925Y001003D01*
X011358Y001003D01*
X011359Y001004D01*
X011366Y001001D01*
X011484Y001001D01*
X011594Y001047D01*
X011678Y001131D01*
X011724Y001241D01*
X011724Y001359D01*
X011678Y001469D01*
X011594Y001553D01*
X011484Y001599D01*
X011366Y001599D01*
X011359Y001596D01*
X011358Y001597D01*
X010925Y001597D01*
X010780Y001775D01*
X010780Y001775D01*
X010728Y001800D01*
X010780Y001825D01*
X010780Y001825D01*
X010925Y002003D01*
X011358Y002003D01*
X011359Y002004D01*
X011366Y002001D01*
X011484Y002001D01*
X011594Y002047D01*
X011678Y002131D01*
X011724Y002241D01*
X011724Y002359D01*
X011678Y002469D01*
X011594Y002553D01*
X011484Y002599D01*
X011366Y002599D01*
X011359Y002596D01*
X011358Y002597D01*
X010925Y002597D01*
X010780Y002775D01*
X010780Y002775D01*
X010535Y002891D01*
X010264Y002888D01*
X010264Y002888D01*
X010143Y002827D01*
X010055Y002783D01*
X009992Y002597D01*
X009993Y002597D01*
X009698Y002597D01*
X009698Y005661D01*
X010132Y005661D01*
X010148Y005652D01*
X010194Y005640D01*
X010276Y005640D01*
X010276Y005733D01*
X010276Y005733D01*
X010276Y005640D01*
X010359Y005640D01*
X010405Y005652D01*
X010446Y005676D01*
X010479Y005709D01*
X010503Y005750D01*
X010515Y005796D01*
X010515Y006056D01*
X010515Y006316D01*
X010503Y006362D01*
X010479Y006403D01*
X010446Y006436D01*
X010405Y006460D01*
X010359Y006472D01*
X010288Y006472D01*
X010288Y006616D01*
X010303Y006631D01*
X010349Y006741D01*
X010349Y006859D01*
X010303Y006969D01*
X010219Y007053D01*
X010109Y007099D01*
X009991Y007099D01*
X009881Y007053D01*
X009797Y006969D01*
X009751Y006859D01*
X009751Y006741D01*
X009797Y006631D01*
X009871Y006557D01*
X009871Y006451D01*
X008873Y006451D01*
X008928Y006506D01*
X008974Y006616D01*
X008974Y006734D01*
X008928Y006844D01*
X008844Y006928D01*
X008734Y006974D01*
X008616Y006974D01*
X008506Y006928D01*
X008422Y006844D01*
X008376Y006734D01*
X008376Y006671D01*
X008296Y006591D01*
X008296Y006451D01*
X007861Y006451D01*
X007846Y006460D01*
X007800Y006472D01*
X007729Y006472D01*
X007729Y006557D01*
X007803Y006631D01*
X007849Y006741D01*
X007849Y006859D01*
X007803Y006969D01*
X007719Y007053D01*
X007609Y007099D01*
X007491Y007099D01*
X007381Y007053D01*
X007297Y006969D01*
X007251Y006859D01*
X007251Y006741D01*
X007297Y006631D01*
X007312Y006616D01*
X007312Y006451D01*
X007199Y006451D01*
X007106Y006358D01*
X007106Y006265D01*
X006969Y006265D01*
X006765Y006060D01*
X006765Y006606D01*
X006858Y006606D01*
X006951Y006699D01*
X006951Y007270D01*
X006960Y007286D01*
X006972Y007331D01*
X006972Y007402D01*
X007178Y007402D01*
X007241Y007376D01*
X007359Y007376D01*
X007469Y007422D01*
X007553Y007506D01*
X007599Y007616D01*
X007599Y007734D01*
X007553Y007844D01*
X007469Y007928D01*
X007359Y007974D01*
X007241Y007974D01*
X007131Y007928D01*
X007047Y007844D01*
X007037Y007820D01*
X006951Y007820D01*
X006951Y009632D01*
X006960Y009648D01*
X006972Y009694D01*
X006972Y009776D01*
X006879Y009776D01*
X006879Y009776D01*
X006972Y009776D01*
X006972Y009859D01*
X006960Y009905D01*
X006936Y009946D01*
X006903Y009979D01*
X006862Y010003D01*
X006816Y010015D01*
X006556Y010015D01*
X006556Y009797D01*
X006556Y009797D01*
X006556Y010015D01*
X006296Y010015D01*
X006250Y010003D01*
X006209Y009979D01*
X006176Y009946D01*
X006152Y009905D01*
X006140Y009859D01*
X006140Y009776D01*
X006140Y009694D01*
X006152Y009648D01*
X006161Y009632D01*
X006161Y009198D01*
X006073Y009198D01*
X005754Y009517D01*
X005754Y009998D01*
X005702Y010050D01*
X005754Y010102D01*
X005754Y010746D01*
X005661Y010839D01*
X005588Y010839D01*
X005599Y010866D01*
X005599Y010984D01*
X005588Y011011D01*
X006920Y011011D01*
X006935Y011002D02*
X006981Y010990D01*
X007252Y010990D01*
X007252Y011378D01*
X006825Y011378D01*
X006825Y011146D01*
X006837Y011101D01*
X006861Y011060D01*
X006894Y011026D01*
X006935Y011002D01*
X006825Y011170D02*
X005754Y011170D01*
X005754Y011104D02*
X005754Y011748D01*
X005702Y011800D01*
X005743Y011841D01*
X005836Y011841D01*
X005881Y011797D01*
X005991Y011751D01*
X006109Y011751D01*
X006219Y011797D01*
X006303Y011881D01*
X006349Y011991D01*
X006349Y012109D01*
X006303Y012219D01*
X006219Y012303D01*
X006109Y012349D01*
X005991Y012349D01*
X005881Y012303D01*
X005836Y012259D01*
X005754Y012259D01*
X005754Y012496D01*
X005661Y012589D01*
X004939Y012589D01*
X004846Y012496D01*
X004846Y011852D01*
X004898Y011800D01*
X004846Y011748D01*
X004846Y011366D01*
X004803Y011469D01*
X004719Y011553D01*
X004609Y011599D01*
X004599Y011599D01*
X004599Y011609D01*
X004553Y011719D01*
X004469Y011803D01*
X004359Y011849D01*
X004241Y011849D01*
X004131Y011803D01*
X004086Y011759D01*
X003264Y011759D01*
X003219Y011803D01*
X003109Y011849D01*
X002991Y011849D01*
X002881Y011803D01*
X002797Y011719D01*
X002751Y011609D01*
X002751Y011599D01*
X002741Y011599D01*
X002631Y011553D01*
X002547Y011469D01*
X002501Y011359D01*
X002501Y011241D01*
X002547Y011131D01*
X002591Y011086D01*
X002591Y010264D01*
X002547Y010219D01*
X002501Y010109D01*
X002501Y009991D01*
X002547Y009881D01*
X002591Y009836D01*
X002591Y009014D01*
X002547Y008969D01*
X002501Y008859D01*
X002501Y008741D01*
X002547Y008631D01*
X002591Y008586D01*
X002591Y007764D01*
X002547Y007719D01*
X002501Y007609D01*
X002501Y007491D01*
X002547Y007381D01*
X002591Y007336D01*
X002591Y006514D01*
X002547Y006469D01*
X002501Y006359D01*
X002501Y006241D01*
X002547Y006131D01*
X002591Y006086D01*
X002591Y005514D01*
X002547Y005469D01*
X002501Y005359D01*
X002501Y005241D01*
X002547Y005131D01*
X002631Y005047D01*
X002741Y005001D01*
X002751Y005001D01*
X002751Y004991D01*
X002797Y004881D01*
X002881Y004797D01*
X002991Y004751D01*
X003109Y004751D01*
X003219Y004797D01*
X003264Y004841D01*
X004336Y004841D01*
X004381Y004797D01*
X004491Y004751D01*
X004609Y004751D01*
X004719Y004797D01*
X004803Y004881D01*
X004849Y004991D01*
X004849Y005001D01*
X004859Y005001D01*
X004969Y005047D01*
X005053Y005131D01*
X005099Y005241D01*
X005099Y005359D01*
X005053Y005469D01*
X005011Y005511D01*
X005056Y005464D02*
X005591Y005464D01*
X005591Y005305D02*
X005099Y005305D01*
X005060Y005147D02*
X005591Y005147D01*
X005591Y004988D02*
X004848Y004988D01*
X004752Y004830D02*
X005591Y004830D01*
X005591Y004671D02*
X002829Y004671D01*
X002839Y004513D02*
X002939Y004513D01*
X002848Y004830D02*
X000980Y004830D01*
X000980Y004988D02*
X002752Y004988D01*
X002540Y005147D02*
X000980Y005147D01*
X000980Y005305D02*
X002501Y005305D01*
X002544Y005464D02*
X000980Y005464D01*
X000980Y005622D02*
X002591Y005622D01*
X002591Y005781D02*
X000980Y005781D01*
X000980Y005939D02*
X002591Y005939D01*
X002580Y006098D02*
X000980Y006098D01*
X000980Y006256D02*
X002501Y006256D01*
X002524Y006415D02*
X000980Y006415D01*
X000980Y006573D02*
X002591Y006573D01*
X002591Y006732D02*
X000980Y006732D01*
X000980Y006890D02*
X002591Y006890D01*
X002591Y007049D02*
X000980Y007049D01*
X000980Y007207D02*
X002591Y007207D01*
X002562Y007366D02*
X000980Y007366D01*
X000980Y007524D02*
X002501Y007524D01*
X002532Y007683D02*
X000980Y007683D01*
X000980Y007841D02*
X002591Y007841D01*
X002591Y008000D02*
X000980Y008000D01*
X000980Y008158D02*
X002591Y008158D01*
X002591Y008317D02*
X000980Y008317D01*
X000980Y008475D02*
X002591Y008475D01*
X002546Y008634D02*
X000980Y008634D01*
X000980Y008792D02*
X002501Y008792D01*
X002539Y008951D02*
X000980Y008951D01*
X000980Y009109D02*
X002591Y009109D01*
X002591Y009268D02*
X000980Y009268D01*
X000980Y009426D02*
X002591Y009426D01*
X002591Y009585D02*
X000980Y009585D01*
X000980Y009743D02*
X002591Y009743D01*
X002538Y009902D02*
X002241Y009902D01*
X002236Y009897D02*
X002453Y010114D01*
X002571Y010397D01*
X002571Y010703D01*
X002453Y010986D01*
X002236Y011203D01*
X001953Y011321D01*
X001647Y011321D01*
X001364Y011203D01*
X001147Y010986D01*
X001029Y010703D01*
X001029Y010397D01*
X001147Y010114D01*
X001364Y009897D01*
X001647Y009779D01*
X001953Y009779D01*
X002236Y009897D01*
X002400Y010060D02*
X002501Y010060D01*
X002497Y010219D02*
X002546Y010219D01*
X002562Y010377D02*
X002591Y010377D01*
X002591Y010536D02*
X002571Y010536D01*
X002571Y010694D02*
X002591Y010694D01*
X002591Y010853D02*
X002509Y010853D01*
X002429Y011011D02*
X002591Y011011D01*
X002531Y011170D02*
X002270Y011170D01*
X002501Y011328D02*
X000980Y011328D01*
X000980Y011170D02*
X001330Y011170D01*
X001171Y011011D02*
X000980Y011011D01*
X000980Y010853D02*
X001091Y010853D01*
X001029Y010694D02*
X000980Y010694D01*
X000980Y010536D02*
X001029Y010536D01*
X001038Y010377D02*
X000980Y010377D01*
X000980Y010219D02*
X001103Y010219D01*
X001200Y010060D02*
X000980Y010060D01*
X000980Y009902D02*
X001359Y009902D01*
X000980Y011487D02*
X002564Y011487D01*
X002766Y011645D02*
X000980Y011645D01*
X000980Y011804D02*
X002881Y011804D01*
X003219Y011804D02*
X004131Y011804D01*
X004469Y011804D02*
X004895Y011804D01*
X004846Y011962D02*
X000980Y011962D01*
X000980Y012121D02*
X004846Y012121D01*
X004846Y012279D02*
X000980Y012279D01*
X000980Y012438D02*
X004846Y012438D01*
X004846Y011645D02*
X004584Y011645D01*
X004786Y011487D02*
X004846Y011487D01*
X005588Y011011D02*
X005661Y011011D01*
X005754Y011104D01*
X005754Y011328D02*
X006825Y011328D01*
X006825Y011474D02*
X007252Y011474D01*
X007252Y011378D01*
X007348Y011378D01*
X007348Y011474D01*
X007775Y011474D01*
X007775Y011706D01*
X007763Y011751D01*
X007739Y011792D01*
X007717Y011815D01*
X007754Y011852D01*
X007754Y012496D01*
X007661Y012589D01*
X007556Y012589D01*
X007554Y012591D01*
X013136Y012591D01*
X013259Y012714D01*
X013509Y012964D01*
X013509Y013091D01*
X017451Y013091D01*
X017451Y012879D01*
X017521Y012710D01*
X017650Y012581D01*
X017819Y012511D01*
X018001Y012511D01*
X018170Y012581D01*
X018299Y012710D01*
X018369Y012879D01*
X018369Y013661D01*
X018299Y013830D01*
X018170Y013959D01*
X018119Y013980D01*
X018119Y015120D01*
X018170Y015141D01*
X018299Y015270D01*
X018369Y015439D01*
X018369Y016221D01*
X018299Y016390D01*
X018170Y016519D01*
X018001Y016589D01*
X017819Y016589D01*
X017650Y016519D01*
X017521Y016390D01*
X017451Y016221D01*
X017451Y015439D01*
X017521Y015270D01*
X017650Y015141D01*
X017701Y015120D01*
X017701Y013980D01*
X017650Y013959D01*
X017521Y013830D01*
X017451Y013661D01*
X017451Y013509D01*
X013509Y013509D01*
X013509Y014814D01*
X013597Y014902D01*
X013597Y015243D01*
X013597Y015242D02*
X013783Y015305D01*
X013827Y015393D01*
X013846Y015430D01*
X013846Y014854D01*
X013939Y014761D01*
X014001Y014761D01*
X014001Y014741D01*
X014047Y014631D01*
X014131Y014547D01*
X014241Y014501D01*
X014359Y014501D01*
X014469Y014547D01*
X014553Y014631D01*
X014599Y014741D01*
X014599Y014761D01*
X014661Y014761D01*
X014754Y014854D01*
X014754Y015498D01*
X014702Y015550D01*
X014754Y015602D01*
X014754Y016246D01*
X014661Y016339D01*
X014559Y016339D01*
X014559Y017438D01*
X014739Y017618D01*
X014739Y017982D01*
X014482Y018239D01*
X014118Y018239D01*
X013861Y017982D01*
X013861Y017618D01*
X014041Y017438D01*
X014041Y016339D01*
X013939Y016339D01*
X013846Y016246D01*
X013846Y015881D01*
X013775Y016030D01*
X013597Y016175D01*
X013597Y016608D01*
X013559Y016646D01*
X013559Y017438D01*
X013739Y017618D01*
X013739Y017982D01*
X013482Y018239D01*
X013118Y018239D01*
X012861Y017982D01*
X012861Y017618D01*
X013041Y017438D01*
X013041Y016646D01*
X013003Y016608D01*
X013003Y016175D01*
X012825Y016030D01*
X012825Y016030D01*
X012800Y015978D01*
X012775Y016030D01*
X012597Y016175D01*
X012597Y016608D01*
X012559Y016646D01*
X012559Y017438D01*
X012739Y017618D01*
X012739Y017982D01*
X012482Y018239D01*
X012118Y018239D01*
X011861Y017982D01*
X011861Y017618D01*
X012041Y017438D01*
X012041Y016646D01*
X012003Y016608D01*
X012003Y016175D01*
X011825Y016030D01*
X011754Y015881D01*
X011754Y016246D01*
X011661Y016339D01*
X011559Y016339D01*
X011559Y017438D01*
X011739Y017618D01*
X011739Y017982D01*
X011482Y018239D01*
X011118Y018239D01*
X010861Y017982D01*
X010861Y017618D01*
X011041Y017438D01*
X011041Y016339D01*
X010939Y016339D01*
X010846Y016246D01*
X010846Y015881D01*
X010775Y016030D01*
X010597Y016175D01*
X010597Y016608D01*
X010559Y016646D01*
X010559Y017438D01*
X010739Y017618D01*
X010739Y017982D01*
X010482Y018239D01*
X010118Y018239D01*
X009861Y017982D01*
X009861Y017618D01*
X010041Y017438D01*
X010041Y016646D01*
X010003Y016608D01*
X010003Y016175D01*
X009825Y016030D01*
X009800Y015978D01*
X009775Y016030D01*
X009597Y016175D01*
X009597Y016608D01*
X009559Y016646D01*
X009559Y017438D01*
X009739Y017618D01*
X009739Y017982D01*
X009482Y018239D01*
X009118Y018239D01*
X008861Y017982D01*
X008861Y017618D01*
X009041Y017438D01*
X009041Y016646D01*
X009003Y016608D01*
X009003Y016175D01*
X008825Y016030D01*
X008800Y015978D01*
X008775Y016030D01*
X008597Y016175D01*
X008597Y016608D01*
X008559Y016646D01*
X008559Y017438D01*
X008739Y017618D01*
X008739Y017982D01*
X008482Y018239D01*
X008118Y018239D01*
X007861Y017982D01*
X007861Y017618D01*
X008041Y017438D01*
X008041Y016646D01*
X008003Y016608D01*
X008003Y016175D01*
X007825Y016030D01*
X007800Y015978D01*
X007775Y016030D01*
X007597Y016175D01*
X007597Y016608D01*
X007559Y016646D01*
X007559Y017438D01*
X007739Y017618D01*
X007739Y017982D01*
X007482Y018239D01*
X007118Y018239D01*
X006861Y017982D01*
X006861Y017618D01*
X007041Y017438D01*
X007041Y016646D01*
X007003Y016608D01*
X007003Y016175D01*
X006825Y016030D01*
X006709Y015785D01*
X006712Y015514D01*
X006712Y015514D01*
X006773Y015393D01*
X006817Y015305D01*
X007003Y015242D01*
X007003Y015243D01*
X007003Y014990D01*
X007001Y014984D01*
X007001Y014866D01*
X007047Y014756D01*
X007131Y014672D01*
X007241Y014626D01*
X007359Y014626D01*
X007469Y014672D01*
X007553Y014756D01*
X007599Y014866D01*
X007599Y014984D01*
X007597Y014990D01*
X007597Y015243D01*
X007597Y015242D02*
X007783Y015305D01*
X007800Y015338D01*
X007817Y015305D01*
X008003Y015242D01*
X008003Y015243D01*
X008003Y014990D01*
X008001Y014984D01*
X008001Y014866D01*
X008047Y014756D01*
X008131Y014672D01*
X008241Y014626D01*
X008359Y014626D01*
X008469Y014672D01*
X008553Y014756D01*
X008599Y014866D01*
X008599Y014984D01*
X008597Y014990D01*
X008597Y015243D01*
X008597Y015242D02*
X008783Y015305D01*
X008800Y015338D01*
X008817Y015305D01*
X009003Y015242D01*
X009003Y015243D01*
X009003Y014990D01*
X009001Y014984D01*
X009001Y014866D01*
X009047Y014756D01*
X009091Y014711D01*
X009091Y014464D01*
X009214Y014341D01*
X009464Y014091D01*
X011214Y014091D01*
X011251Y014054D01*
X011251Y013991D01*
X011297Y013881D01*
X011381Y013797D01*
X011473Y013759D01*
X009839Y013759D01*
X009716Y013636D01*
X009554Y013474D01*
X009491Y013474D01*
X009381Y013428D01*
X009297Y013344D01*
X009251Y013234D01*
X009251Y013116D01*
X009296Y013009D01*
X007014Y013009D01*
X006969Y013053D01*
X006859Y013099D01*
X006741Y013099D01*
X006631Y013053D01*
X006547Y012969D01*
X006501Y012859D01*
X006501Y012741D01*
X006547Y012631D01*
X006631Y012547D01*
X006741Y012501D01*
X006852Y012501D01*
X006846Y012496D01*
X006846Y011852D01*
X006883Y011815D01*
X006861Y011792D01*
X006837Y011751D01*
X006825Y011706D01*
X006825Y011474D01*
X006825Y011487D02*
X005754Y011487D01*
X005754Y011645D02*
X006825Y011645D01*
X006872Y011804D02*
X006226Y011804D01*
X006337Y011962D02*
X006846Y011962D01*
X006846Y012121D02*
X006344Y012121D01*
X006243Y012279D02*
X006846Y012279D01*
X006846Y012438D02*
X005754Y012438D01*
X005754Y012279D02*
X005857Y012279D01*
X005874Y011804D02*
X005705Y011804D01*
X006581Y012596D02*
X000980Y012596D01*
X000980Y012755D02*
X006501Y012755D01*
X006523Y012913D02*
X000980Y012913D01*
X000980Y013072D02*
X006675Y013072D01*
X006925Y013072D02*
X009270Y013072D01*
X009251Y013230D02*
X000980Y013230D01*
X001663Y013389D02*
X009341Y013389D01*
X009627Y013547D02*
X004977Y013547D01*
X004989Y013560D02*
X005013Y013601D01*
X005025Y013646D01*
X005025Y013878D01*
X004598Y013878D01*
X004598Y013490D01*
X004869Y013490D01*
X004915Y013502D01*
X004956Y013526D01*
X004989Y013560D01*
X005025Y013706D02*
X009785Y013706D01*
X009374Y014181D02*
X005025Y014181D01*
X005025Y014023D02*
X011251Y014023D01*
X011313Y013864D02*
X005025Y013864D01*
X004598Y013864D02*
X004502Y013864D01*
X004502Y013706D02*
X004598Y013706D01*
X004598Y013547D02*
X004502Y013547D01*
X004123Y013547D02*
X001754Y013547D01*
X003059Y014340D02*
X004109Y014340D01*
X004096Y014498D02*
X003705Y014498D01*
X003654Y014181D02*
X004075Y014181D01*
X004075Y014023D02*
X003728Y014023D01*
X003728Y013864D02*
X004075Y013864D01*
X004075Y013706D02*
X003690Y013706D01*
X003312Y013706D02*
X003312Y013706D01*
X003312Y013864D02*
X003312Y013864D01*
X003312Y014023D02*
X003312Y014023D01*
X003312Y014181D02*
X003312Y014181D01*
X004064Y014657D02*
X004096Y014657D01*
X004927Y015132D02*
X007003Y015132D01*
X007001Y014974D02*
X005004Y014974D01*
X005004Y014815D02*
X007022Y014815D01*
X007168Y014657D02*
X005004Y014657D01*
X005004Y014498D02*
X009091Y014498D01*
X009091Y014657D02*
X008432Y014657D01*
X008578Y014815D02*
X009022Y014815D01*
X009001Y014974D02*
X008599Y014974D01*
X008597Y015132D02*
X009003Y015132D01*
X008859Y015291D02*
X008741Y015291D01*
X008597Y015243D02*
X008597Y015242D01*
X008003Y015132D02*
X007597Y015132D01*
X007597Y015242D02*
X007597Y015243D01*
X007741Y015291D02*
X007859Y015291D01*
X008001Y014974D02*
X007599Y014974D01*
X007578Y014815D02*
X008022Y014815D01*
X008168Y014657D02*
X007432Y014657D01*
X006859Y015291D02*
X005009Y015291D01*
X005009Y015449D02*
X006744Y015449D01*
X006711Y015608D02*
X005009Y015608D01*
X005009Y015766D02*
X006709Y015766D01*
X006709Y015785D02*
X006709Y015785D01*
X006775Y015925D02*
X005071Y015925D01*
X005099Y016083D02*
X006890Y016083D01*
X006825Y016030D02*
X006825Y016030D01*
X006825Y016030D01*
X007003Y016242D02*
X005031Y016242D01*
X005009Y016400D02*
X007003Y016400D01*
X007003Y016559D02*
X005009Y016559D01*
X005009Y016717D02*
X007041Y016717D01*
X007041Y016876D02*
X005048Y016876D01*
X005099Y017034D02*
X007041Y017034D01*
X007041Y017193D02*
X005064Y017193D01*
X005009Y017351D02*
X006098Y017351D01*
X006109Y017340D02*
X006290Y017340D01*
X006290Y017790D01*
X006310Y017790D01*
X006310Y017810D01*
X006760Y017810D01*
X006760Y017991D01*
X006491Y018260D01*
X006310Y018260D01*
X006310Y017810D01*
X006290Y017810D01*
X006290Y018260D01*
X006109Y018260D01*
X005840Y017991D01*
X005840Y017810D01*
X006290Y017810D01*
X006290Y017790D01*
X005840Y017790D01*
X005840Y017609D01*
X006109Y017340D01*
X006290Y017351D02*
X006310Y017351D01*
X006310Y017340D02*
X006491Y017340D01*
X006760Y017609D01*
X006760Y017790D01*
X006310Y017790D01*
X006310Y017340D01*
X006310Y017510D02*
X006290Y017510D01*
X006290Y017668D02*
X006310Y017668D01*
X006310Y017827D02*
X006290Y017827D01*
X006290Y017985D02*
X006310Y017985D01*
X006310Y018144D02*
X006290Y018144D01*
X006290Y018340D02*
X006109Y018340D01*
X005840Y018609D01*
X005840Y018790D01*
X006290Y018790D01*
X006310Y018790D01*
X006310Y018810D01*
X006760Y018810D01*
X006760Y018991D01*
X006491Y019260D01*
X006310Y019260D01*
X006310Y018810D01*
X006290Y018810D01*
X006290Y019260D01*
X006109Y019260D01*
X005840Y018991D01*
X005840Y018810D01*
X006290Y018810D01*
X006290Y018790D01*
X006290Y018340D01*
X006310Y018340D02*
X006491Y018340D01*
X006760Y018609D01*
X006760Y018790D01*
X006310Y018790D01*
X006310Y018340D01*
X006310Y018461D02*
X006290Y018461D01*
X006290Y018619D02*
X006310Y018619D01*
X006310Y018778D02*
X006290Y018778D01*
X006290Y018936D02*
X006310Y018936D01*
X006310Y019095D02*
X006290Y019095D01*
X006290Y019253D02*
X006310Y019253D01*
X006498Y019253D02*
X018550Y019253D01*
X018529Y019203D02*
X018529Y018897D01*
X018647Y018614D01*
X018864Y018397D01*
X019147Y018279D01*
X019453Y018279D01*
X019736Y018397D01*
X019953Y018614D01*
X020071Y018897D01*
X020071Y019203D01*
X019953Y019486D01*
X019736Y019703D01*
X019453Y019821D01*
X019147Y019821D01*
X018864Y019703D01*
X018647Y019486D01*
X018529Y019203D01*
X018529Y019095D02*
X015626Y019095D01*
X015739Y018982D02*
X015482Y019239D01*
X015118Y019239D01*
X014861Y018982D01*
X014861Y018618D01*
X015118Y018361D01*
X015482Y018361D01*
X015739Y018618D01*
X015739Y018982D01*
X015739Y018936D02*
X018529Y018936D01*
X018579Y018778D02*
X015739Y018778D01*
X015739Y018619D02*
X018644Y018619D01*
X018800Y018461D02*
X015581Y018461D01*
X015482Y018239D02*
X015118Y018239D01*
X014861Y017982D01*
X014861Y017618D01*
X015041Y017438D01*
X015041Y016339D01*
X014939Y016339D01*
X014846Y016246D01*
X014846Y015602D01*
X014898Y015550D01*
X014846Y015498D01*
X014846Y014854D01*
X014939Y014761D01*
X015001Y014761D01*
X015001Y014741D01*
X015047Y014631D01*
X015131Y014547D01*
X015241Y014501D01*
X015359Y014501D01*
X015469Y014547D01*
X015553Y014631D01*
X015599Y014741D01*
X015599Y014761D01*
X015661Y014761D01*
X015754Y014854D01*
X015754Y015498D01*
X015702Y015550D01*
X015754Y015602D01*
X015754Y016246D01*
X015661Y016339D01*
X015559Y016339D01*
X015559Y017438D01*
X015739Y017618D01*
X015739Y017982D01*
X015482Y018239D01*
X015577Y018144D02*
X020305Y018144D01*
X020305Y018302D02*
X019508Y018302D01*
X019800Y018461D02*
X020305Y018461D01*
X020305Y018619D02*
X019956Y018619D01*
X020021Y018778D02*
X020305Y018778D01*
X020305Y018936D02*
X020071Y018936D01*
X020071Y019095D02*
X020305Y019095D01*
X020305Y019253D02*
X020050Y019253D01*
X019984Y019412D02*
X020305Y019412D01*
X020305Y019570D02*
X019870Y019570D01*
X019675Y019729D02*
X020305Y019729D01*
X020305Y019887D02*
X005099Y019887D01*
X005073Y020046D02*
X020305Y020046D01*
X018925Y019729D02*
X005026Y019729D01*
X005009Y019570D02*
X018730Y019570D01*
X018616Y019412D02*
X005009Y019412D01*
X005019Y019253D02*
X006102Y019253D01*
X005944Y019095D02*
X005099Y019095D01*
X005076Y018936D02*
X005840Y018936D01*
X005840Y018778D02*
X005009Y018778D01*
X005009Y018619D02*
X005840Y018619D01*
X005989Y018461D02*
X005009Y018461D01*
X005009Y018302D02*
X019092Y018302D01*
X020305Y017985D02*
X015735Y017985D01*
X015739Y017827D02*
X020305Y017827D01*
X020305Y017668D02*
X015739Y017668D01*
X015630Y017510D02*
X020305Y017510D01*
X020305Y017351D02*
X015559Y017351D01*
X015559Y017193D02*
X020305Y017193D01*
X020305Y017034D02*
X015559Y017034D01*
X015559Y016876D02*
X020305Y016876D01*
X020305Y016717D02*
X015559Y016717D01*
X015559Y016559D02*
X017746Y016559D01*
X017531Y016400D02*
X015559Y016400D01*
X015754Y016242D02*
X017460Y016242D01*
X017451Y016083D02*
X015754Y016083D01*
X015754Y015925D02*
X017451Y015925D01*
X017451Y015766D02*
X015754Y015766D01*
X015754Y015608D02*
X017451Y015608D01*
X017451Y015449D02*
X015754Y015449D01*
X015754Y015291D02*
X017513Y015291D01*
X017672Y015132D02*
X015754Y015132D01*
X015754Y014974D02*
X017701Y014974D01*
X017701Y014815D02*
X015715Y014815D01*
X015564Y014657D02*
X017701Y014657D01*
X017701Y014498D02*
X013509Y014498D01*
X013509Y014340D02*
X017701Y014340D01*
X017701Y014181D02*
X013509Y014181D01*
X013509Y014023D02*
X017701Y014023D01*
X017555Y013864D02*
X013509Y013864D01*
X013509Y013706D02*
X017470Y013706D01*
X017451Y013547D02*
X013509Y013547D01*
X013509Y013072D02*
X017451Y013072D01*
X017451Y012913D02*
X013458Y012913D01*
X013300Y012755D02*
X017503Y012755D01*
X017635Y012596D02*
X013141Y012596D01*
X015055Y011984D02*
X015032Y011912D01*
X015020Y011838D01*
X015020Y011820D01*
X015780Y011820D01*
X015780Y011780D01*
X015820Y011780D01*
X015820Y011820D01*
X016580Y011820D01*
X016580Y011838D01*
X016568Y011912D01*
X016545Y011984D01*
X016511Y012052D01*
X016482Y012091D01*
X016714Y012091D01*
X016841Y011964D01*
X016841Y010136D01*
X016714Y010009D01*
X016510Y010009D01*
X016489Y010060D01*
X016360Y010189D01*
X016191Y010259D01*
X015409Y010259D01*
X015240Y010189D01*
X015111Y010060D01*
X015041Y009891D01*
X015041Y009709D01*
X015111Y009540D01*
X015143Y009509D01*
X013127Y009509D01*
X013219Y009547D01*
X013303Y009631D01*
X013349Y009741D01*
X013349Y009859D01*
X013303Y009969D01*
X013219Y010053D01*
X013109Y010099D01*
X013089Y010099D01*
X013089Y010161D01*
X012996Y010254D01*
X012352Y010254D01*
X012315Y010217D01*
X012292Y010239D01*
X012251Y010263D01*
X012206Y010275D01*
X011974Y010275D01*
X011974Y009848D01*
X011878Y009848D01*
X011878Y010275D01*
X011646Y010275D01*
X011601Y010263D01*
X011560Y010239D01*
X011526Y010206D01*
X011502Y010165D01*
X011490Y010119D01*
X011490Y009848D01*
X011878Y009848D01*
X011878Y009752D01*
X011974Y009752D01*
X011974Y009325D01*
X012206Y009325D01*
X012251Y009337D01*
X012292Y009361D01*
X012315Y009383D01*
X012352Y009346D01*
X012551Y009346D01*
X012214Y009009D01*
X011627Y009009D01*
X011719Y009047D01*
X011803Y009131D01*
X011849Y009241D01*
X011849Y009325D01*
X011878Y009325D01*
X011878Y009752D01*
X011490Y009752D01*
X011490Y009599D01*
X011473Y009591D01*
X011439Y009591D01*
X011439Y009632D01*
X011448Y009648D01*
X011460Y009694D01*
X011460Y009776D01*
X011367Y009776D01*
X011367Y009776D01*
X011460Y009776D01*
X011460Y009859D01*
X011448Y009905D01*
X011424Y009946D01*
X011391Y009979D01*
X011350Y010003D01*
X011304Y010015D01*
X011044Y010015D01*
X010784Y010015D01*
X010738Y010003D01*
X010697Y009979D01*
X010664Y009946D01*
X010640Y009905D01*
X010628Y009859D01*
X010628Y009788D01*
X010484Y009788D01*
X010469Y009803D01*
X010359Y009849D01*
X010241Y009849D01*
X010131Y009803D01*
X010047Y009719D01*
X010001Y009609D01*
X010001Y009491D01*
X010047Y009381D01*
X010131Y009297D01*
X010241Y009251D01*
X010359Y009251D01*
X010469Y009297D01*
X010543Y009371D01*
X010649Y009371D01*
X010649Y006699D01*
X010742Y006606D01*
X011322Y006606D01*
X011339Y006589D01*
X011189Y006589D01*
X011096Y006496D01*
X011096Y005852D01*
X011148Y005800D01*
X011096Y005748D01*
X011096Y005104D01*
X011189Y005011D01*
X011291Y005011D01*
X011291Y004589D01*
X011189Y004589D01*
X011096Y004496D01*
X011096Y003852D01*
X011148Y003800D01*
X011096Y003748D01*
X011096Y003104D01*
X011189Y003011D01*
X011262Y003011D01*
X011251Y002984D01*
X011251Y002866D01*
X011297Y002756D01*
X011381Y002672D01*
X011491Y002626D01*
X011609Y002626D01*
X011719Y002672D01*
X011764Y002716D01*
X014511Y002716D01*
X014636Y002841D01*
X014759Y002964D01*
X014759Y004836D01*
X014803Y004881D01*
X014849Y004991D01*
X014849Y005011D01*
X014911Y005011D01*
X015004Y005104D01*
X015004Y005748D01*
X014952Y005800D01*
X015004Y005852D01*
X015004Y006496D01*
X014911Y006589D01*
X014189Y006589D01*
X014134Y006533D01*
X014120Y006547D01*
X014009Y006547D01*
X014009Y006886D01*
X013591Y007304D01*
X013469Y007426D01*
X012327Y007426D01*
X012349Y007480D01*
X012349Y007599D01*
X012303Y007708D01*
X012219Y007792D01*
X012109Y007838D01*
X011991Y007838D01*
X011881Y007792D01*
X011857Y007768D01*
X011857Y007867D01*
X011811Y007977D01*
X011727Y008061D01*
X011617Y008107D01*
X011498Y008107D01*
X011439Y008082D01*
X011439Y008190D01*
X012115Y008190D01*
X012591Y007714D01*
X012714Y007591D01*
X015090Y007591D01*
X015111Y007540D01*
X015240Y007411D01*
X015409Y007341D01*
X016191Y007341D01*
X016360Y007411D01*
X016489Y007540D01*
X016559Y007709D01*
X016559Y007891D01*
X016489Y008060D01*
X016457Y008091D01*
X019886Y008091D01*
X020136Y008341D01*
X020259Y008464D01*
X020259Y010386D01*
X020009Y010636D01*
X019886Y010759D01*
X019813Y010759D01*
X019813Y010970D01*
X019720Y011063D01*
X018880Y011063D01*
X018787Y010970D01*
X018787Y010130D01*
X018880Y010037D01*
X019720Y010037D01*
X019813Y010130D01*
X019813Y010242D01*
X019841Y010214D01*
X019841Y008636D01*
X019714Y008509D01*
X016457Y008509D01*
X016489Y008540D01*
X016559Y008709D01*
X016559Y008891D01*
X016489Y009060D01*
X016457Y009091D01*
X016714Y009091D01*
X016841Y008964D01*
X016841Y008964D01*
X016964Y008841D01*
X018787Y008841D01*
X018787Y008837D01*
X019087Y008537D01*
X019513Y008537D01*
X019813Y008837D01*
X019813Y009263D01*
X019513Y009563D01*
X019087Y009563D01*
X018787Y009263D01*
X018787Y009259D01*
X017136Y009259D01*
X017009Y009386D01*
X017009Y009386D01*
X016886Y009509D01*
X016457Y009509D01*
X016489Y009540D01*
X016510Y009591D01*
X016886Y009591D01*
X017009Y009714D01*
X017259Y009964D01*
X017259Y012136D01*
X017136Y012259D01*
X016886Y012509D01*
X008714Y012509D01*
X008591Y012386D01*
X008296Y012091D01*
X008296Y010939D01*
X007468Y010939D01*
X007452Y010948D01*
X007406Y010960D01*
X007324Y010960D01*
X007324Y010867D01*
X007324Y010867D01*
X007324Y010960D01*
X007241Y010960D01*
X007195Y010948D01*
X007154Y010924D01*
X007121Y010891D01*
X007097Y010850D01*
X007085Y010804D01*
X007085Y010544D01*
X007085Y010284D01*
X007097Y010238D01*
X007121Y010197D01*
X007154Y010164D01*
X007195Y010140D01*
X007241Y010128D01*
X007312Y010128D01*
X007312Y009984D01*
X007297Y009969D01*
X007251Y009859D01*
X007251Y009741D01*
X007297Y009631D01*
X007381Y009547D01*
X007491Y009501D01*
X007609Y009501D01*
X007719Y009547D01*
X007800Y009628D01*
X007881Y009547D01*
X007991Y009501D01*
X008109Y009501D01*
X008219Y009547D01*
X008303Y009631D01*
X008349Y009741D01*
X008349Y009859D01*
X008320Y009929D01*
X008320Y010149D01*
X010401Y010149D01*
X010494Y010242D01*
X010494Y010699D01*
X010546Y010751D01*
X010609Y010751D01*
X010719Y010797D01*
X010803Y010881D01*
X010849Y010991D01*
X010849Y011109D01*
X010803Y011219D01*
X010719Y011303D01*
X010609Y011349D01*
X010491Y011349D01*
X010381Y011303D01*
X010378Y011301D01*
X010378Y011359D01*
X010333Y011469D01*
X010249Y011553D01*
X010139Y011599D01*
X010020Y011599D01*
X009910Y011553D01*
X009849Y011492D01*
X009849Y011609D01*
X009803Y011719D01*
X009719Y011803D01*
X009609Y011849D01*
X009491Y011849D01*
X009381Y011803D01*
X009297Y011719D01*
X009251Y011609D01*
X009251Y011546D01*
X009158Y011453D01*
X009152Y011469D01*
X009068Y011553D01*
X008958Y011599D01*
X008839Y011599D01*
X008729Y011553D01*
X008713Y011538D01*
X008713Y011918D01*
X008886Y012091D01*
X015118Y012091D01*
X015089Y012052D01*
X015055Y011984D01*
X015048Y011962D02*
X008757Y011962D01*
X008713Y011804D02*
X009381Y011804D01*
X009266Y011645D02*
X008713Y011645D01*
X008296Y011645D02*
X007775Y011645D01*
X007775Y011487D02*
X008296Y011487D01*
X008296Y011328D02*
X007775Y011328D01*
X007775Y011378D02*
X007348Y011378D01*
X007348Y010990D01*
X007619Y010990D01*
X007665Y011002D01*
X007706Y011026D01*
X007739Y011060D01*
X007763Y011101D01*
X007775Y011146D01*
X007775Y011378D01*
X007775Y011170D02*
X008296Y011170D01*
X008296Y011011D02*
X007680Y011011D01*
X007348Y011011D02*
X007252Y011011D01*
X007252Y011170D02*
X007348Y011170D01*
X007348Y011328D02*
X007252Y011328D01*
X007098Y010853D02*
X005593Y010853D01*
X005754Y010694D02*
X007085Y010694D01*
X007085Y010544D02*
X007303Y010544D01*
X007085Y010544D01*
X007085Y010536D02*
X005754Y010536D01*
X005754Y010377D02*
X007085Y010377D01*
X007108Y010219D02*
X005754Y010219D01*
X005712Y010060D02*
X007312Y010060D01*
X007269Y009902D02*
X006961Y009902D01*
X006972Y009743D02*
X007251Y009743D01*
X007343Y009585D02*
X006951Y009585D01*
X006951Y009426D02*
X010028Y009426D01*
X010001Y009585D02*
X008257Y009585D01*
X008349Y009743D02*
X010071Y009743D01*
X010201Y009268D02*
X006951Y009268D01*
X006951Y009109D02*
X010649Y009109D01*
X010649Y008951D02*
X006951Y008951D01*
X006951Y008792D02*
X010649Y008792D01*
X010649Y008634D02*
X006951Y008634D01*
X006951Y008475D02*
X010649Y008475D01*
X010649Y008317D02*
X006951Y008317D01*
X006951Y008158D02*
X010649Y008158D01*
X010649Y008000D02*
X006951Y008000D01*
X006951Y007841D02*
X007045Y007841D01*
X006972Y007366D02*
X010649Y007366D01*
X010649Y007524D02*
X007561Y007524D01*
X007599Y007683D02*
X010649Y007683D01*
X010649Y007841D02*
X007555Y007841D01*
X006951Y007207D02*
X010649Y007207D01*
X010649Y007049D02*
X010224Y007049D01*
X010336Y006890D02*
X010649Y006890D01*
X010649Y006732D02*
X010345Y006732D01*
X010288Y006573D02*
X011173Y006573D01*
X011096Y006415D02*
X010468Y006415D01*
X010515Y006256D02*
X011096Y006256D01*
X011096Y006098D02*
X010515Y006098D01*
X010515Y006056D02*
X010297Y006056D01*
X010297Y006056D01*
X010515Y006056D01*
X010515Y005939D02*
X011096Y005939D01*
X011129Y005781D02*
X010511Y005781D01*
X010619Y005610D02*
X010348Y005610D01*
X010348Y005222D01*
X010775Y005222D01*
X010775Y005454D01*
X010763Y005499D01*
X010739Y005540D01*
X010706Y005574D01*
X010665Y005598D01*
X010619Y005610D01*
X010773Y005464D02*
X011096Y005464D01*
X011096Y005622D02*
X009698Y005622D01*
X009698Y005464D02*
X009827Y005464D01*
X009825Y005454D02*
X009825Y005222D01*
X010252Y005222D01*
X010252Y005126D01*
X009825Y005126D01*
X009825Y004894D01*
X009837Y004849D01*
X009861Y004808D01*
X009883Y004785D01*
X009846Y004748D01*
X009846Y004104D01*
X009939Y004011D01*
X010001Y004011D01*
X010001Y003991D01*
X010047Y003881D01*
X010131Y003797D01*
X010241Y003751D01*
X010359Y003751D01*
X010469Y003797D01*
X010553Y003881D01*
X010599Y003991D01*
X010599Y004011D01*
X010661Y004011D01*
X010754Y004104D01*
X010754Y004748D01*
X010717Y004785D01*
X010739Y004808D01*
X010763Y004849D01*
X010775Y004894D01*
X010775Y005126D01*
X010348Y005126D01*
X010348Y005222D01*
X010252Y005222D01*
X010252Y005610D01*
X009981Y005610D01*
X009935Y005598D01*
X009894Y005574D01*
X009861Y005540D01*
X009837Y005499D01*
X009825Y005454D01*
X009825Y005305D02*
X009698Y005305D01*
X009698Y005147D02*
X010252Y005147D01*
X010348Y005147D02*
X011096Y005147D01*
X011096Y005305D02*
X010775Y005305D01*
X010775Y004988D02*
X011291Y004988D01*
X011291Y004830D02*
X010752Y004830D01*
X010754Y004671D02*
X011291Y004671D01*
X011113Y004513D02*
X010754Y004513D01*
X010754Y004354D02*
X011096Y004354D01*
X011096Y004196D02*
X010754Y004196D01*
X010687Y004037D02*
X011096Y004037D01*
X011096Y003879D02*
X010551Y003879D01*
X010049Y003879D02*
X009698Y003879D01*
X009698Y004037D02*
X009913Y004037D01*
X009846Y004196D02*
X009698Y004196D01*
X009698Y004354D02*
X009846Y004354D01*
X009846Y004513D02*
X009698Y004513D01*
X009698Y004671D02*
X009846Y004671D01*
X009848Y004830D02*
X009698Y004830D01*
X009698Y004988D02*
X009825Y004988D01*
X010252Y005305D02*
X010348Y005305D01*
X010348Y005464D02*
X010252Y005464D01*
X009280Y005464D02*
X008759Y005464D01*
X008759Y005305D02*
X009280Y005305D01*
X009280Y005147D02*
X008759Y005147D01*
X008759Y004988D02*
X009280Y004988D01*
X009280Y004830D02*
X008759Y004830D01*
X008716Y004671D02*
X009280Y004671D01*
X009280Y004513D02*
X008558Y004513D01*
X008517Y004354D02*
X009280Y004354D01*
X009280Y004196D02*
X008517Y004196D01*
X008517Y004037D02*
X009280Y004037D01*
X009280Y003879D02*
X008517Y003879D01*
X008552Y003720D02*
X009280Y003720D01*
X009280Y003562D02*
X008607Y003562D01*
X008574Y003403D02*
X009280Y003403D01*
X009280Y003245D02*
X008370Y003245D01*
X008246Y003245D02*
X007009Y003245D01*
X007009Y003403D02*
X008042Y003403D01*
X008009Y003562D02*
X007009Y003562D01*
X007009Y003720D02*
X008063Y003720D01*
X008099Y003879D02*
X007801Y003879D01*
X007937Y004037D02*
X008099Y004037D01*
X008099Y004196D02*
X008004Y004196D01*
X008004Y004354D02*
X008099Y004354D01*
X008099Y004513D02*
X008004Y004513D01*
X008004Y004671D02*
X008126Y004671D01*
X008002Y004830D02*
X008284Y004830D01*
X007598Y005305D02*
X007502Y005305D01*
X007502Y005222D02*
X007502Y005610D01*
X007231Y005610D01*
X007185Y005598D01*
X007144Y005574D01*
X007111Y005540D01*
X007087Y005499D01*
X007075Y005454D01*
X007075Y005222D01*
X007502Y005222D01*
X007502Y005147D02*
X007009Y005147D01*
X007009Y005305D02*
X007075Y005305D01*
X007077Y005464D02*
X007009Y005464D01*
X007009Y005622D02*
X007902Y005622D01*
X007598Y005464D02*
X007502Y005464D01*
X007106Y005781D02*
X007076Y005781D01*
X006802Y006098D02*
X006765Y006098D01*
X006765Y006256D02*
X006961Y006256D01*
X006765Y006415D02*
X007162Y006415D01*
X007312Y006573D02*
X006765Y006573D01*
X006951Y006732D02*
X007255Y006732D01*
X007264Y006890D02*
X006951Y006890D01*
X006951Y007049D02*
X007376Y007049D01*
X007724Y007049D02*
X009876Y007049D01*
X009764Y006890D02*
X008882Y006890D01*
X008974Y006732D02*
X009755Y006732D01*
X009855Y006573D02*
X008956Y006573D01*
X008468Y006890D02*
X007836Y006890D01*
X007845Y006732D02*
X008376Y006732D01*
X008296Y006573D02*
X007745Y006573D01*
X008648Y005622D02*
X009280Y005622D01*
X009698Y003720D02*
X011096Y003720D01*
X011096Y003562D02*
X009698Y003562D01*
X009698Y003403D02*
X011096Y003403D01*
X011096Y003245D02*
X009698Y003245D01*
X009698Y003086D02*
X011114Y003086D01*
X011251Y002928D02*
X009698Y002928D01*
X009698Y002769D02*
X010050Y002769D01*
X009997Y002611D02*
X009698Y002611D01*
X009280Y002611D02*
X009103Y002611D01*
X009107Y002597D02*
X009108Y002597D01*
X009050Y002769D02*
X009280Y002769D01*
X009280Y002928D02*
X007009Y002928D01*
X007009Y003086D02*
X009280Y003086D01*
X008836Y002888D02*
X008836Y002888D01*
X008565Y002891D02*
X008565Y002891D01*
X008314Y002769D02*
X007009Y002769D01*
X007009Y002611D02*
X008187Y002611D01*
X008149Y002564D02*
X008149Y002564D01*
X008124Y002452D02*
X007009Y002452D01*
X007009Y002294D02*
X008090Y002294D01*
X008089Y002300D02*
X008089Y002300D01*
X008127Y002135D02*
X007009Y002135D01*
X007009Y001977D02*
X008197Y001977D01*
X008320Y001825D02*
X008320Y001825D01*
X008320Y001825D01*
X008333Y001818D02*
X007009Y001818D01*
X007009Y001660D02*
X008226Y001660D01*
X008149Y001564D02*
X008149Y001564D01*
X008135Y001501D02*
X007009Y001501D01*
X006888Y001343D02*
X008098Y001343D01*
X008089Y001300D02*
X008089Y001300D01*
X008115Y001184D02*
X006729Y001184D01*
X006759Y001214D02*
X006759Y001214D01*
X006591Y001660D02*
X002839Y001660D01*
X002839Y001977D02*
X006591Y001977D01*
X006591Y002135D02*
X006430Y002135D01*
X006589Y002294D02*
X006591Y002294D01*
X006315Y002611D02*
X004074Y002611D01*
X003616Y002611D02*
X003484Y002611D01*
X003026Y002611D02*
X002839Y002611D01*
X002827Y002928D02*
X006347Y002928D01*
X006347Y003086D02*
X004161Y003086D01*
X004123Y003562D02*
X005766Y003562D01*
X005841Y003720D02*
X002780Y003720D01*
X002778Y003879D02*
X005841Y003879D01*
X005841Y004037D02*
X004122Y004037D01*
X003569Y004037D02*
X003531Y004037D01*
X003533Y003562D02*
X003567Y003562D01*
X002977Y003562D02*
X002839Y003562D01*
X002839Y004037D02*
X002978Y004037D01*
X003252Y004830D02*
X004348Y004830D01*
X004161Y004513D02*
X005467Y004513D01*
X005741Y004196D02*
X005841Y004196D01*
X006259Y004196D02*
X006347Y004196D01*
X006347Y004354D02*
X006259Y004354D01*
X006259Y004513D02*
X006347Y004513D01*
X006347Y004671D02*
X006259Y004671D01*
X006259Y004830D02*
X006347Y004830D01*
X006347Y004988D02*
X006259Y004988D01*
X006259Y005147D02*
X006347Y005147D01*
X006347Y005305D02*
X006259Y005305D01*
X006259Y005464D02*
X006347Y005464D01*
X006347Y005622D02*
X006259Y005622D01*
X006259Y005781D02*
X006347Y005781D01*
X006347Y005939D02*
X006259Y005939D01*
X006259Y006098D02*
X006347Y006098D01*
X006347Y006256D02*
X006259Y006256D01*
X006259Y006415D02*
X006347Y006415D01*
X006347Y006573D02*
X006259Y006573D01*
X007009Y004988D02*
X007075Y004988D01*
X007098Y004830D02*
X007009Y004830D01*
X007009Y004671D02*
X007096Y004671D01*
X007096Y004513D02*
X007009Y004513D01*
X007009Y004354D02*
X007096Y004354D01*
X007096Y004196D02*
X007009Y004196D01*
X007009Y004037D02*
X007163Y004037D01*
X007299Y003879D02*
X007009Y003879D01*
X006347Y003879D02*
X006259Y003879D01*
X006259Y004037D02*
X006347Y004037D01*
X006347Y003720D02*
X006259Y003720D01*
X006259Y003562D02*
X006347Y003562D01*
X006347Y003403D02*
X006198Y003403D01*
X006347Y003245D02*
X006040Y003245D01*
X006347Y002769D02*
X000980Y002769D01*
X000980Y002611D02*
X001261Y002611D01*
X001040Y002452D02*
X000980Y002452D01*
X000980Y002294D02*
X001001Y002294D01*
X000980Y002135D02*
X001045Y002135D01*
X000980Y001977D02*
X001261Y001977D01*
X001261Y001660D02*
X000980Y001660D01*
X000980Y001818D02*
X006591Y001818D01*
X008158Y001026D02*
X004110Y001026D01*
X003580Y001026D02*
X003520Y001026D01*
X002990Y001026D02*
X002839Y001026D01*
X002767Y000867D02*
X008285Y000867D01*
X008320Y000825D02*
X008320Y000825D01*
X008320Y000825D01*
X010535Y002891D02*
X010535Y002891D01*
X010786Y002769D02*
X011291Y002769D01*
X010913Y002611D02*
X020305Y002611D01*
X020305Y002769D02*
X014564Y002769D01*
X014723Y002928D02*
X018696Y002928D01*
X018687Y002934D02*
X018748Y002889D01*
X018816Y002855D01*
X018888Y002832D01*
X018962Y002820D01*
X019280Y002820D01*
X019280Y003280D01*
X019320Y003280D01*
X019320Y003320D01*
X019280Y003320D01*
X019280Y003780D01*
X018962Y003780D01*
X018888Y003768D01*
X018816Y003745D01*
X018748Y003711D01*
X018687Y003666D01*
X018634Y003613D01*
X018589Y003552D01*
X018555Y003484D01*
X018532Y003412D01*
X018520Y003338D01*
X018520Y003320D01*
X019280Y003320D01*
X019280Y003280D01*
X018520Y003280D01*
X018520Y003262D01*
X018532Y003188D01*
X018555Y003116D01*
X018589Y003048D01*
X018634Y002987D01*
X018687Y002934D01*
X018570Y003086D02*
X014759Y003086D01*
X014759Y003245D02*
X018523Y003245D01*
X018530Y003403D02*
X016340Y003403D01*
X016360Y003411D02*
X016489Y003540D01*
X016559Y003709D01*
X016559Y003891D01*
X016489Y004060D01*
X016360Y004189D01*
X016191Y004259D01*
X015409Y004259D01*
X015240Y004189D01*
X015111Y004060D01*
X015041Y003891D01*
X015041Y003709D01*
X015111Y003540D01*
X015240Y003411D01*
X015409Y003341D01*
X016191Y003341D01*
X016360Y003411D01*
X016498Y003562D02*
X018597Y003562D01*
X018767Y003720D02*
X016559Y003720D01*
X016559Y003879D02*
X018819Y003879D01*
X018740Y003911D02*
X018611Y004040D01*
X018541Y004209D01*
X018541Y004391D01*
X018611Y004560D01*
X018740Y004689D01*
X018909Y004759D01*
X019691Y004759D01*
X019860Y004689D01*
X019989Y004560D01*
X020059Y004391D01*
X020059Y004209D01*
X019989Y004040D01*
X019860Y003911D01*
X019691Y003841D01*
X018909Y003841D01*
X018740Y003911D01*
X018614Y004037D02*
X016498Y004037D01*
X016344Y004196D02*
X018547Y004196D01*
X018541Y004354D02*
X016281Y004354D01*
X016284Y004355D02*
X016352Y004389D01*
X016413Y004434D01*
X016466Y004487D01*
X016511Y004548D01*
X016545Y004616D01*
X016568Y004688D01*
X016580Y004762D01*
X016580Y004780D01*
X015820Y004780D01*
X015820Y004820D01*
X015780Y004820D01*
X015780Y005280D01*
X015462Y005280D01*
X015388Y005268D01*
X015316Y005245D01*
X015248Y005211D01*
X015187Y005166D01*
X015134Y005113D01*
X015089Y005052D01*
X015055Y004984D01*
X015032Y004912D01*
X015020Y004838D01*
X015020Y004820D01*
X015780Y004820D01*
X015780Y004780D01*
X015820Y004780D01*
X015820Y004320D01*
X016138Y004320D01*
X016212Y004332D01*
X016284Y004355D01*
X016484Y004513D02*
X018591Y004513D01*
X018722Y004671D02*
X016563Y004671D01*
X016580Y004820D02*
X016580Y004838D01*
X016568Y004912D01*
X016545Y004984D01*
X016511Y005052D01*
X016466Y005113D01*
X016413Y005166D01*
X016352Y005211D01*
X016284Y005245D01*
X016212Y005268D01*
X016138Y005280D01*
X015820Y005280D01*
X015820Y004820D01*
X016580Y004820D01*
X016580Y004830D02*
X020305Y004830D01*
X020305Y004988D02*
X016543Y004988D01*
X016432Y005147D02*
X020305Y005147D01*
X020305Y005305D02*
X015004Y005305D01*
X015004Y005147D02*
X015168Y005147D01*
X015057Y004988D02*
X014848Y004988D01*
X014759Y004830D02*
X015020Y004830D01*
X015020Y004780D02*
X015020Y004762D01*
X015032Y004688D01*
X015055Y004616D01*
X015089Y004548D01*
X015134Y004487D01*
X015187Y004434D01*
X015248Y004389D01*
X015316Y004355D01*
X015388Y004332D01*
X015462Y004320D01*
X015780Y004320D01*
X015780Y004780D01*
X015020Y004780D01*
X015037Y004671D02*
X014759Y004671D01*
X014759Y004513D02*
X015116Y004513D01*
X015319Y004354D02*
X014759Y004354D01*
X014759Y004196D02*
X015256Y004196D01*
X015102Y004037D02*
X014759Y004037D01*
X014759Y003879D02*
X015041Y003879D01*
X015041Y003720D02*
X014759Y003720D01*
X014759Y003562D02*
X015102Y003562D01*
X015260Y003403D02*
X014759Y003403D01*
X015780Y004354D02*
X015820Y004354D01*
X015820Y004513D02*
X015780Y004513D01*
X015780Y004671D02*
X015820Y004671D01*
X015820Y004830D02*
X015780Y004830D01*
X015780Y004988D02*
X015820Y004988D01*
X015820Y005147D02*
X015780Y005147D01*
X015409Y005341D02*
X015240Y005411D01*
X015111Y005540D01*
X015041Y005709D01*
X015041Y005891D01*
X015111Y006060D01*
X015240Y006189D01*
X015409Y006259D01*
X016191Y006259D01*
X016360Y006189D01*
X016489Y006060D01*
X016559Y005891D01*
X016559Y005709D01*
X016489Y005540D01*
X016360Y005411D01*
X016191Y005341D01*
X015409Y005341D01*
X015188Y005464D02*
X015004Y005464D01*
X015004Y005622D02*
X015077Y005622D01*
X015041Y005781D02*
X014971Y005781D01*
X015004Y005939D02*
X015061Y005939D01*
X015004Y006098D02*
X015149Y006098D01*
X015004Y006256D02*
X015402Y006256D01*
X015409Y006341D02*
X015240Y006411D01*
X015111Y006540D01*
X015041Y006709D01*
X015041Y006891D01*
X015111Y007060D01*
X015240Y007189D01*
X015409Y007259D01*
X016191Y007259D01*
X016360Y007189D01*
X016489Y007060D01*
X016559Y006891D01*
X016559Y006709D01*
X016489Y006540D01*
X016360Y006411D01*
X016191Y006341D01*
X015409Y006341D01*
X015237Y006415D02*
X015004Y006415D01*
X014927Y006573D02*
X015097Y006573D01*
X015041Y006732D02*
X014009Y006732D01*
X014005Y006890D02*
X015041Y006890D01*
X015106Y007049D02*
X013847Y007049D01*
X013688Y007207D02*
X015284Y007207D01*
X015350Y007366D02*
X013530Y007366D01*
X014009Y006573D02*
X014173Y006573D01*
X015127Y007524D02*
X012349Y007524D01*
X012314Y007683D02*
X012622Y007683D01*
X012464Y007841D02*
X011857Y007841D01*
X011789Y008000D02*
X012305Y008000D01*
X012147Y008158D02*
X011439Y008158D01*
X011781Y009109D02*
X012314Y009109D01*
X012472Y009268D02*
X011849Y009268D01*
X011878Y009426D02*
X011974Y009426D01*
X011974Y009585D02*
X011878Y009585D01*
X011878Y009743D02*
X011974Y009743D01*
X011974Y009902D02*
X011878Y009902D01*
X011878Y010060D02*
X011974Y010060D01*
X011974Y010219D02*
X011878Y010219D01*
X011539Y010219D02*
X010471Y010219D01*
X010494Y010377D02*
X015322Y010377D01*
X015240Y010411D02*
X015409Y010341D01*
X016191Y010341D01*
X016360Y010411D01*
X016489Y010540D01*
X016559Y010709D01*
X016559Y010891D01*
X016489Y011060D01*
X016360Y011189D01*
X016191Y011259D01*
X015409Y011259D01*
X015240Y011189D01*
X015111Y011060D01*
X015041Y010891D01*
X015041Y010709D01*
X015111Y010540D01*
X015240Y010411D01*
X015116Y010536D02*
X010494Y010536D01*
X010494Y010694D02*
X015047Y010694D01*
X015041Y010853D02*
X010775Y010853D01*
X010849Y011011D02*
X015091Y011011D01*
X015221Y011170D02*
X010824Y011170D01*
X010659Y011328D02*
X015412Y011328D01*
X015388Y011332D02*
X015462Y011320D01*
X015780Y011320D01*
X015780Y011780D01*
X015020Y011780D01*
X015020Y011762D01*
X015032Y011688D01*
X015055Y011616D01*
X015089Y011548D01*
X015134Y011487D01*
X015187Y011434D01*
X015248Y011389D01*
X015316Y011355D01*
X015388Y011332D01*
X015135Y011487D02*
X010315Y011487D01*
X010378Y011328D02*
X010441Y011328D01*
X009834Y011645D02*
X015046Y011645D01*
X015780Y011645D02*
X015820Y011645D01*
X015820Y011780D02*
X015820Y011320D01*
X016138Y011320D01*
X016212Y011332D01*
X016284Y011355D01*
X016352Y011389D01*
X016413Y011434D01*
X016466Y011487D01*
X016511Y011548D01*
X016545Y011616D01*
X016568Y011688D01*
X016580Y011762D01*
X016580Y011780D01*
X015820Y011780D01*
X015820Y011804D02*
X016841Y011804D01*
X016841Y011962D02*
X016552Y011962D01*
X016554Y011645D02*
X016841Y011645D01*
X016841Y011487D02*
X016465Y011487D01*
X016188Y011328D02*
X016841Y011328D01*
X016841Y011170D02*
X016379Y011170D01*
X016509Y011011D02*
X016841Y011011D01*
X016841Y010853D02*
X016559Y010853D01*
X016553Y010694D02*
X016841Y010694D01*
X016841Y010536D02*
X016484Y010536D01*
X016278Y010377D02*
X016841Y010377D01*
X016841Y010219D02*
X016288Y010219D01*
X016489Y010060D02*
X016765Y010060D01*
X017038Y009743D02*
X019841Y009743D01*
X019841Y009585D02*
X016507Y009585D01*
X016969Y009426D02*
X018950Y009426D01*
X018792Y009268D02*
X017128Y009268D01*
X016854Y008951D02*
X016534Y008951D01*
X016559Y008792D02*
X018832Y008792D01*
X018991Y008634D02*
X016528Y008634D01*
X016514Y008000D02*
X018994Y008000D01*
X019079Y008084D02*
X018766Y007771D01*
X018766Y007588D01*
X019262Y007588D01*
X019262Y007512D01*
X018766Y007512D01*
X018766Y007329D01*
X019079Y007016D01*
X019262Y007016D01*
X019262Y007512D01*
X019338Y007512D01*
X019338Y007588D01*
X019262Y007588D01*
X019262Y008084D01*
X019079Y008084D01*
X019262Y008000D02*
X019338Y008000D01*
X019338Y008084D02*
X019338Y007588D01*
X019834Y007588D01*
X019834Y007771D01*
X019521Y008084D01*
X019338Y008084D01*
X019338Y007841D02*
X019262Y007841D01*
X019262Y007683D02*
X019338Y007683D01*
X019338Y007524D02*
X020305Y007524D01*
X020305Y007366D02*
X019834Y007366D01*
X019834Y007329D02*
X019834Y007512D01*
X019338Y007512D01*
X019338Y007016D01*
X019521Y007016D01*
X019834Y007329D01*
X019713Y007207D02*
X020305Y007207D01*
X020305Y007049D02*
X019554Y007049D01*
X019338Y007049D02*
X019262Y007049D01*
X019262Y007207D02*
X019338Y007207D01*
X019338Y007366D02*
X019262Y007366D01*
X019262Y007524D02*
X016473Y007524D01*
X016548Y007683D02*
X018766Y007683D01*
X018835Y007841D02*
X016559Y007841D01*
X016250Y007366D02*
X018766Y007366D01*
X018887Y007207D02*
X016316Y007207D01*
X016494Y007049D02*
X019046Y007049D01*
X019087Y006563D02*
X018787Y006263D01*
X018787Y005837D01*
X019087Y005537D01*
X019513Y005537D01*
X019813Y005837D01*
X019813Y006263D01*
X019513Y006563D01*
X019087Y006563D01*
X018939Y006415D02*
X016363Y006415D01*
X016503Y006573D02*
X020305Y006573D01*
X020305Y006415D02*
X019661Y006415D01*
X019813Y006256D02*
X020305Y006256D01*
X020305Y006098D02*
X019813Y006098D01*
X019813Y005939D02*
X020305Y005939D01*
X020305Y005781D02*
X019756Y005781D01*
X019598Y005622D02*
X020305Y005622D01*
X020305Y005464D02*
X016412Y005464D01*
X016523Y005622D02*
X019002Y005622D01*
X018844Y005781D02*
X016559Y005781D01*
X016539Y005939D02*
X018787Y005939D01*
X018787Y006098D02*
X016451Y006098D01*
X016198Y006256D02*
X018787Y006256D01*
X020305Y006732D02*
X016559Y006732D01*
X016559Y006890D02*
X020305Y006890D01*
X020305Y007683D02*
X019834Y007683D01*
X019765Y007841D02*
X020305Y007841D01*
X020305Y008000D02*
X019606Y008000D01*
X019953Y008158D02*
X020305Y008158D01*
X020305Y008317D02*
X020112Y008317D01*
X020259Y008475D02*
X020305Y008475D01*
X020305Y008634D02*
X020259Y008634D01*
X020259Y008792D02*
X020305Y008792D01*
X020305Y008951D02*
X020259Y008951D01*
X020259Y009109D02*
X020305Y009109D01*
X020305Y009268D02*
X020259Y009268D01*
X020259Y009426D02*
X020305Y009426D01*
X020305Y009585D02*
X020259Y009585D01*
X020259Y009743D02*
X020305Y009743D01*
X020305Y009902D02*
X020259Y009902D01*
X020259Y010060D02*
X020305Y010060D01*
X020305Y010219D02*
X020259Y010219D01*
X020259Y010377D02*
X020305Y010377D01*
X020305Y010536D02*
X020110Y010536D01*
X019951Y010694D02*
X020305Y010694D01*
X020305Y010853D02*
X019813Y010853D01*
X019772Y011011D02*
X020305Y011011D01*
X020305Y011170D02*
X017259Y011170D01*
X017259Y011328D02*
X020305Y011328D01*
X020305Y011487D02*
X017259Y011487D01*
X017259Y011645D02*
X020305Y011645D01*
X020305Y011804D02*
X017259Y011804D01*
X017259Y011962D02*
X020305Y011962D01*
X020305Y012121D02*
X017259Y012121D01*
X017116Y012279D02*
X020305Y012279D01*
X020305Y012438D02*
X016958Y012438D01*
X015780Y011804D02*
X009719Y011804D01*
X009191Y011487D02*
X009134Y011487D01*
X008296Y011804D02*
X007728Y011804D01*
X007754Y011962D02*
X008296Y011962D01*
X008325Y012121D02*
X007754Y012121D01*
X007754Y012279D02*
X008484Y012279D01*
X008642Y012438D02*
X007754Y012438D01*
X007303Y010544D02*
X007303Y010544D01*
X006556Y009902D02*
X006556Y009902D01*
X006233Y009776D02*
X006233Y009776D01*
X006140Y009776D01*
X006233Y009776D01*
X006140Y009743D02*
X005754Y009743D01*
X005754Y009585D02*
X006161Y009585D01*
X006161Y009426D02*
X005845Y009426D01*
X006004Y009268D02*
X006161Y009268D01*
X006151Y009902D02*
X005754Y009902D01*
X007757Y009585D02*
X007843Y009585D01*
X008331Y009902D02*
X010639Y009902D01*
X011044Y009902D02*
X011044Y009902D01*
X011044Y009797D02*
X011044Y010015D01*
X011044Y009797D01*
X011044Y009797D01*
X011449Y009902D02*
X011490Y009902D01*
X011490Y010060D02*
X008320Y010060D01*
X010399Y009268D02*
X010649Y009268D01*
X011460Y009743D02*
X011490Y009743D01*
X012313Y010219D02*
X012317Y010219D01*
X013031Y010219D02*
X015312Y010219D01*
X015111Y010060D02*
X013203Y010060D01*
X013331Y009902D02*
X015046Y009902D01*
X015041Y009743D02*
X013349Y009743D01*
X013257Y009585D02*
X015093Y009585D01*
X015780Y011328D02*
X015820Y011328D01*
X015820Y011487D02*
X015780Y011487D01*
X017259Y011011D02*
X018828Y011011D01*
X018787Y010853D02*
X017259Y010853D01*
X017259Y010694D02*
X018787Y010694D01*
X018787Y010536D02*
X017259Y010536D01*
X017259Y010377D02*
X018787Y010377D01*
X018787Y010219D02*
X017259Y010219D01*
X017259Y010060D02*
X018857Y010060D01*
X019650Y009426D02*
X019841Y009426D01*
X019841Y009268D02*
X019808Y009268D01*
X019813Y009109D02*
X019841Y009109D01*
X019841Y008951D02*
X019813Y008951D01*
X019841Y008792D02*
X019768Y008792D01*
X019838Y008634D02*
X019609Y008634D01*
X019841Y009902D02*
X017197Y009902D01*
X019743Y010060D02*
X019841Y010060D01*
X019836Y010219D02*
X019813Y010219D01*
X019781Y012511D02*
X019599Y012511D01*
X019430Y012581D01*
X019301Y012710D01*
X019231Y012879D01*
X019231Y013661D01*
X019301Y013830D01*
X019430Y013959D01*
X019599Y014029D01*
X019781Y014029D01*
X019950Y013959D01*
X020079Y013830D01*
X020149Y013661D01*
X020149Y012879D01*
X020079Y012710D01*
X019950Y012581D01*
X019781Y012511D01*
X019965Y012596D02*
X020305Y012596D01*
X020305Y012755D02*
X020097Y012755D01*
X020149Y012913D02*
X020305Y012913D01*
X020305Y013072D02*
X020149Y013072D01*
X020149Y013230D02*
X020305Y013230D01*
X020305Y013389D02*
X020149Y013389D01*
X020149Y013547D02*
X020305Y013547D01*
X020305Y013706D02*
X020130Y013706D01*
X020045Y013864D02*
X020305Y013864D01*
X020305Y014023D02*
X019796Y014023D01*
X019584Y014023D02*
X018119Y014023D01*
X018119Y014181D02*
X020305Y014181D01*
X020305Y014340D02*
X018119Y014340D01*
X018119Y014498D02*
X020305Y014498D01*
X020305Y014657D02*
X018119Y014657D01*
X018119Y014815D02*
X020305Y014815D01*
X020305Y014974D02*
X018119Y014974D01*
X018148Y015132D02*
X019452Y015132D01*
X019430Y015141D02*
X019599Y015071D01*
X019781Y015071D01*
X019950Y015141D01*
X020079Y015270D01*
X020149Y015439D01*
X020149Y016221D01*
X020079Y016390D01*
X019950Y016519D01*
X019781Y016589D01*
X019599Y016589D01*
X019430Y016519D01*
X019301Y016390D01*
X019231Y016221D01*
X019231Y015439D01*
X019301Y015270D01*
X019430Y015141D01*
X019293Y015291D02*
X018307Y015291D01*
X018369Y015449D02*
X019231Y015449D01*
X019231Y015608D02*
X018369Y015608D01*
X018369Y015766D02*
X019231Y015766D01*
X019231Y015925D02*
X018369Y015925D01*
X018369Y016083D02*
X019231Y016083D01*
X019240Y016242D02*
X018360Y016242D01*
X018289Y016400D02*
X019311Y016400D01*
X019526Y016559D02*
X018074Y016559D01*
X019854Y016559D02*
X020305Y016559D01*
X020305Y016400D02*
X020069Y016400D01*
X020140Y016242D02*
X020305Y016242D01*
X020305Y016083D02*
X020149Y016083D01*
X020149Y015925D02*
X020305Y015925D01*
X020305Y015766D02*
X020149Y015766D01*
X020149Y015608D02*
X020305Y015608D01*
X020305Y015449D02*
X020149Y015449D01*
X020087Y015291D02*
X020305Y015291D01*
X020305Y015132D02*
X019928Y015132D01*
X019335Y013864D02*
X018265Y013864D01*
X018350Y013706D02*
X019250Y013706D01*
X019231Y013547D02*
X018369Y013547D01*
X018369Y013389D02*
X019231Y013389D01*
X019231Y013230D02*
X018369Y013230D01*
X018369Y013072D02*
X019231Y013072D01*
X019231Y012913D02*
X018369Y012913D01*
X018317Y012755D02*
X019283Y012755D01*
X019415Y012596D02*
X018185Y012596D01*
X015036Y014657D02*
X014564Y014657D01*
X014715Y014815D02*
X014885Y014815D01*
X014846Y014974D02*
X014754Y014974D01*
X014754Y015132D02*
X014846Y015132D01*
X014846Y015291D02*
X014754Y015291D01*
X014754Y015449D02*
X014846Y015449D01*
X014846Y015608D02*
X014754Y015608D01*
X014754Y015766D02*
X014846Y015766D01*
X014846Y015925D02*
X014754Y015925D01*
X014754Y016083D02*
X014846Y016083D01*
X014846Y016242D02*
X014754Y016242D01*
X014559Y016400D02*
X015041Y016400D01*
X015041Y016559D02*
X014559Y016559D01*
X014559Y016717D02*
X015041Y016717D01*
X015041Y016876D02*
X014559Y016876D01*
X014559Y017034D02*
X015041Y017034D01*
X015041Y017193D02*
X014559Y017193D01*
X014559Y017351D02*
X015041Y017351D01*
X014970Y017510D02*
X014630Y017510D01*
X014739Y017668D02*
X014861Y017668D01*
X014861Y017827D02*
X014739Y017827D01*
X014735Y017985D02*
X014865Y017985D01*
X015023Y018144D02*
X014577Y018144D01*
X014482Y018361D02*
X014739Y018618D01*
X014739Y018982D01*
X014482Y019239D01*
X014118Y019239D01*
X013861Y018982D01*
X013861Y018618D01*
X014118Y018361D01*
X014482Y018361D01*
X014581Y018461D02*
X015019Y018461D01*
X014861Y018619D02*
X014739Y018619D01*
X014739Y018778D02*
X014861Y018778D01*
X014861Y018936D02*
X014739Y018936D01*
X014626Y019095D02*
X014974Y019095D01*
X013974Y019095D02*
X013626Y019095D01*
X013739Y018982D02*
X013482Y019239D01*
X013118Y019239D01*
X012861Y018982D01*
X012861Y018618D01*
X013118Y018361D01*
X013482Y018361D01*
X013739Y018618D01*
X013739Y018982D01*
X013739Y018936D02*
X013861Y018936D01*
X013861Y018778D02*
X013739Y018778D01*
X013739Y018619D02*
X013861Y018619D01*
X014019Y018461D02*
X013581Y018461D01*
X013577Y018144D02*
X014023Y018144D01*
X013865Y017985D02*
X013735Y017985D01*
X013739Y017827D02*
X013861Y017827D01*
X013861Y017668D02*
X013739Y017668D01*
X013630Y017510D02*
X013970Y017510D01*
X014041Y017351D02*
X013559Y017351D01*
X013559Y017193D02*
X014041Y017193D01*
X014041Y017034D02*
X013559Y017034D01*
X013559Y016876D02*
X014041Y016876D01*
X014041Y016717D02*
X013559Y016717D01*
X013597Y016559D02*
X014041Y016559D01*
X014041Y016400D02*
X013597Y016400D01*
X013597Y016242D02*
X013846Y016242D01*
X013846Y016083D02*
X013710Y016083D01*
X013775Y016030D02*
X013775Y016030D01*
X013825Y015925D02*
X013846Y015925D01*
X013846Y015291D02*
X013741Y015291D01*
X013597Y015243D02*
X013597Y015242D01*
X013597Y015132D02*
X013846Y015132D01*
X013846Y014974D02*
X013597Y014974D01*
X013510Y014815D02*
X013885Y014815D01*
X014036Y014657D02*
X013509Y014657D01*
X012890Y016083D02*
X012710Y016083D01*
X012775Y016030D02*
X012775Y016030D01*
X012597Y016242D02*
X013003Y016242D01*
X013003Y016400D02*
X012597Y016400D01*
X012597Y016559D02*
X013003Y016559D01*
X013041Y016717D02*
X012559Y016717D01*
X012559Y016876D02*
X013041Y016876D01*
X013041Y017034D02*
X012559Y017034D01*
X012559Y017193D02*
X013041Y017193D01*
X013041Y017351D02*
X012559Y017351D01*
X012630Y017510D02*
X012970Y017510D01*
X012861Y017668D02*
X012739Y017668D01*
X012739Y017827D02*
X012861Y017827D01*
X012865Y017985D02*
X012735Y017985D01*
X012577Y018144D02*
X013023Y018144D01*
X013019Y018461D02*
X012581Y018461D01*
X012482Y018361D02*
X012739Y018618D01*
X012739Y018982D01*
X012482Y019239D01*
X012118Y019239D01*
X011861Y018982D01*
X011861Y018618D01*
X012118Y018361D01*
X012482Y018361D01*
X012739Y018619D02*
X012861Y018619D01*
X012861Y018778D02*
X012739Y018778D01*
X012739Y018936D02*
X012861Y018936D01*
X012974Y019095D02*
X012626Y019095D01*
X011974Y019095D02*
X011626Y019095D01*
X011739Y018982D02*
X011482Y019239D01*
X011118Y019239D01*
X010861Y018982D01*
X010861Y018618D01*
X011118Y018361D01*
X011482Y018361D01*
X011739Y018618D01*
X011739Y018982D01*
X011739Y018936D02*
X011861Y018936D01*
X011861Y018778D02*
X011739Y018778D01*
X011739Y018619D02*
X011861Y018619D01*
X012019Y018461D02*
X011581Y018461D01*
X011577Y018144D02*
X012023Y018144D01*
X011865Y017985D02*
X011735Y017985D01*
X011739Y017827D02*
X011861Y017827D01*
X011861Y017668D02*
X011739Y017668D01*
X011630Y017510D02*
X011970Y017510D01*
X012041Y017351D02*
X011559Y017351D01*
X011559Y017193D02*
X012041Y017193D01*
X012041Y017034D02*
X011559Y017034D01*
X011559Y016876D02*
X012041Y016876D01*
X012041Y016717D02*
X011559Y016717D01*
X011559Y016559D02*
X012003Y016559D01*
X012003Y016400D02*
X011559Y016400D01*
X011754Y016242D02*
X012003Y016242D01*
X011890Y016083D02*
X011754Y016083D01*
X011825Y016030D02*
X011825Y016030D01*
X011825Y016030D01*
X011775Y015925D02*
X011754Y015925D01*
X011041Y016400D02*
X010597Y016400D01*
X010597Y016242D02*
X010846Y016242D01*
X010846Y016083D02*
X010710Y016083D01*
X010775Y016030D02*
X010775Y016030D01*
X010825Y015925D02*
X010846Y015925D01*
X011041Y016559D02*
X010597Y016559D01*
X010559Y016717D02*
X011041Y016717D01*
X011041Y016876D02*
X010559Y016876D01*
X010559Y017034D02*
X011041Y017034D01*
X011041Y017193D02*
X010559Y017193D01*
X010559Y017351D02*
X011041Y017351D01*
X010970Y017510D02*
X010630Y017510D01*
X010739Y017668D02*
X010861Y017668D01*
X010861Y017827D02*
X010739Y017827D01*
X010735Y017985D02*
X010865Y017985D01*
X011023Y018144D02*
X010577Y018144D01*
X010482Y018361D02*
X010739Y018618D01*
X010739Y018982D01*
X010482Y019239D01*
X010118Y019239D01*
X009861Y018982D01*
X009861Y018618D01*
X010118Y018361D01*
X010482Y018361D01*
X010581Y018461D02*
X011019Y018461D01*
X010861Y018619D02*
X010739Y018619D01*
X010739Y018778D02*
X010861Y018778D01*
X010861Y018936D02*
X010739Y018936D01*
X010626Y019095D02*
X010974Y019095D01*
X009974Y019095D02*
X009626Y019095D01*
X009739Y018982D02*
X009482Y019239D01*
X009118Y019239D01*
X008861Y018982D01*
X008861Y018618D01*
X009118Y018361D01*
X009482Y018361D01*
X009739Y018618D01*
X009739Y018982D01*
X009739Y018936D02*
X009861Y018936D01*
X009861Y018778D02*
X009739Y018778D01*
X009739Y018619D02*
X009861Y018619D01*
X010019Y018461D02*
X009581Y018461D01*
X009577Y018144D02*
X010023Y018144D01*
X009865Y017985D02*
X009735Y017985D01*
X009739Y017827D02*
X009861Y017827D01*
X009861Y017668D02*
X009739Y017668D01*
X009630Y017510D02*
X009970Y017510D01*
X010041Y017351D02*
X009559Y017351D01*
X009559Y017193D02*
X010041Y017193D01*
X010041Y017034D02*
X009559Y017034D01*
X009559Y016876D02*
X010041Y016876D01*
X010041Y016717D02*
X009559Y016717D01*
X009597Y016559D02*
X010003Y016559D01*
X010003Y016400D02*
X009597Y016400D01*
X009597Y016242D02*
X010003Y016242D01*
X009890Y016083D02*
X009710Y016083D01*
X009775Y016030D02*
X009775Y016030D01*
X009825Y016030D02*
X009825Y016030D01*
X009825Y016030D01*
X009003Y016242D02*
X008597Y016242D01*
X008597Y016400D02*
X009003Y016400D01*
X009003Y016559D02*
X008597Y016559D01*
X008559Y016717D02*
X009041Y016717D01*
X009041Y016876D02*
X008559Y016876D01*
X008559Y017034D02*
X009041Y017034D01*
X009041Y017193D02*
X008559Y017193D01*
X008559Y017351D02*
X009041Y017351D01*
X008970Y017510D02*
X008630Y017510D01*
X008739Y017668D02*
X008861Y017668D01*
X008861Y017827D02*
X008739Y017827D01*
X008735Y017985D02*
X008865Y017985D01*
X009023Y018144D02*
X008577Y018144D01*
X008482Y018361D02*
X008739Y018618D01*
X008739Y018982D01*
X008482Y019239D01*
X008118Y019239D01*
X007861Y018982D01*
X007861Y018618D01*
X008118Y018361D01*
X008482Y018361D01*
X008581Y018461D02*
X009019Y018461D01*
X008861Y018619D02*
X008739Y018619D01*
X008739Y018778D02*
X008861Y018778D01*
X008861Y018936D02*
X008739Y018936D01*
X008626Y019095D02*
X008974Y019095D01*
X007974Y019095D02*
X007626Y019095D01*
X007739Y018982D02*
X007482Y019239D01*
X007118Y019239D01*
X006861Y018982D01*
X006861Y018618D01*
X007118Y018361D01*
X007482Y018361D01*
X007739Y018618D01*
X007739Y018982D01*
X007739Y018936D02*
X007861Y018936D01*
X007861Y018778D02*
X007739Y018778D01*
X007739Y018619D02*
X007861Y018619D01*
X008019Y018461D02*
X007581Y018461D01*
X007577Y018144D02*
X008023Y018144D01*
X007865Y017985D02*
X007735Y017985D01*
X007739Y017827D02*
X007861Y017827D01*
X007861Y017668D02*
X007739Y017668D01*
X007630Y017510D02*
X007970Y017510D01*
X008041Y017351D02*
X007559Y017351D01*
X007559Y017193D02*
X008041Y017193D01*
X008041Y017034D02*
X007559Y017034D01*
X007559Y016876D02*
X008041Y016876D01*
X008041Y016717D02*
X007559Y016717D01*
X007597Y016559D02*
X008003Y016559D01*
X008003Y016400D02*
X007597Y016400D01*
X007597Y016242D02*
X008003Y016242D01*
X007890Y016083D02*
X007710Y016083D01*
X007775Y016030D02*
X007775Y016030D01*
X007825Y016030D02*
X007825Y016030D01*
X007825Y016030D01*
X008710Y016083D02*
X008890Y016083D01*
X008825Y016030D02*
X008825Y016030D01*
X008825Y016030D01*
X008775Y016030D02*
X008775Y016030D01*
X009215Y014340D02*
X004991Y014340D01*
X006502Y017351D02*
X007041Y017351D01*
X006970Y017510D02*
X006660Y017510D01*
X006760Y017668D02*
X006861Y017668D01*
X006861Y017827D02*
X006760Y017827D01*
X006760Y017985D02*
X006865Y017985D01*
X007023Y018144D02*
X006607Y018144D01*
X006611Y018461D02*
X007019Y018461D01*
X006861Y018619D02*
X006760Y018619D01*
X006760Y018778D02*
X006861Y018778D01*
X006861Y018936D02*
X006760Y018936D01*
X006656Y019095D02*
X006974Y019095D01*
X005993Y018144D02*
X005085Y018144D01*
X005096Y017985D02*
X005840Y017985D01*
X005840Y017827D02*
X005009Y017827D01*
X005009Y017668D02*
X005840Y017668D01*
X005940Y017510D02*
X005009Y017510D01*
X001271Y004671D02*
X000980Y004671D01*
X000980Y004513D02*
X001090Y004513D01*
X001001Y004354D02*
X000980Y004354D01*
X000980Y004196D02*
X001020Y004196D01*
X000980Y004037D02*
X001154Y004037D01*
X001322Y003879D02*
X000980Y003879D01*
X000980Y003720D02*
X001320Y003720D01*
X001151Y003562D02*
X000980Y003562D01*
X000980Y003403D02*
X001019Y003403D01*
X001001Y003245D02*
X000980Y003245D01*
X000980Y003086D02*
X001092Y003086D01*
X000980Y002928D02*
X001273Y002928D01*
X002032Y003720D02*
X002068Y003720D01*
X002070Y003879D02*
X002030Y003879D01*
X002839Y003086D02*
X002939Y003086D01*
X001079Y001501D02*
X000980Y001501D01*
X000980Y001343D02*
X001001Y001343D01*
X000980Y001184D02*
X001025Y001184D01*
X000980Y001026D02*
X001182Y001026D01*
X001333Y000867D02*
X000980Y000867D01*
X002019Y000867D02*
X002081Y000867D01*
X010767Y001818D02*
X018529Y001818D01*
X018529Y001953D02*
X018529Y001647D01*
X018647Y001364D01*
X018864Y001147D01*
X019147Y001029D01*
X019453Y001029D01*
X019736Y001147D01*
X019953Y001364D01*
X020071Y001647D01*
X020071Y001953D01*
X019953Y002236D01*
X019736Y002453D01*
X019453Y002571D01*
X019147Y002571D01*
X018864Y002453D01*
X018647Y002236D01*
X018529Y001953D01*
X018539Y001977D02*
X010903Y001977D01*
X010780Y001775D02*
X010780Y001775D01*
X010874Y001660D02*
X018529Y001660D01*
X018590Y001501D02*
X011646Y001501D01*
X011724Y001343D02*
X018668Y001343D01*
X018826Y001184D02*
X011700Y001184D01*
X011543Y001026D02*
X020305Y001026D01*
X020305Y001184D02*
X019774Y001184D01*
X019932Y001343D02*
X020305Y001343D01*
X020305Y001501D02*
X020010Y001501D01*
X020071Y001660D02*
X020305Y001660D01*
X020305Y001818D02*
X020071Y001818D01*
X020061Y001977D02*
X020305Y001977D01*
X020305Y002135D02*
X019995Y002135D01*
X019896Y002294D02*
X020305Y002294D01*
X020305Y002452D02*
X019738Y002452D01*
X019712Y002832D02*
X019638Y002820D01*
X019320Y002820D01*
X019320Y003280D01*
X020080Y003280D01*
X020080Y003262D01*
X020068Y003188D01*
X020045Y003116D01*
X020011Y003048D01*
X019966Y002987D01*
X019913Y002934D01*
X019852Y002889D01*
X019784Y002855D01*
X019712Y002832D01*
X019904Y002928D02*
X020305Y002928D01*
X020305Y003086D02*
X020030Y003086D01*
X020077Y003245D02*
X020305Y003245D01*
X020305Y003403D02*
X020070Y003403D01*
X020068Y003412D02*
X020045Y003484D01*
X020011Y003552D01*
X019966Y003613D01*
X019913Y003666D01*
X019852Y003711D01*
X019784Y003745D01*
X019712Y003768D01*
X019638Y003780D01*
X019320Y003780D01*
X019320Y003320D01*
X020080Y003320D01*
X020080Y003338D01*
X020068Y003412D01*
X020003Y003562D02*
X020305Y003562D01*
X020305Y003720D02*
X019833Y003720D01*
X019781Y003879D02*
X020305Y003879D01*
X020305Y004037D02*
X019986Y004037D01*
X020053Y004196D02*
X020305Y004196D01*
X020305Y004354D02*
X020059Y004354D01*
X020009Y004513D02*
X020305Y004513D01*
X020305Y004671D02*
X019878Y004671D01*
X019320Y003720D02*
X019280Y003720D01*
X019280Y003562D02*
X019320Y003562D01*
X019320Y003403D02*
X019280Y003403D01*
X019280Y003245D02*
X019320Y003245D01*
X019320Y003086D02*
X019280Y003086D01*
X019280Y002928D02*
X019320Y002928D01*
X018862Y002452D02*
X011685Y002452D01*
X011724Y002294D02*
X018704Y002294D01*
X018605Y002135D02*
X011680Y002135D01*
X010815Y000867D02*
X020305Y000867D01*
M02*
